<?xml version="1.0" encoding="UTF-8"?>
<svg width="209px" height="48px" viewBox="0 0 209 48" version="1.1" xmlns="http://www.w3.org/2000/svg" xmlns:xlink="http://www.w3.org/1999/xlink">
    <!-- Generator: Sketch 46.2 (44496) - http://www.bohemiancoding.com/sketch -->
    <title>Logo</title>
    <desc>Created with Sketch.</desc>
    <defs>
        <linearGradient x1="-2.48949813e-15%" y1="50%" x2="100%" y2="50%" id="linearGradient-1">
            <stop stop-color="#2E49C2" offset="0%"></stop>
            <stop stop-color="#233BA8" offset="100%"></stop>
        </linearGradient>
        <linearGradient x1="50%" y1="0%" x2="50%" y2="100%" id="linearGradient-2">
            <stop stop-color="#FF9563" offset="0%"></stop>
            <stop stop-color="#F6A623" offset="100%"></stop>
        </linearGradient>
    </defs>
    <g id="Symbols" stroke="none" stroke-width="1" fill="none" fill-rule="evenodd">
        <g id="Elements-/-Header-/-Header-Desktop">
            <g id="Elements-/-Header-/-Logo-48">
                <g id="header_top_logo_nav">
                    <g id="Logo-Copy" fill-rule="nonzero">
                        <g id="Symbols">
                            <g id="Logo-Copy">
                                <rect id="Rectangle" fill="url(#linearGradient-1)" x="0" y="0" width="209" height="48"></rect>
                                <g id="Logo-Block" transform="translate(15.000000, 0.000000)">
                                    <rect id="Rectangle" fill="url(#linearGradient-2)" x="126" y="0" width="68" height="48"></rect>
                                    <polygon id="1" fill="#FB9D45" points="12 37 12 12 6.23 12 0 15.405 0 21.46 5 19.15 5 37"></polygon>
                                    <path d="M29.2774725,36.9805769 L22,36.9805769 L22,12 L33.7115326,12 C36.5497469,12 38.8057633,12.2371703 40.479582,13.7290522 C42.1534007,15.2209341 42.99031,17.1130769 42.99031,19.4782555 C42.99031,21.8434341 42.1534007,23.7719643 40.479582,25.2638462 C38.8057633,26.755728 36.5497469,27.4834753 33.7115326,27.4834753 L29.2774725,27.4834753 L29.2774725,36.9805769 Z M28.9084007,17.0403022 L28.9084007,22.0981456 L33.2384969,22.0981456 C35.1306397,22.0981456 36.36781,21.1520742 36.36781,19.5510302 C36.36781,17.9499863 35.1670271,17.0403022 33.2384969,17.0403022 L28.9084007,17.0403022 Z M52.814898,36.9805769 L46.2651727,36.9805769 L46.2651727,12 L58.236615,12 C61.0384419,12 63.258071,12.2371703 64.8955024,13.7290522 C66.569321,15.1845467 67.4062304,17.0766896 67.4062304,19.3690934 C67.4062304,22.6803434 65.5504749,25.3366209 62.4575491,26.5374038 L70.1716699,36.9805769 L62.6394859,36.9805769 L55.4347881,27.2651511 L52.814898,27.2651511 L52.814898,36.9805769 Z M52.814898,17.0403022 L52.814898,21.9162088 L57.8727414,21.9162088 C59.6557221,21.9162088 60.7837304,21.0065247 60.7837304,19.5146429 C60.7837304,18.022761 59.6557221,17.0403022 57.8727414,17.0403022 L52.814898,17.0403022 Z M80.614843,29.4120055 C81.8884007,30.7583379 83.4894447,31.4496978 85.417975,31.4496978 C87.346505,31.4496978 88.911162,30.7583379 90.184719,29.4120055 C91.458277,28.0656731 92.11325,26.3190797 92.11325,24.245 C92.11325,22.1709203 91.458277,20.4243269 90.184719,19.0779945 C88.911162,17.7316621 87.346505,17.0403022 85.417975,17.0403022 C83.4894447,17.0403022 81.8884007,17.7316621 80.614843,19.0779945 C79.3412853,20.4243269 78.7227002,22.1709203 78.7227002,24.245 C78.7227002,26.3190797 79.3412853,28.0656731 80.614843,29.4120055 Z M95.024239,33.6329396 C92.477123,36.2164423 89.275035,37.49 85.417975,37.49 C81.5609144,37.49 78.3588265,36.2164423 75.8117111,33.6329396 C73.2645958,31.0494368 71.9910381,27.9201236 71.9910381,24.245 C71.9910381,20.5698764 73.2645958,17.4405632 75.8117111,14.8570604 C78.3588265,12.2735577 81.5609144,11 85.417975,11 C89.275035,11 92.477123,12.2735577 95.024239,14.8570604 C97.571354,17.4405632 98.844912,20.5698764 98.844912,24.245 C98.844912,27.9201236 97.571354,31.0494368 95.024239,33.6329396 Z M109.470022,36.9805769 L109.470022,26.5010165 L119.039898,26.5010165 L119.039898,20.9701374 L109.470022,20.9701374 L109.470022,17.2586264 L122.278373,17.2586264 L122.278373,12 L102.920296,12 L102.920296,36.9805769 L109.470022,36.9805769 Z" id="PROF" fill="#FFFFFF"></path>
                                    <circle id="Oval-3" fill="#FFFFFF" cx="126" cy="34" r="4"></circle>
                                    <path d="M149.225,37 L136,37 L136,12 L148.546429,12 C153.117857,12 156.332143,14.2142857 156.332143,18.3214286 C156.332143,20.75 154.939286,22.4642857 153.403571,23.1785714 C154.617857,23.4642857 155.725,24.1785714 156.689286,25.3571429 C157.653571,26.5357143 158.153571,28 158.153571,29.8214286 C158.153571,31.9642857 157.332143,33.7142857 155.689286,35.0357143 C154.082143,36.3571429 151.903571,37 149.225,37 Z M142.796429,26.3214286 L142.796429,31.6428571 L147.975,31.6428571 C149.939286,31.6428571 151.117857,30.6785714 151.117857,29 C151.117857,27.3214286 149.867857,26.3214286 147.975,26.3214286 L142.796429,26.3214286 Z M142.796429,17.2142857 L142.796429,21.5714286 L147.582143,21.5714286 C149.153571,21.5714286 150.153571,20.75 150.153571,19.4285714 C150.153571,18.0357143 149.153571,17.2142857 147.582143,17.2142857 L142.796429,17.2142857 Z M175,37 L175,25.7857143 L185.225,12 L178.082143,12 L172,20.25 L166.903571,12 L159.582143,12 L169,25.9285714 L169,37 L175,37 Z" id="BY" fill="#FFFFFF"></path>
                                </g>
                            </g>
                        </g>
                    </g>
                </g>
            </g>
        </g>
    </g>
</svg>