<?xml version="1.0" encoding="UTF-8" standalone="no"?>
<!-- Created with Inkscape (http://www.inkscape.org/) -->

<svg
   xmlns:dc="http://purl.org/dc/elements/1.1/"
   xmlns:cc="http://creativecommons.org/ns#"
   xmlns:rdf="http://www.w3.org/1999/02/22-rdf-syntax-ns#"
   xmlns:svg="http://www.w3.org/2000/svg"
   xmlns="http://www.w3.org/2000/svg"
   xmlns:sodipodi="http://sodipodi.sourceforge.net/DTD/sodipodi-0.dtd"
   xmlns:inkscape="http://www.inkscape.org/namespaces/inkscape"
   width="30.337996mm"
   height="30.380054mm"
   viewBox="0 0 30.337996 30.380054"
   version="1.1"
   id="svg8"
   inkscape:version="0.92.3 (2405546, 2018-03-11)"
   sodipodi:docname="epidemiologia.svg">
  <defs
     id="defs2" />
  <sodipodi:namedview
     id="base"
     pagecolor="#ffffff"
     bordercolor="#666666"
     borderopacity="1.0"
     inkscape:pageopacity="0.0"
     inkscape:pageshadow="2"
     inkscape:zoom="0.7"
     inkscape:cx="292.50599"
     inkscape:cy="103.08911"
     inkscape:document-units="mm"
     inkscape:current-layer="layer1"
     showgrid="false"
     inkscape:window-width="1366"
     inkscape:window-height="706"
     inkscape:window-x="-8"
     inkscape:window-y="-8"
     inkscape:window-maximized="1" />
  <metadata
     id="metadata5">
    <rdf:RDF>
      <cc:Work
         rdf:about="">
        <dc:format>image/svg+xml</dc:format>
        <dc:type
           rdf:resource="http://purl.org/dc/dcmitype/StillImage" />
        <dc:title></dc:title>
      </cc:Work>
    </rdf:RDF>
  </metadata>
  <g
     inkscape:label="Layer 1"
     inkscape:groupmode="layer"
     id="layer1"
     transform="translate(-70.816526,-120.29008)">
    <g
       id="g3724"
       transform="translate(24.190476,61.232143)">
      <path
         style="fill:#a6dad5;stroke-width:0.08466666"
         d="M 60.707215,89.39891 C 57.241868,89.149513 53.863124,87.644301 51.35387,85.232048 48.963271,82.933863 47.551562,80.39281 46.853611,77.131659 46.644056,76.152518 46.62605,75.9143 46.62605,74.121051 c 0,-1.793248 0.01801,-2.031466 0.227561,-3.010607 0.678422,-3.169906 2.160687,-5.856518 4.434971,-8.038408 0.873779,-0.838282 1.659315,-1.42425 1.709099,-1.274899 0.01594,0.04783 -0.225466,0.36792 -0.536467,0.711303 -2.030067,2.241443 -3.316638,5.021565 -3.68482,7.962446 -0.145977,1.166001 -0.05944,3.477968 0.17073,4.561539 1.213393,5.712176 5.434238,9.928482 11.178306,11.166284 0.759533,0.163674 1.147935,0.192114 2.667,0.195291 1.52892,0.0032 1.912355,-0.0235 2.737061,-0.190595 4.381196,-0.88766 8.006795,-3.648524 9.991238,-7.608247 0.40796,-0.814036 0.858545,-2.022682 1.153435,-3.093964 0.224275,-0.814752 0.33468,-0.719163 0.272908,0.236285 -0.106595,1.648739 -0.714208,3.674149 -1.636514,5.455128 -2.801311,5.409354 -8.553383,8.641713 -14.603343,8.206303 z m -2.368918,-5.01593 c -0.714929,-0.301517 -1.032033,-0.52303 -1.550651,-1.083199 -0.53338,-0.576113 -1.066986,-1.596116 -1.28051,-2.44773 -0.09865,-0.393443 -0.150972,-1.112157 -0.183545,-2.521083 L 55.278031,76.36022 54.87747,76.187904 c -0.823439,-0.354235 -1.374441,-1.210127 -1.381361,-2.145721 -0.0068,-0.915952 0.478383,-1.695592 1.337654,-2.149585 0.349957,-0.184899 0.533395,-0.22341 1.058333,-0.222185 0.540301,0.0013 0.702333,0.03832 1.086503,0.248495 0.493305,0.269881 0.769724,0.556191 1.053912,1.091616 0.14521,0.273585 0.185302,0.494172 0.186452,1.025861 0.0013,0.59319 -0.02955,0.733326 -0.248213,1.12806 -0.26811,0.484002 -0.694276,0.871748 -1.182187,1.07561 l -0.303801,0.126936 0.0013,1.840363 c 0.0014,2.101584 0.07947,2.586524 0.564943,3.510377 0.599392,1.140643 1.455459,1.757332 2.439472,1.757332 1.238967,0 2.281656,-0.95657 2.805777,-2.57404 0.198319,-0.612021 0.226082,-0.854842 0.263922,-2.308292 l 0.04229,-1.624321 -0.466071,-0.13549 c -0.25634,-0.07452 -0.699748,-0.277025 -0.985353,-0.450013 -0.544493,-0.329791 -1.364233,-1.076186 -1.364233,-1.242168 0,-0.05336 -0.153411,-0.333112 -0.340913,-0.621671 -0.875223,-1.346941 -1.344044,-2.659098 -1.41386,-3.957183 -0.09592,-1.783471 0.449428,-2.539561 2.133451,-2.957879 0.324689,-0.08065 0.682252,-0.218938 0.794585,-0.307298 0.290464,-0.22848 0.781576,-0.211371 1.013312,0.0353 0.272786,0.290367 0.249903,0.755833 -0.04874,0.991436 -0.197478,0.155792 -0.303545,0.17625 -0.6985,0.134726 -0.373829,-0.0393 -0.59874,-0.0034 -1.140419,0.182295 -0.911041,0.312234 -1.020227,0.492052 -1.014383,1.670586 0.0049,0.985982 0.18566,1.672835 0.722615,2.745638 0.346379,0.692045 0.56346,0.946418 1.463995,1.715492 1.308132,1.117171 2.484063,1.1175 3.716897,10e-4 0.257393,-0.233097 0.538407,-0.446361 0.624475,-0.473918 0.361689,-0.115809 1.183587,-1.68139 1.467473,-2.795297 0.340823,-1.337317 0.165594,-2.412367 -0.44005,-2.699764 -0.522098,-0.247752 -1.232939,-0.392464 -1.672249,-0.340434 -0.383255,0.04539 -0.437798,0.02849 -0.675634,-0.209345 -0.316116,-0.316116 -0.325424,-0.518148 -0.03953,-0.857917 0.173505,-0.206199 0.285836,-0.260496 0.538915,-0.260496 0.184165,0 0.405333,0.06723 0.521641,0.158565 0.111055,0.08721 0.499982,0.24026 0.864282,0.340108 0.857379,0.234992 1.252467,0.441495 1.561138,0.815966 0.911765,1.106128 0.56249,3.749789 -0.763589,5.779616 -0.234539,0.359009 -0.460508,0.775751 -0.502152,0.926092 -0.132308,0.477652 -1.334134,1.348405 -2.252966,1.632329 l -0.482795,0.149186 -0.04878,1.766569 c -0.04683,1.695981 -0.05944,1.79782 -0.315544,2.548712 -0.489729,1.435888 -1.350838,2.492955 -2.450118,3.00768 -0.483924,0.226591 -0.689805,0.272135 -1.334222,0.295143 -0.649617,0.02319 -0.832026,-0.0023 -1.2368,-0.173038 z m 12.168299,-2.197429 c 0.034,-0.05821 0.240951,-0.315383 0.45988,-0.5715 1.40393,-1.642399 2.326583,-3.455046 2.801243,-5.503333 0.245182,-1.058025 0.303952,-3.074506 0.124973,-4.287985 -0.752171,-5.099727 -4.556629,-9.062995 -9.671597,-10.075319 -1.115466,-0.220766 -3.265949,-0.201512 -4.397472,0.03937 -4.390016,0.934572 -7.666734,3.856281 -9.090778,8.105856 -0.182541,0.54473 -0.367904,1.026431 -0.411919,1.070446 -0.290961,0.290961 -0.04726,-1.663549 0.366331,-2.938037 0.32175,-0.991474 1.213313,-2.778101 1.774516,-3.556 1.856421,-2.573237 4.47657,-4.363882 7.415449,-5.067816 1.264978,-0.302993 1.613945,-0.34183 3.084541,-0.34328 1.701731,-0.0017 2.716177,0.155241 4.148667,0.641729 2.944494,0.999981 5.571568,3.187066 7.121067,5.92841 1.148996,2.032781 1.717876,4.454148 1.615286,6.875258 -0.134592,3.176342 -1.420907,6.199046 -3.571687,8.393081 -0.75859,0.773847 -1.518159,1.39495 -1.705933,1.39495 -0.07605,0 -0.100363,-0.04113 -0.06257,-0.105833 z"
         id="path3738"
         inkscape:connector-curvature="0" />
      <path
         style="fill:#9aa4a5;stroke-width:0.08466666"
         d="m 60.529387,89.31297 c -1.864213,-0.150214 -3.876458,-0.739356 -5.65329,-1.655162 -4.471383,-2.304619 -7.47494,-6.614384 -8.134563,-11.67218 -0.148791,-1.140887 -0.05461,-3.759867 0.173609,-4.82791 0.566002,-2.648792 1.788491,-5.123679 3.492718,-7.070886 0.879742,-1.00517 2.120357,-2.120881 2.233029,-2.008209 0.0254,0.0254 -0.252338,0.402189 -0.617199,0.837307 -1.618764,1.930465 -2.637551,4.035306 -3.169591,6.548455 -0.170083,0.803409 -0.197429,1.175553 -0.199084,2.709333 -0.0016,1.521213 0.02598,1.915631 0.191226,2.730957 0.493542,2.435093 1.569675,4.69539 3.113731,6.540043 3.108076,3.713157 7.948139,5.595973 12.743928,4.957472 3.857784,-0.513616 7.258267,-2.530896 9.641187,-5.719472 0.774761,-1.036706 1.684584,-2.834689 2.084548,-4.119462 0.171712,-0.551579 0.345412,-1.039066 0.385998,-1.083305 0.202762,-0.221002 -0.0273,1.377733 -0.387493,2.692729 -1.932164,7.054008 -8.602855,11.728175 -15.898754,11.14029 z M 58.60143,84.417222 c -1.374775,-0.445794 -2.524033,-1.779404 -2.977451,-3.455064 -0.147513,-0.545155 -0.187743,-1.004498 -0.230462,-2.63148 l -0.05175,-1.97104 -0.507999,-0.280169 c -0.610119,-0.336488 -1.006863,-0.823971 -1.193717,-1.466724 -0.155841,-0.536076 -0.116669,-0.95753 0.143733,-1.54643 0.219544,-0.4965 0.523607,-0.811821 1.049984,-1.088858 0.57003,-0.300014 1.515,-0.317532 2.043383,-0.03788 0.493998,0.261453 0.872116,0.667332 1.1141,1.195892 0.174728,0.381657 0.201721,0.545102 0.16788,1.016515 -0.02359,0.328583 -0.112911,0.703879 -0.215208,0.904207 -0.22687,0.444277 -0.837676,1.003943 -1.240922,1.137026 l -0.317853,0.104901 0.03501,2.086467 c 0.03083,1.837702 0.05563,2.142213 0.207955,2.554036 0.459571,1.242463 1.011748,1.959509 1.819975,2.363385 1.636576,0.817807 3.417702,-0.380802 4.01806,-2.703955 0.106432,-0.41185 0.144073,-0.94429 0.149588,-2.115915 l 0.0074,-1.56558 -0.523774,-0.180047 C 61.811246,76.637484 61.392146,76.449122 61.167988,76.317927 60.64464,76.011623 59.9013,75.30993 59.839556,75.063921 c -0.02632,-0.104877 -0.2355,-0.474227 -0.464838,-0.820778 -1.335105,-2.017458 -1.695578,-4.731394 -0.768661,-5.787095 0.300281,-0.342001 0.792872,-0.586248 1.576567,-0.781727 0.317792,-0.07927 0.680799,-0.219604 0.806681,-0.31186 0.478524,-0.350696 1.111678,-0.08904 1.111678,0.459415 0,0.425765 -0.258996,0.580414 -0.943633,0.56345 -0.707813,-0.01754 -1.627265,0.270783 -1.877332,0.588693 -0.67684,0.860461 -0.260266,3.157898 0.885615,4.884241 0.170349,0.256642 0.378694,0.488512 0.462988,0.515266 0.08429,0.02675 0.376478,0.243974 0.649297,0.482713 1.307722,1.144357 2.41334,1.118305 3.885177,-0.09155 0.80931,-0.665255 0.937558,-0.818407 1.339067,-1.599092 0.48772,-0.94831 0.732725,-1.752387 0.792395,-2.600548 0.05694,-0.809366 -0.06401,-1.332327 -0.381495,-1.649508 -0.299721,-0.299435 -1.420374,-0.603736 -1.976363,-0.536662 -0.346541,0.04181 -0.422841,0.02063 -0.613834,-0.170363 -0.270493,-0.270493 -0.275979,-0.48774 -0.01984,-0.785523 0.244678,-0.284456 0.635558,-0.306212 0.976238,-0.05434 0.13105,0.09689 0.501423,0.241524 0.82305,0.32141 1.215639,0.301942 1.701376,0.704636 1.935867,1.604907 0.347203,1.333 -0.07594,3.195785 -1.094452,4.818089 -0.251324,0.400313 -0.482647,0.813525 -0.514052,0.918248 -0.07815,0.260584 -0.673321,0.863829 -1.162622,1.178384 -0.222221,0.142857 -0.679421,0.361303 -1.016,0.485435 l -0.611963,0.225695 -0.04774,1.732779 c -0.05399,1.959756 -0.10988,2.250583 -0.649845,3.381553 -0.483442,1.012582 -1.166162,1.73403 -2.026542,2.1415 -0.502139,0.237809 -0.677741,0.276005 -1.339874,0.291438 -0.4191,0.0098 -0.85725,-0.01313 -0.973667,-0.05088 z m 12.804933,-3.078338 c 1.314832,-1.725327 2.102338,-3.376961 2.533181,-5.312833 0.17087,-0.767762 0.197091,-1.108382 0.192267,-2.497666 -0.0061,-1.749715 -0.109008,-2.394787 -0.631214,-3.955839 -1.208806,-3.613529 -4.309016,-6.571852 -8.011427,-7.644769 -1.652836,-0.478973 -3.733563,-0.606495 -5.369987,-0.329111 -4.027562,0.682696 -7.601746,3.496021 -9.130341,7.186709 -0.13539,0.326889 -0.307059,0.727693 -0.381487,0.890677 l -0.135324,0.296333 0.03972,-0.508 c 0.02184,-0.2794 0.176809,-0.921756 0.344368,-1.427456 0.712512,-2.150403 1.577242,-3.55313 3.166755,-5.136969 1.538406,-1.532915 3.118697,-2.516698 5.001893,-3.113843 1.356425,-0.430111 1.981402,-0.532355 3.556,-0.581753 1.256314,-0.03941 1.636194,-0.01999 2.497667,0.127676 3.452607,0.591828 6.50152,2.543406 8.422276,5.391012 0.917136,1.359693 1.531302,2.784181 1.934708,4.487333 0.20038,0.845992 0.220858,1.094257 0.223472,2.709333 0.0023,1.426539 -0.02824,1.920259 -0.154519,2.497667 -0.560223,2.561529 -1.743291,4.773101 -3.498545,6.540018 -0.672804,0.677274 -0.968071,0.865174 -0.599459,0.381481 z"
         id="path3736"
         inkscape:connector-curvature="0" />
      <path
         style="fill:#51c6b8;stroke-width:0.08466666"
         d="M 60.718097,89.260518 C 55.977371,88.904466 51.54073,86.236985 49.056401,82.249051 47.32072,79.462876 46.554964,76.413933 46.757706,73.096544 c 0.200705,-3.284078 1.528623,-6.486993 3.736532,-9.012453 0.624707,-0.714554 1.565013,-1.601201 1.700552,-1.603508 0.0387,-6.59e-4 -0.106694,0.217877 -0.323091,0.485636 -4.890425,6.051134 -4.364398,14.509629 1.229843,19.775812 2.754518,2.592988 6.587984,4.014359 10.360467,3.841452 5.919464,-0.271311 10.882353,-3.990573 12.957798,-9.710765 0.239636,-0.660469 0.292262,-0.75133 0.294229,-0.508 0.0013,0.162983 -0.07212,0.633379 -0.163201,1.045324 -0.694677,3.142042 -2.573255,6.268957 -4.97877,8.287226 -3.039059,2.549823 -7.006303,3.85223 -10.853968,3.56325 z M 59.00479,84.396429 C 57.543854,84.195907 56.267393,82.885221 55.716525,81.020002 55.552604,80.46497 55.524558,80.13175 55.490397,78.333339 l -0.039,-2.053045 -0.388823,-0.171995 C 54.47571,75.848701 54.177726,75.5853 53.903487,75.083733 53.69544,74.703226 53.654884,74.532366 53.654884,74.036385 c 0,-0.49708 0.04044,-0.666687 0.250773,-1.051609 0.728404,-1.333062 2.530938,-1.586071 3.569148,-0.500977 1.083795,1.132735 0.697228,2.984137 -0.757209,3.626544 l -0.402167,0.177632 v 1.845161 c 0,1.546327 0.02649,1.948737 0.163564,2.48469 0.340283,1.330495 1.046974,2.313616 2.000518,2.783044 0.490972,0.241705 0.600487,0.263952 1.116314,0.226778 0.745582,-0.05373 1.307571,-0.340381 1.866655,-0.952108 0.484121,-0.529706 0.879051,-1.274846 1.078649,-2.035155 0.141694,-0.539745 0.275839,-3.235702 0.18,-3.61755 -0.0427,-0.170142 -0.136666,-0.235047 -0.456896,-0.315598 -0.881258,-0.221673 -2.221113,-1.169594 -2.34373,-1.658141 -0.02963,-0.118072 -0.185221,-0.397492 -0.345747,-0.620932 -0.406809,-0.56625 -0.921385,-1.628449 -1.153675,-2.381446 -0.161311,-0.522904 -0.19631,-0.829298 -0.198271,-1.735666 -0.0021,-0.985848 0.01773,-1.138322 0.190419,-1.461635 0.270331,-0.506127 0.741078,-0.815898 1.563872,-1.029091 0.384264,-0.09956 0.755811,-0.217575 0.825661,-0.262241 0.49241,-0.314881 0.610736,-0.350425 0.844378,-0.253648 0.314043,0.130081 0.453335,0.440157 0.324625,0.722645 -0.112592,0.247114 -0.37621,0.335195 -0.79823,0.266711 -0.365487,-0.05931 -1.565027,0.271465 -1.819452,0.501718 -0.371127,0.335865 -0.455195,0.621594 -0.445901,1.515541 0.0073,0.705862 0.05291,0.98043 0.274019,1.651 0.297181,0.901274 0.806291,1.87373 1.168501,2.231971 0.510368,0.504773 1.277459,1.083545 1.75675,1.32547 0.975169,0.492223 1.879589,0.294372 3.055643,-0.668452 0.866587,-0.709467 1.055062,-0.940992 1.483792,-1.822705 0.483664,-0.99469 0.667578,-1.623646 0.732673,-2.505618 0.09435,-1.278302 -0.247358,-1.801561 -1.369798,-2.0976 -0.453647,-0.119647 -0.806879,-0.163005 -1.069604,-0.131293 -0.325372,0.03928 -0.422837,0.01678 -0.5715,-0.131877 -0.210619,-0.21062 -0.227172,-0.411771 -0.0542,-0.658716 0.202433,-0.289014 0.526854,-0.32173 0.880369,-0.08878 0.168816,0.111243 0.581518,0.269261 0.917113,0.351153 1.378002,0.336258 1.875506,0.903995 1.9509,2.226312 0.0748,1.311898 -0.349673,2.760732 -1.210576,4.131991 -0.255069,0.406277 -0.486491,0.82925 -0.514273,0.93994 -0.113353,0.451632 -1.366171,1.354647 -2.233224,1.609677 -0.256117,0.07533 -0.493658,0.179544 -0.52787,0.231581 -0.03421,0.05204 -0.06305,0.780412 -0.06409,1.618612 -0.0015,1.220379 -0.03517,1.662829 -0.168953,2.220842 -0.584649,2.438647 -2.350475,3.924815 -4.339057,3.651869 z m 12.401573,-3.057545 c 1.314832,-1.725327 2.102338,-3.376961 2.533181,-5.312833 0.17087,-0.767762 0.197091,-1.108382 0.192267,-2.497666 -0.0061,-1.749715 -0.109008,-2.394787 -0.631214,-3.955839 -1.208806,-3.613529 -4.309016,-6.571852 -8.011427,-7.644769 -1.652836,-0.478973 -3.733563,-0.606495 -5.369987,-0.329111 -4.133745,0.700695 -7.699768,3.574915 -9.233712,7.442386 -0.147756,0.372533 -0.305776,0.715433 -0.351155,0.762 -0.165383,0.169712 0.02405,-0.866227 0.324114,-1.772474 0.709459,-2.142682 1.576339,-3.548186 3.16444,-5.130618 1.538406,-1.532915 3.118697,-2.516698 5.001893,-3.113843 1.356425,-0.430111 1.981402,-0.532355 3.556,-0.581753 1.256314,-0.03941 1.636194,-0.01999 2.497667,0.127676 3.452607,0.591828 6.50152,2.543406 8.422276,5.391012 0.917136,1.359693 1.531302,2.784181 1.934708,4.487333 0.20038,0.845992 0.220858,1.094257 0.223472,2.709333 0.0023,1.426539 -0.02824,1.920259 -0.154519,2.497667 -0.560223,2.561529 -1.743291,4.773101 -3.498545,6.540018 -0.672804,0.677274 -0.968071,0.865174 -0.599459,0.381481 z"
         id="path3734"
         inkscape:connector-curvature="0" />
      <path
         style="fill:#24c3b4;stroke-width:0.08466666"
         d="M 60.718097,89.260518 C 55.977371,88.904466 51.54073,86.236985 49.056401,82.249051 47.32072,79.462876 46.554964,76.413933 46.757706,73.096544 c 0.200705,-3.284078 1.528623,-6.486993 3.736532,-9.012453 0.624707,-0.714554 1.565013,-1.601201 1.700552,-1.603508 0.0387,-6.59e-4 -0.106694,0.217877 -0.323091,0.485636 -4.890425,6.051134 -4.364398,14.509629 1.229843,19.775812 2.754518,2.592988 6.587984,4.014359 10.360467,3.841452 5.919464,-0.271311 10.882353,-3.990573 12.957798,-9.710765 0.239636,-0.660469 0.292262,-0.75133 0.294229,-0.508 0.0013,0.162983 -0.07212,0.633379 -0.163201,1.045324 -0.694677,3.142042 -2.573255,6.268957 -4.97877,8.287226 -3.039059,2.549823 -7.006303,3.85223 -10.853968,3.56325 z M 59.00479,84.396429 C 57.543854,84.195907 56.267393,82.885221 55.716525,81.020002 55.552604,80.46497 55.524558,80.13175 55.490397,78.333339 l -0.039,-2.053045 -0.388823,-0.171995 C 54.47571,75.848701 54.177726,75.5853 53.903487,75.083733 53.69544,74.703226 53.654884,74.532366 53.654884,74.036385 c 0,-0.49708 0.04044,-0.666687 0.250773,-1.051609 0.728404,-1.333062 2.530938,-1.586071 3.569148,-0.500977 1.083795,1.132735 0.697228,2.984137 -0.757209,3.626544 l -0.402167,0.177632 v 1.845161 c 0,1.546327 0.02649,1.948737 0.163564,2.48469 0.340283,1.330495 1.046974,2.313616 2.000518,2.783044 0.490972,0.241705 0.600487,0.263952 1.116314,0.226778 0.745582,-0.05373 1.307571,-0.340381 1.866655,-0.952108 0.484121,-0.529706 0.879051,-1.274846 1.078649,-2.035155 0.141694,-0.539745 0.275839,-3.235702 0.18,-3.61755 -0.0427,-0.170142 -0.136666,-0.235047 -0.456896,-0.315598 -0.881258,-0.221673 -2.221113,-1.169594 -2.34373,-1.658141 -0.02963,-0.118072 -0.185221,-0.397492 -0.345747,-0.620932 -0.406809,-0.56625 -0.921385,-1.628449 -1.153675,-2.381446 -0.161311,-0.522904 -0.19631,-0.829298 -0.198271,-1.735666 -0.0021,-0.985848 0.01773,-1.138322 0.190419,-1.461635 0.270331,-0.506127 0.741078,-0.815898 1.563872,-1.029091 0.384264,-0.09956 0.755811,-0.217575 0.825661,-0.262241 0.49241,-0.314881 0.610736,-0.350425 0.844378,-0.253648 0.314043,0.130081 0.453335,0.440157 0.324625,0.722645 -0.112592,0.247114 -0.37621,0.335195 -0.79823,0.266711 -0.365487,-0.05931 -1.565027,0.271465 -1.819452,0.501718 -0.371127,0.335865 -0.455195,0.621594 -0.445901,1.515541 0.0073,0.705862 0.05291,0.98043 0.274019,1.651 0.297181,0.901274 0.806291,1.87373 1.168501,2.231971 0.510368,0.504773 1.277459,1.083545 1.75675,1.32547 0.975169,0.492223 1.879589,0.294372 3.055643,-0.668452 0.866587,-0.709467 1.055062,-0.940992 1.483792,-1.822705 0.483664,-0.99469 0.667578,-1.623646 0.732673,-2.505618 0.09435,-1.278302 -0.247358,-1.801561 -1.369798,-2.0976 -0.453647,-0.119647 -0.806879,-0.163005 -1.069604,-0.131293 -0.325372,0.03928 -0.422837,0.01678 -0.5715,-0.131877 -0.210619,-0.21062 -0.227172,-0.411771 -0.0542,-0.658716 0.202433,-0.289014 0.526854,-0.32173 0.880369,-0.08878 0.168816,0.111243 0.581518,0.269261 0.917113,0.351153 1.378002,0.336258 1.875506,0.903995 1.9509,2.226312 0.0748,1.311898 -0.349673,2.760732 -1.210576,4.131991 -0.255069,0.406277 -0.486491,0.82925 -0.514273,0.93994 -0.113353,0.451632 -1.366171,1.354647 -2.233224,1.609677 -0.256117,0.07533 -0.493658,0.179544 -0.52787,0.231581 -0.03421,0.05204 -0.06305,0.780412 -0.06409,1.618612 -0.0015,1.220379 -0.03517,1.662829 -0.168953,2.220842 -0.584649,2.438647 -2.350475,3.924815 -4.339057,3.651869 z m 13.827573,-5.018758 c 1.398364,-2.662364 1.81049,-5.291352 1.268003,-8.088705 -0.488328,-2.51808 -1.565263,-4.541236 -3.385299,-6.35971 -3.687385,-3.684218 -9.073111,-4.641276 -13.775594,-2.44796 -2.398734,1.118809 -4.243089,2.851554 -5.613298,5.273612 -0.153039,0.270521 -0.29713,0.472981 -0.320202,0.449909 -0.07384,-0.07384 0.326354,-1.172232 0.699339,-1.919428 0.627521,-1.257105 1.356475,-2.251287 2.449204,-3.340337 2.325019,-2.317193 5.050732,-3.511166 8.352458,-3.658716 5.939155,-0.265414 11.257457,3.752598 12.687358,9.585382 0.480072,1.958284 0.506786,3.882012 0.08119,5.846388 -0.334281,1.542894 -1.075037,3.245936 -1.924298,4.424072 -0.523478,0.726195 -0.912259,1.201873 -0.982314,1.201873 -0.02427,0 0.184289,-0.434871 0.463455,-0.96638 z"
         id="path3732"
         inkscape:connector-curvature="0" />
      <path
         style="fill:#1ec5b4;stroke-width:0.08466666"
         d="M 60.718097,89.260518 C 55.977371,88.904466 51.54073,86.236985 49.056401,82.249051 47.32072,79.462876 46.554964,76.413933 46.757706,73.096544 c 0.200705,-3.284078 1.528623,-6.486993 3.736532,-9.012453 0.624707,-0.714554 1.565013,-1.601201 1.700552,-1.603508 0.0387,-6.59e-4 -0.106694,0.217877 -0.323091,0.485636 -4.890425,6.051134 -4.364398,14.509629 1.229843,19.775812 2.754518,2.592988 6.587984,4.014359 10.360467,3.841452 5.919464,-0.271311 10.882353,-3.990573 12.957798,-9.710765 0.239636,-0.660469 0.292262,-0.75133 0.294229,-0.508 0.0013,0.162983 -0.07212,0.633379 -0.163201,1.045324 -0.694677,3.142042 -2.573255,6.268957 -4.97877,8.287226 -3.039059,2.549823 -7.006303,3.85223 -10.853968,3.56325 z M 59.00479,84.396429 C 57.543854,84.195907 56.267393,82.885221 55.716525,81.020002 55.552604,80.46497 55.524558,80.13175 55.490397,78.333339 l -0.039,-2.053045 -0.388823,-0.171995 C 54.47571,75.848701 54.177726,75.5853 53.903487,75.083733 53.69544,74.703226 53.654884,74.532366 53.654884,74.036385 c 0,-0.49708 0.04044,-0.666687 0.250773,-1.051609 0.728404,-1.333062 2.530938,-1.586071 3.569148,-0.500977 1.083795,1.132735 0.697228,2.984137 -0.757209,3.626544 l -0.402167,0.177632 v 1.845161 c 0,1.546327 0.02649,1.948737 0.163564,2.48469 0.340283,1.330495 1.046974,2.313616 2.000518,2.783044 0.490972,0.241705 0.600487,0.263952 1.116314,0.226778 0.745582,-0.05373 1.307571,-0.340381 1.866655,-0.952108 0.484121,-0.529706 0.879051,-1.274846 1.078649,-2.035155 0.141694,-0.539745 0.275839,-3.235702 0.18,-3.61755 -0.0427,-0.170142 -0.136666,-0.235047 -0.456896,-0.315598 -0.881258,-0.221673 -2.221113,-1.169594 -2.34373,-1.658141 -0.02963,-0.118072 -0.185221,-0.397492 -0.345747,-0.620932 -0.406809,-0.56625 -0.921385,-1.628449 -1.153675,-2.381446 -0.161311,-0.522904 -0.19631,-0.829298 -0.198271,-1.735666 -0.0021,-0.985848 0.01773,-1.138322 0.190419,-1.461635 0.270331,-0.506127 0.741078,-0.815898 1.563872,-1.029091 0.384264,-0.09956 0.755811,-0.217575 0.825661,-0.262241 0.49241,-0.314881 0.610736,-0.350425 0.844378,-0.253648 0.314043,0.130081 0.453335,0.440157 0.324625,0.722645 -0.112592,0.247114 -0.37621,0.335195 -0.79823,0.266711 -0.365487,-0.05931 -1.565027,0.271465 -1.819452,0.501718 -0.371127,0.335865 -0.455195,0.621594 -0.445901,1.515541 0.0073,0.705862 0.05291,0.98043 0.274019,1.651 0.297181,0.901274 0.806291,1.87373 1.168501,2.231971 0.510368,0.504773 1.277459,1.083545 1.75675,1.32547 0.975169,0.492223 1.879589,0.294372 3.055643,-0.668452 0.866587,-0.709467 1.055062,-0.940992 1.483792,-1.822705 0.483664,-0.99469 0.667578,-1.623646 0.732673,-2.505618 0.09435,-1.278302 -0.247358,-1.801561 -1.369798,-2.0976 -0.453647,-0.119647 -0.806879,-0.163005 -1.069604,-0.131293 -0.325372,0.03928 -0.422837,0.01678 -0.5715,-0.131877 -0.210619,-0.21062 -0.227172,-0.411771 -0.0542,-0.658716 0.202433,-0.289014 0.526854,-0.32173 0.880369,-0.08878 0.168816,0.111243 0.581518,0.269261 0.917113,0.351153 1.378002,0.336258 1.875506,0.903995 1.9509,2.226312 0.0748,1.311898 -0.349673,2.760732 -1.210576,4.131991 -0.255069,0.406277 -0.486491,0.82925 -0.514273,0.93994 -0.113353,0.451632 -1.366171,1.354647 -2.233224,1.609677 -0.256117,0.07533 -0.493658,0.179544 -0.52787,0.231581 -0.03421,0.05204 -0.06305,0.780412 -0.06409,1.618612 -0.0015,1.220379 -0.03517,1.662829 -0.168953,2.220842 -0.584649,2.438647 -2.350475,3.924815 -4.339057,3.651869 z m 14.667306,-6.286051 c 0,-0.06985 0.0381,-0.150547 0.08467,-0.179327 0.04657,-0.02878 0.08467,0.0048 0.08467,0.07467 0,0.06985 -0.0381,0.150546 -0.08467,0.179326 -0.04657,0.02878 -0.08467,-0.0048 -0.08467,-0.07467 z m 0.300393,-0.750827 c 0.09223,-0.42406 0.194876,-0.656166 0.290178,-0.656166 0.123803,0 0.107175,0.295253 -0.03592,0.637719 -0.159284,0.381218 -0.33595,0.394035 -0.254261,0.01845 z m 0.292274,-1.089866 c 0,-0.150135 0.02089,-0.16236 0.127,-0.0743 0.06985,0.05797 0.127,0.138835 0.127,0.1797 0,0.04086 -0.05715,0.0743 -0.127,0.0743 -0.073,0 -0.127,-0.07641 -0.127,-0.1797 z m 0.145507,-0.476467 c -0.02475,-0.128058 -6.77e-4,-0.585937 0.05354,-1.017509 0.09273,-0.738459 0.113074,-0.792218 0.345336,-0.912717 0.315874,-0.163878 0.409602,-0.04457 0.335744,0.427393 -0.06837,0.436899 -0.107471,0.495249 -0.251668,0.375575 -0.155092,-0.128714 -0.267851,0.124167 -0.129629,0.290715 0.113551,0.136821 0.02927,0.645481 -0.107252,0.647339 -0.05386,7.62e-4 -0.0439,0.03381 0.02292,0.07612 0.14149,0.08959 0.06374,0.345915 -0.104931,0.345915 -0.06549,0 -0.139321,-0.104775 -0.164066,-0.232833 z m 0.152803,-2.219301 c -0.02651,-0.0429 -0.01634,-0.281227 0.02261,-0.529615 0.04983,-0.317773 0.03899,-0.526247 -0.03656,-0.703434 -0.169598,-0.397697 -0.136166,-0.670227 0.115061,-0.937953 0.194924,-0.207726 0.23469,-0.222554 0.260208,-0.09703 0.01657,0.08149 0.06615,0.148167 0.110194,0.148167 0.04404,0 0.0603,-0.09525 0.03612,-0.211667 -0.02417,-0.116417 -0.06372,-0.306917 -0.08789,-0.423333 -0.05789,-0.278845 -0.236529,-0.269052 -0.386112,0.02117 -0.231975,0.450077 -0.412838,0.395821 -0.415312,-0.124586 -6.77e-4,-0.150013 -0.09655,-0.488129 -0.212963,-0.751368 -0.116416,-0.263239 -0.211666,-0.536377 -0.211666,-0.606974 0,-0.117173 -0.131887,-0.437054 -0.488402,-1.184578 -0.07231,-0.151619 -0.107923,-0.299225 -0.07914,-0.32801 0.02879,-0.02879 -0.02641,-0.116105 -0.122658,-0.194041 -0.179419,-0.145285 -0.442893,-0.768609 -0.324885,-0.768609 0.114439,0 0.177678,-0.278603 0.08441,-0.371871 -0.06296,-0.06296 -0.136597,-0.06018 -0.247976,0.0094 -0.128233,0.08008 -0.184299,0.07034 -0.29422,-0.05112 -0.07469,-0.08253 -0.135799,-0.208168 -0.135799,-0.279193 0,-0.114277 -0.09198,-0.227317 -0.523022,-0.642797 -0.06159,-0.05936 -0.241648,-0.240339 -0.400132,-0.402166 -0.158485,-0.161828 -0.31907,-0.294233 -0.356855,-0.294233 -0.03778,0 -0.10606,-0.06981 -0.151725,-0.155133 -0.07457,-0.139339 -0.04686,-0.154423 0.272188,-0.148166 0.330201,0.0065 0.357169,-0.01015 0.382999,-0.236182 0.02841,-0.248666 -0.142427,-0.524568 -0.210756,-0.340359 -0.01914,0.05161 -0.08609,0.163961 -0.148766,0.24968 -0.104516,0.142933 -0.144621,0.146187 -0.48378,0.03924 -0.2034,-0.06413 -0.473991,-0.225809 -0.601314,-0.359275 -0.127323,-0.133467 -0.355923,-0.299783 -0.508,-0.369592 -0.152077,-0.06981 -0.405963,-0.220516 -0.564191,-0.334905 -0.237695,-0.171839 -0.257661,-0.20798 -0.114891,-0.20798 0.18186,0 0.275792,-0.139545 0.213718,-0.3175 -0.05082,-0.145694 -0.318184,-0.133009 -0.446139,0.02117 -0.179619,0.216427 -0.349717,0.158174 -0.28548,-0.09777 0.05492,-0.218817 0.04811,-0.22342 -0.257269,-0.173864 -0.392708,0.06373 -0.557918,0.0031 -0.557918,-0.204908 0,-0.09073 -0.09318,-0.204546 -0.211667,-0.258532 -0.283752,-0.129286 -0.266587,-0.219522 0.05774,-0.303564 0.288843,-0.07485 0.430647,-0.273697 0.195179,-0.273697 -0.284865,0 -1.058148,0.268722 -1.007783,0.350213 0.0284,0.04596 0.143195,0.118372 0.255088,0.160914 0.196321,0.07464 0.284689,0.250873 0.125795,0.250873 -0.191861,0 -0.900805,-0.364783 -1.075693,-0.55349 -0.2061,-0.222386 -0.668237,-0.289445 -0.729437,-0.105846 -0.02593,0.07779 -0.15583,0.06844 -0.536222,-0.03863 -0.699395,-0.196845 -3.179433,-0.36314 -3.380667,-0.226684 -0.04657,0.03158 -0.332317,0.08419 -0.635,0.116923 -0.967863,0.104662 -1.468706,0.208456 -2.032,0.421109 -0.20955,0.07911 -0.4572,0.163539 -0.550334,0.187623 -0.09313,0.02408 -0.257409,0.08641 -0.365058,0.138493 -0.146667,0.07097 -0.23657,0.0692 -0.358684,-0.0071 -0.239241,-0.149408 -0.353509,-0.125422 -0.294108,0.06173 0.04069,0.128211 -0.02822,0.210453 -0.319233,0.381 -0.20412,0.119623 -0.435795,0.217495 -0.514834,0.217495 -0.12471,0 -0.129374,-0.02518 -0.03529,-0.1905 0.05963,-0.104775 0.108597,-0.24765 0.108812,-0.3175 2.54e-4,-0.07938 0.111505,-0.145106 0.296726,-0.175289 l 0.296333,-0.04829 -0.314483,-0.0664 c -0.172967,-0.03652 -0.358083,-0.118934 -0.411369,-0.183141 -0.07705,-0.09284 -0.04837,-0.135185 0.140077,-0.206833 0.196678,-0.07478 0.276826,-0.06062 0.471441,0.08326 0.263015,0.194455 0.326001,0.211591 0.326001,0.08869 0,-0.04657 -0.05526,-0.08467 -0.122793,-0.08467 -0.06754,0 -0.153261,-0.05156 -0.1905,-0.114585 -0.03724,-0.06302 -0.124857,-0.136214 -0.194707,-0.162649 -0.09819,-0.03716 -0.09201,-0.04958 0.02726,-0.05475 0.08484,-0.0037 0.316679,-0.10187 0.515197,-0.218209 0.198517,-0.116339 0.385155,-0.18731 0.414752,-0.157713 0.0296,0.0296 0.163531,-0.06364 0.29763,-0.207196 0.178032,-0.190583 0.293677,-0.247969 0.428608,-0.212684 0.113248,0.02961 0.247205,-0.0082 0.346005,-0.09757 0.08867,-0.08024 0.199443,-0.12227 0.246168,-0.09339 0.04673,0.02888 0.153901,-0.02146 0.238169,-0.111872 0.177331,-0.19025 0.748278,-0.417099 1.296214,-0.515011 0.4548,-0.08127 0.551488,-0.03757 0.193208,0.08733 -0.218712,0.07624 -0.255553,0.130154 -0.244132,0.357241 0.01168,0.232346 0.05202,0.275975 0.307354,0.33242 0.611591,0.135203 1.000496,0.143412 1.100244,0.02322 0.137829,-0.166074 -0.281119,-0.263564 -0.568984,-0.132403 -0.174208,0.07937 -0.254908,0.07273 -0.418523,-0.03448 -0.166601,-0.109162 -0.186835,-0.162455 -0.113621,-0.299257 0.09956,-0.186036 0.389407,-0.216143 0.703426,-0.07307 0.155188,0.07071 0.253789,0.06647 0.406151,-0.01746 0.188756,-0.103979 0.190729,-0.11255 0.03188,-0.138464 -0.09313,-0.01519 -0.340784,-0.07373 -0.550334,-0.130093 l -0.381,-0.102468 0.465667,-0.06225 c 0.826741,-0.11051 2.506476,-0.168672 2.382794,-0.08251 -0.261272,0.182021 0.578108,0.331229 0.85347,0.151711 0.13271,-0.08652 0.30688,-0.1102 0.559246,-0.07604 0.369829,0.05006 0.341727,0.190823 -0.03864,0.193561 -0.09907,7.13e-4 -0.227563,0.05845 -0.285533,0.128297 -0.09156,0.110327 -0.04291,0.127 0.370633,0.127 0.366697,0 0.476034,-0.02917 0.476034,-0.127 0,-0.166877 0.582092,-0.172977 0.807085,-0.0085 0.147987,0.108211 0.120368,0.123758 -0.316903,0.178392 -0.292941,0.0366 -0.497076,0.106909 -0.525506,0.180996 -0.06397,0.166706 0.136659,0.226457 0.564145,0.168013 0.198099,-0.02708 0.617354,-0.07432 0.931679,-0.104969 0.552438,-0.05387 0.5715,-0.04939 0.5715,0.134406 0,0.171148 0.02935,0.184626 0.293974,0.134982 0.196633,-0.03689 0.379777,-0.01078 0.553102,0.07885 0.273616,0.141493 0.270793,0.296122 -0.0054,0.296122 -0.239563,0 -0.201431,0.110911 0.09918,0.288488 0.230508,0.136165 0.30387,0.142348 0.58562,0.04936 0.300973,-0.09933 0.347351,-0.09029 0.707056,0.137757 0.211725,0.134233 0.386347,0.272634 0.388047,0.307559 0.0038,0.07708 -0.201635,0.08455 -0.276136,0.01005 -0.07698,-0.07698 -0.65102,-0.101471 -0.695397,-0.02967 -0.07683,0.124322 0.289779,0.35736 0.485082,0.308342 0.107038,-0.02687 0.248268,-0.01569 0.313844,0.02484 0.06628,0.04096 0.203266,0.04174 0.308445,0.0017 0.26003,-0.09886 0.501356,0.164233 0.426008,0.46444 -0.04271,0.170153 -0.106698,0.215078 -0.306368,0.215078 -0.199308,0 -0.252387,-0.0371 -0.252387,-0.176389 0,-0.103461 -0.04376,-0.16182 -0.105833,-0.141151 -0.153699,0.05118 -0.184261,0.31754 -0.03643,0.31754 0.06828,0 0.146079,0.05715 0.172884,0.127 0.05343,0.139231 0.437956,0.174622 0.516499,0.04754 0.07181,-0.116198 0.383829,-0.03463 0.587968,0.153705 0.09749,0.08994 0.329648,0.226041 0.515915,0.302446 0.186267,0.07641 0.464375,0.279597 0.61802,0.451535 l 0.279353,0.312615 -0.266409,0.126169 c -0.242064,0.11464 -0.276095,0.112924 -0.372392,-0.01877 -0.120233,-0.164429 -0.216239,-0.110106 -0.216239,0.122356 0,0.203736 0.37399,0.384425 0.529152,0.255653 0.201054,-0.166861 0.657186,-0.09476 0.802381,0.12684 0.09171,0.139969 0.10576,0.230154 0.04528,0.290638 -0.06048,0.06048 -0.106406,0.05742 -0.147991,-0.0099 -0.04301,-0.0696 -0.105915,-0.05627 -0.219458,0.04648 -0.146335,0.132432 -0.163447,0.132876 -0.21232,0.0055 -0.07825,-0.203929 -0.373706,-0.177414 -0.373706,0.03354 0,0.19892 0.327346,0.359595 0.480924,0.236057 0.05496,-0.04421 0.245459,-0.0684 0.423333,-0.05375 0.254544,0.02096 0.328863,0.06484 0.349018,0.206093 0.0179,0.125437 -0.03308,0.198232 -0.169333,0.241808 -0.167745,0.05365 -0.173704,0.06797 -0.04271,0.102694 0.08373,0.02219 0.204161,-0.0027 0.267628,-0.05542 0.181616,-0.150728 0.242215,0.04642 0.08706,0.283222 -0.144874,0.221105 -0.06954,0.345182 0.132124,0.217607 0.199042,-0.125915 0.251929,-0.09634 0.381278,0.213238 0.152403,0.364754 0.15219,0.383719 -0.0043,0.383719 -0.08828,0 -0.127,0.08882 -0.127,0.291336 0,0.365103 0.117789,0.445879 0.29054,0.199241 l 0.132793,-0.189588 0.01003,0.251672 c 0.0055,0.13842 0.0029,0.303529 -0.0059,0.36691 -0.0087,0.06338 0.06541,0.190994 0.164799,0.283586 0.113766,0.105989 0.172592,0.251479 0.158807,0.392763 -0.01204,0.123427 0.02224,0.305129 0.07619,0.403781 0.05395,0.09865 0.07363,0.203821 0.04375,0.233708 -0.02989,0.02989 0.0076,0.101572 0.08323,0.159299 0.155465,0.118609 0.399692,1.371767 0.400127,2.053092 1.7e-4,0.332622 -0.03627,0.446951 -0.169063,0.529885 -0.198313,0.123848 -0.226014,0.358315 -0.04233,0.358315 0.06985,0 0.12752,0.04763 0.128156,0.105833 6.77e-4,0.05821 0.02276,0.186312 0.04916,0.284674 0.03563,0.132746 0.0026,0.190713 -0.128156,0.224907 -0.210307,0.055 -0.247514,0.463185 -0.04916,0.539301 0.06985,0.0268 0.127,0.09956 0.127,0.16168 0,0.16918 -0.177889,0.245972 -0.260883,0.112619 -0.05861,-0.09418 -0.105012,-0.09661 -0.240609,-0.01258 -0.09721,0.06023 -0.188303,0.07123 -0.216198,0.0261 z m 0.493767,-3.43079 c 0.02374,-0.06187 -0.03046,-0.179133 -0.120454,-0.260576 -0.08999,-0.08144 -0.164207,-0.189797 -0.16492,-0.240788 -6.77e-4,-0.05099 -0.03881,-0.149861 -0.08467,-0.219711 -0.07411,-0.112889 -0.09357,-0.112889 -0.175166,0 -0.07057,0.09764 -0.08089,0.06361 -0.04465,-0.147188 0.0416,-0.241926 0.01639,-0.290095 -0.214267,-0.409372 -0.172953,-0.08944 -0.289851,-0.106749 -0.345444,-0.05116 -0.05559,0.05559 -0.02448,0.115898 0.09194,0.178207 0.136031,0.0728 0.165156,0.148258 0.128319,0.332445 -0.03841,0.192037 0.001,0.279252 0.203376,0.449495 0.138066,0.116174 0.294543,0.292535 0.347728,0.391911 0.100581,0.187938 0.3019,0.175553 0.378194,-0.02327 z m -0.957884,-1.944492 c -0.142118,-0.171242 -0.333627,-0.167425 -0.40094,0.008 -0.03278,0.08542 0.0077,0.183918 0.104638,0.254828 0.134344,0.09824 0.176621,0.09704 0.28165,-0.008 0.101441,-0.101441 0.104066,-0.147092 0.01465,-0.254828 z m -0.398453,-0.695879 c 0.08668,-0.08668 -0.203651,-0.366704 -0.380196,-0.366704 -0.164507,0 -0.189449,0.06887 -0.104819,0.289408 0.05115,0.133289 0.377079,0.185231 0.485015,0.0773 z m -0.88133,-1.940575 c -0.112198,-0.135191 -0.33241,-0.161029 -0.33241,-0.039 0,0.105077 0.27264,0.256681 0.362136,0.201369 0.03818,-0.0236 0.02481,-0.09666 -0.02973,-0.162366 z m -0.845854,-0.368306 c 0.100739,-0.06375 0.102589,-0.09977 0.0108,-0.21037 -0.149532,-0.180176 -0.319537,-0.16807 -0.42571,0.03031 -0.0482,0.09007 -0.08764,0.185322 -0.08764,0.211667 0,0.07618 0.368871,0.05298 0.502556,-0.03161 z m -1.010556,-1.543656 c 0,-0.05454 -0.06022,-0.165711 -0.133826,-0.247043 -0.118147,-0.130551 -0.165265,-0.134657 -0.402167,-0.03505 -0.342972,0.144208 -0.314933,0.240864 0.08869,0.305742 0.176167,0.02832 0.348879,0.05689 0.383804,0.0635 0.03493,0.0066 0.0635,-0.03261 0.0635,-0.08715 z m -1.369945,-0.817632 c 0.02034,-0.138199 -0.01647,-0.183868 -0.148167,-0.183868 -0.113467,0 -0.175222,0.0547 -0.175222,0.155222 0,0.321871 0.276637,0.346376 0.323389,0.02865 z m -1.678055,-0.652514 c 0,-0.02164 -0.0762,-0.03935 -0.169333,-0.03935 -0.0958,0 -0.169334,0.05644 -0.169334,0.129979 0,0.103742 0.03418,0.111686 0.169334,0.03935 0.09313,-0.04984 0.169333,-0.108334 0.169333,-0.129979 z m 1.44351,0.008 c -0.05567,-0.06708 -0.15537,-0.10119 -0.221548,-0.07579 -0.165697,0.06358 -0.06524,0.197762 0.148068,0.197762 0.142489,0 0.156038,-0.02249 0.07348,-0.121967 z M 57.58543,61.625065 c 0,-0.213353 -0.216309,-0.298361 -0.390771,-0.15357 -0.121405,0.100757 -0.11628,0.126566 0.05223,0.263018 0.213663,0.173013 0.33854,0.132641 0.338541,-0.109448 z m 1.253067,-0.347946 c 0.168359,-0.16836 0.12192,-0.214915 -0.368132,-0.369055 -0.619773,-0.194943 -0.787411,-0.06511 -0.323212,0.25032 0.356369,0.242159 0.536912,0.273167 0.691344,0.118735 z m 7.890933,-0.237067 c 0,-0.107839 -0.341132,-0.107839 -0.508,0 -0.09447,0.06105 -0.04567,0.08241 0.1905,0.08337 0.174625,7.13e-4 0.3175,-0.0368 0.3175,-0.08337 z m -6.532341,-0.07484 c 0.08323,-0.05275 0.03984,-0.09809 -0.1608,-0.168037 -0.151137,-0.05269 -0.339404,-0.09579 -0.418371,-0.09579 -0.07897,0 -0.212537,-0.0762 -0.296821,-0.169333 -0.188572,-0.208369 -0.275127,-0.214223 -0.312931,-0.02117 -0.05522,0.281993 0.89057,0.643413 1.188923,0.454331 z m 1.896841,0.01876 c -0.05821,-0.02349 -0.153458,-0.02349 -0.211667,0 -0.05821,0.02349 -0.01058,0.04271 0.105833,0.04271 0.116417,0 0.164042,-0.01922 0.105834,-0.04271 z m 3.280833,-0.207536 c 0,-0.04128 -0.142875,-0.07539 -0.3175,-0.07579 -0.174625,-4.07e-4 -0.517525,-0.02476 -0.762,-0.05413 -0.288367,-0.03464 -0.4445,-0.02211 -0.4445,0.03568 0,0.102295 0.943469,0.249511 1.291167,0.20147 0.128058,-0.01769 0.232833,-0.06595 0.232833,-0.107227 z m -2.686677,-0.406551 c 0.02332,-0.08919 0.129558,-0.174913 0.236077,-0.1905 0.251668,-0.03683 0.306575,-0.210407 0.08845,-0.279636 -0.317139,-0.100656 -0.83703,0.399473 -0.582887,0.560731 0.16389,0.103991 0.211871,0.08716 0.258357,-0.0906 z m -2.769763,-0.253796 c -0.07158,-0.115817 -0.35812,-0.120273 -0.428336,-0.0067 -0.06604,0.106856 0.312614,0.260415 0.412166,0.167149 0.04018,-0.03764 0.04746,-0.109864 0.01617,-0.160488 z m -8.258263,6.66512 c -7.13e-4,-0.07874 0.0368,-0.166718 0.08337,-0.195497 0.107154,-0.06623 0.107154,0.04586 0,0.211666 -0.07073,0.109448 -0.08225,0.107213 -0.08337,-0.01617 z m 0.71743,-1.086019 c -0.07747,-0.125342 -0.004,-0.189412 0.176832,-0.15413 0.132269,0.02581 0.133672,0.03954 0.01416,0.138596 -0.09521,0.07892 -0.149114,0.0833 -0.190996,0.01553 z m 0.302511,-0.685598 c 0.110793,-0.207018 0.193806,-0.245839 0.336764,-0.157486 0.153846,0.09508 -8.21e-4,0.276934 -0.251231,0.295382 -0.133705,0.0099 -0.150292,-0.01689 -0.08553,-0.137896 z m 0.299215,-0.40041 c -0.04343,-0.07027 0.472872,-0.69047 0.5748,-0.69047 0.02864,0 0.05208,0.05526 0.05208,0.122793 0,0.06754 0.0625,0.157769 0.138887,0.200518 0.07639,0.04275 0.112239,0.120842 0.07967,0.17354 -0.07318,0.118415 -0.303224,0.126873 -0.303224,0.01115 0,-0.157193 -0.233875,-0.0861 -0.278532,0.08467 -0.0454,0.173609 -0.184862,0.225337 -0.263682,0.0978 z m 1.134881,-0.648137 c 0,-0.06985 0.06181,-0.127 0.137366,-0.127 0.112506,0 0.118291,0.02299 0.03197,0.127 -0.05797,0.06985 -0.119785,0.127 -0.137366,0.127 -0.01758,0 -0.03197,-0.05715 -0.03197,-0.127 z m -0.423333,-0.327884 c 0,-0.06392 0.170599,-0.273469 0.379108,-0.465666 0.33205,-0.306074 0.428468,-0.34945 0.776758,-0.34945 h 0.397651 l -0.189146,-0.201337 -0.189147,-0.201336 0.320679,-0.26433 c 0.176373,-0.145382 0.348706,-0.26433 0.382964,-0.26433 0.03426,0 0.05973,0.161925 0.05661,0.359833 -0.0031,0.197908 0.0072,0.397933 0.02297,0.4445 0.03867,0.114279 -0.351858,0.550333 -0.492873,0.550333 -0.06191,0 -0.177124,0.0754 -0.256035,0.167567 -0.114264,0.133451 -0.208618,0.15715 -0.46343,0.116404 -0.249128,-0.03984 -0.331642,-0.0207 -0.372754,0.08643 -0.06402,0.166845 -0.37335,0.184558 -0.37335,0.02138 z m 17.864665,-0.645783 c 0,-0.04657 0.0381,-0.08467 0.08467,-0.08467 0.04657,0 0.08467,0.0381 0.08467,0.08467 0,0.04657 -0.0381,0.08467 -0.08467,0.08467 -0.04657,0 -0.08467,-0.0381 -0.08467,-0.08467 z m -0.54948,-0.509381 c 0.02925,-0.04733 0.08865,-0.06413 0.131998,-0.03734 0.117436,0.07258 0.09554,0.123384 -0.05318,0.123384 -0.0726,0 -0.108065,-0.03872 -0.07882,-0.08605 z"
         id="path3730"
         inkscape:connector-curvature="0" />
      <path
         style="fill:#748a89;stroke-width:0.08466666"
         d="M 60.718097,89.260518 C 55.977371,88.904466 51.54073,86.236985 49.056401,82.249051 47.32072,79.462876 46.554964,76.413933 46.757706,73.096544 c 0.200705,-3.284078 1.528623,-6.486993 3.736532,-9.012453 0.624707,-0.714554 1.565013,-1.601201 1.700552,-1.603508 0.0387,-6.59e-4 -0.106694,0.217877 -0.323091,0.485636 -4.890425,6.051134 -4.364398,14.509629 1.229843,19.775812 2.754518,2.592988 6.587984,4.014359 10.360467,3.841452 5.919464,-0.271311 10.882353,-3.990573 12.957798,-9.710765 0.239636,-0.660469 0.292262,-0.75133 0.294229,-0.508 0.0013,0.162983 -0.07212,0.633379 -0.163201,1.045324 -0.694677,3.142042 -2.573255,6.268957 -4.97877,8.287226 -3.039059,2.549823 -7.006303,3.85223 -10.853968,3.56325 z M 59.00479,84.396429 C 57.543854,84.195907 56.267393,82.885221 55.716525,81.020002 55.552604,80.46497 55.524558,80.13175 55.490397,78.333339 l -0.039,-2.053045 -0.388823,-0.171995 C 54.47571,75.848701 54.177726,75.5853 53.903487,75.083733 53.69544,74.703226 53.654884,74.532366 53.654884,74.036385 c 0,-0.49708 0.04044,-0.666687 0.250773,-1.051609 0.728404,-1.333062 2.530938,-1.586071 3.569148,-0.500977 1.083795,1.132735 0.697228,2.984137 -0.757209,3.626544 l -0.402167,0.177632 v 1.845161 c 0,1.546327 0.02649,1.948737 0.163564,2.48469 0.340283,1.330495 1.046974,2.313616 2.000518,2.783044 0.490972,0.241705 0.600487,0.263952 1.116314,0.226778 0.745582,-0.05373 1.307571,-0.340381 1.866655,-0.952108 0.484121,-0.529706 0.879051,-1.274846 1.078649,-2.035155 0.141694,-0.539745 0.275839,-3.235702 0.18,-3.61755 -0.0427,-0.170142 -0.136666,-0.235047 -0.456896,-0.315598 -0.881258,-0.221673 -2.221113,-1.169594 -2.34373,-1.658141 -0.02963,-0.118072 -0.185221,-0.397492 -0.345747,-0.620932 -0.406809,-0.56625 -0.921385,-1.628449 -1.153675,-2.381446 -0.161311,-0.522904 -0.19631,-0.829298 -0.198271,-1.735666 -0.0021,-0.985848 0.01773,-1.138322 0.190419,-1.461635 0.270331,-0.506127 0.741078,-0.815898 1.563872,-1.029091 0.384264,-0.09956 0.755811,-0.217575 0.825661,-0.262241 0.49241,-0.314881 0.610736,-0.350425 0.844378,-0.253648 0.314043,0.130081 0.453335,0.440157 0.324625,0.722645 -0.112592,0.247114 -0.37621,0.335195 -0.79823,0.266711 -0.365487,-0.05931 -1.565027,0.271465 -1.819452,0.501718 -0.371127,0.335865 -0.455195,0.621594 -0.445901,1.515541 0.0073,0.705862 0.05291,0.98043 0.274019,1.651 0.297181,0.901274 0.806291,1.87373 1.168501,2.231971 0.510368,0.504773 1.277459,1.083545 1.75675,1.32547 0.975169,0.492223 1.879589,0.294372 3.055643,-0.668452 0.866587,-0.709467 1.055062,-0.940992 1.483792,-1.822705 0.483664,-0.99469 0.667578,-1.623646 0.732673,-2.505618 0.09435,-1.278302 -0.247358,-1.801561 -1.369798,-2.0976 -0.453647,-0.119647 -0.806879,-0.163005 -1.069604,-0.131293 -0.325372,0.03928 -0.422837,0.01678 -0.5715,-0.131877 -0.210619,-0.21062 -0.227172,-0.411771 -0.0542,-0.658716 0.202433,-0.289014 0.526854,-0.32173 0.880369,-0.08878 0.168816,0.111243 0.581518,0.269261 0.917113,0.351153 1.378002,0.336258 1.875506,0.903995 1.9509,2.226312 0.0748,1.311898 -0.349673,2.760732 -1.210576,4.131991 -0.255069,0.406277 -0.486491,0.82925 -0.514273,0.93994 -0.113353,0.451632 -1.366171,1.354647 -2.233224,1.609677 -0.256117,0.07533 -0.493658,0.179544 -0.52787,0.231581 -0.03421,0.05204 -0.06305,0.780412 -0.06409,1.618612 -0.0015,1.220379 -0.03517,1.662829 -0.168953,2.220842 -0.584649,2.438647 -2.350475,3.924815 -4.339057,3.651869 z"
         id="path3728"
         inkscape:connector-curvature="0" />
      <path
         style="fill:#506365;stroke-width:0.08466666"
         d="m 60.718097,89.184097 c -1.937414,-0.229594 -3.084104,-0.496192 -4.402552,-1.023565 -3.561443,-1.424561 -6.291489,-3.944188 -7.964695,-7.350814 -2.734964,-5.568354 -1.826285,-12.129 2.330489,-16.826091 0.849838,-0.960304 1.293371,-1.285748 0.707288,-0.518975 -1.860788,2.434472 -2.947197,5.650231 -2.947197,8.723675 0,2.290721 0.546413,4.533784 1.617453,6.639757 2.686059,5.281569 8.436191,8.403107 14.317726,7.772574 4.77091,-0.511467 8.992964,-3.405924 11.22764,-7.697184 0.278515,-0.534832 0.595168,-1.220073 0.703674,-1.522756 0.277532,-0.774191 0.297634,-0.419848 0.03158,0.556737 -0.325518,1.19487 -0.596604,1.912761 -1.112321,2.945659 -2.491951,4.990971 -7.452501,8.152942 -13.027422,8.303986 -0.651933,0.01766 -1.318683,0.01631 -1.481666,-0.003 z M 58.950292,84.310248 C 57.547167,84.084453 56.25156,82.682179 55.755151,80.852051 55.640603,80.429742 55.594852,79.829438 55.558487,78.271553 l -0.04739,-2.030165 -0.467129,-0.223763 c -1.71671,-0.822333 -1.771265,-3.080726 -0.09484,-3.926195 0.381032,-0.192166 1.073338,-0.254663 1.510913,-0.136396 1.255175,0.339249 1.922353,1.848666 1.336648,3.024021 -0.260568,0.522893 -0.475145,0.730039 -1.065433,1.02854 l -0.458155,0.231682 0.0012,2.073554 c 0.0012,2.049279 0.004,2.081483 0.237406,2.750887 0.393929,1.12983 1.076778,1.998803 1.902176,2.420654 0.568975,0.290796 1.57697,0.291075 2.167079,5.92e-4 0.895679,-0.440889 1.713032,-1.577252 2.046027,-2.844587 0.170709,-0.649694 0.275714,-3.482444 0.138585,-3.738671 -0.0562,-0.105005 -0.254733,-0.218191 -0.498928,-0.28444 -0.898388,-0.243728 -2.018117,-1.016034 -2.230038,-1.538115 -0.06268,-0.154425 -0.259405,-0.495758 -0.43716,-0.758516 -0.880166,-1.301075 -1.370742,-2.86513 -1.322938,-4.2178 0.04959,-1.403157 0.480701,-1.918089 1.884819,-2.251277 0.329484,-0.07818 0.739348,-0.236448 0.910811,-0.351697 0.358061,-0.240672 0.593092,-0.2089 0.80091,0.108271 0.123015,0.187746 0.122835,0.223021 -0.0021,0.413727 -0.12405,0.189324 -0.189132,0.207626 -0.708238,0.199164 -0.731314,-0.01192 -1.609271,0.262016 -1.958265,0.61101 -0.460063,0.460063 -0.540861,1.532271 -0.213536,2.833678 0.18883,0.750766 0.906802,2.175419 1.280306,2.540479 1.190184,1.163274 1.900581,1.585684 2.751025,1.635794 0.494856,0.02916 0.638621,6.77e-4 1.109815,-0.219816 0.297723,-0.139322 0.75253,-0.444589 1.010681,-0.678372 0.258151,-0.233783 0.539785,-0.447608 0.625853,-0.475165 0.332702,-0.106528 1.129916,-1.546802 1.481164,-2.67592 0.153668,-0.49398 0.197735,-0.832429 0.198429,-1.524 0.0013,-1.307373 -0.213837,-1.590557 -1.473676,-1.939675 -0.418363,-0.115934 -0.73862,-0.15472 -0.991426,-0.12007 -0.635394,0.08709 -0.940699,-0.370382 -0.48592,-0.72811 0.279949,-0.220209 0.37523,-0.219672 0.659217,0.0037 0.125292,0.09855 0.517999,0.253532 0.872683,0.344394 1.479865,0.379106 1.885816,0.85221 1.948145,2.270415 0.02901,0.660172 -0.0021,0.949258 -0.173725,1.612929 -0.233498,0.903049 -0.64762,1.834859 -1.149443,2.586345 -0.183896,0.275387 -0.360784,0.606 -0.393085,0.734696 -0.111042,0.442425 -1.246978,1.256198 -2.156211,1.544686 -0.256116,0.08126 -0.513291,0.185473 -0.5715,0.23158 -0.07791,0.06171 -0.105833,0.501936 -0.105833,1.668587 0,1.304794 -0.0299,1.703067 -0.16927,2.254467 -0.613296,2.426484 -2.374074,3.888765 -4.307867,3.577573 z"
         id="path3726"
         inkscape:connector-curvature="0" />
    </g>
  </g>
</svg>
