<?xml version="1.0" encoding="UTF-8" standalone="no"?>
<!-- Created with Inkscape (http://www.inkscape.org/) -->

<svg
   xmlns:dc="http://purl.org/dc/elements/1.1/"
   xmlns:cc="http://creativecommons.org/ns#"
   xmlns:rdf="http://www.w3.org/1999/02/22-rdf-syntax-ns#"
   xmlns:svg="http://www.w3.org/2000/svg"
   xmlns="http://www.w3.org/2000/svg"
   xmlns:sodipodi="http://sodipodi.sourceforge.net/DTD/sodipodi-0.dtd"
   xmlns:inkscape="http://www.inkscape.org/namespaces/inkscape"
   width="203.97342mm"
   height="126.82136mm"
   viewBox="0 0 203.97342 126.82136"
   version="1.1"
   id="svg8"
   inkscape:version="0.92.3 (2405546, 2018-03-11)"
   sodipodi:docname="logo-z.svg">
  <defs
     id="defs2" />
  <sodipodi:namedview
     id="base"
     pagecolor="#ffffff"
     bordercolor="#666666"
     borderopacity="1.0"
     inkscape:pageopacity="0.0"
     inkscape:pageshadow="2"
     inkscape:zoom="0.49497475"
     inkscape:cx="549.67347"
     inkscape:cy="170.13567"
     inkscape:document-units="mm"
     inkscape:current-layer="layer1"
     showgrid="false"
     inkscape:window-width="1366"
     inkscape:window-height="706"
     inkscape:window-x="-8"
     inkscape:window-y="-8"
     inkscape:window-maximized="1" />
  <metadata
     id="metadata5">
    <rdf:RDF>
      <cc:Work
         rdf:about="">
        <dc:format>image/svg+xml</dc:format>
        <dc:type
           rdf:resource="http://purl.org/dc/dcmitype/StillImage" />
        <dc:title></dc:title>
      </cc:Work>
    </rdf:RDF>
  </metadata>
  <g
     inkscape:label="Layer 1"
     inkscape:groupmode="layer"
     id="layer1"
     transform="translate(-3.1655647,-4.9161662)">
    <g
       id="g21"
       transform="translate(1.1607905,-128.05334)">
      <path
         style="fill:#a8a1a3;stroke-width:0.13810411"
         d="m 60.905133,259.73762 c -0.265967,-0.03 -1.198579,-0.12138 -2.072471,-0.20304 -0.873892,-0.0817 -2.676943,-0.33147 -4.006778,-0.55515 C 31.662835,255.0834 12.481912,238.58822 5.0794306,216.19855 3.8554021,212.49633 2.7566332,207.47523 2.3304954,203.63659 c -0.4366829,-3.93362 -0.4338982,-10.6193 0.00604,-14.49456 2.0922467,-18.42998 12.3517086,-35.19742 27.8269416,-45.47868 2.949311,-1.95943 4.762315,-2.99881 7.737227,-4.43567 7.366552,-3.55799 14.799141,-5.53028 22.864554,-6.06726 3.549547,-0.23633 5.388826,-0.24926 8.666904,-0.0609 6.379403,0.36652 12.366098,1.60733 18.138773,3.75949 17.403985,6.48851 31.021185,20.09049 37.525095,37.48317 0.91765,2.45398 1.75782,5.23695 1.65883,5.49469 -0.10367,0.26994 -8.54326,0.29093 -8.74502,0.0218 -0.0711,-0.0949 -0.39621,-0.91799 -0.72238,-1.82907 -4.28191,-11.96064 -12.60597,-22.09829 -23.533368,-28.66068 -11.622693,-6.97995 -25.571887,-9.38899 -38.997288,-6.73488 -19.074652,3.77092 -34.844579,17.51549 -41.165679,35.87871 -6.3353148,18.4045 -2.590696,38.50365 9.943689,53.37249 1.295802,1.53713 4.446109,4.70506 6.083057,6.11707 8.526826,7.35515 18.840867,11.81834 30.208907,13.07228 2.838219,0.31306 8.684367,0.31219 11.371633,-0.002 12.759854,-1.49042 23.706134,-6.61962 32.584089,-15.26825 2.49831,-2.43378 3.92599,-4.05747 5.94796,-6.76463 3.21376,-4.30277 6.40729,-10.39212 7.89296,-15.05009 0.13318,-0.41758 0.30372,-0.83689 0.37896,-0.9318 0.17245,-0.21752 8.6031,-0.25302 8.73686,-0.0368 0.111,0.17945 -0.75255,3.05365 -1.6182,5.38597 -6.7635,18.22271 -21.51427,32.40191 -39.898906,38.35287 -4.277594,1.38462 -7.710343,2.14115 -12.365746,2.72526 -1.697539,0.21299 -10.628807,0.40149 -11.951252,0.25224 z M 19.524788,204.46301 c -0.995722,-0.10527 -2.473521,-0.43771 -3.143249,-0.70709 -0.370041,-0.14884 -0.379953,-0.1816 -0.379953,-1.25609 v -1.10327 l 0.379953,0.0757 c 0.208974,0.0416 0.846259,0.24376 1.416189,0.44916 0.860344,0.31008 1.282485,0.37604 2.486966,0.38862 1.351152,0.0141 1.507631,-0.0133 2.279718,-0.39898 1.269057,-0.63397 1.773753,-1.63133 1.444228,-2.85402 -0.374739,-1.39045 -1.534872,-1.90848 -4.274049,-1.90848 -1.171784,0 -1.797795,-0.0543 -1.90923,-0.16565 -0.215266,-0.21508 -0.215266,-1.66232 0,-1.8774 0.111929,-0.11183 0.75163,-0.1659 1.968848,-0.16642 0.991677,-4.1e-4 2.037902,-0.0659 2.324944,-0.14557 0.638166,-0.17707 1.387649,-0.81251 1.620345,-1.37379 0.26808,-0.64663 0.102826,-1.60084 -0.361012,-2.08455 -1.052491,-1.0976 -4.197173,-1.05859 -6.39972,0.0794 -0.691499,0.35728 -0.839015,0.21796 -0.839015,-0.79236 0,-0.48699 0.07661,-0.97601 0.172706,-1.10242 0.49966,-0.65729 3.306723,-1.28949 5.146637,-1.15913 1.812237,0.12841 3.052755,0.67151 3.9644,1.73563 1.220207,1.42428 1.060154,3.65556 -0.376157,5.24399 l -0.514471,0.56896 0.648981,0.6932 c 0.958792,1.02413 1.241616,1.74698 1.239888,3.16894 -0.0011,0.91703 -0.0697,1.32714 -0.313966,1.87723 -0.910504,2.0505 -3.467681,3.14376 -6.582981,2.81441 z m 30.713912,-0.0129 c -5.082211,-0.66189 -8.347899,-5.85688 -6.684999,-10.63435 0.925184,-2.65803 3.283452,-4.70812 6.091004,-5.29503 5.214556,-1.0901 10.15511,2.7414 10.15511,7.87549 0,1.17881 -0.404195,2.85168 -0.92638,3.83407 -0.572044,1.07619 -2.407788,2.84352 -3.504873,3.37426 -1.595007,0.77163 -3.405778,1.0701 -5.129862,0.84556 z m 2.235702,-2.20315 c 3.241589,-0.52546 5.416863,-3.55127 4.864922,-6.76712 -0.326353,-1.90147 -1.417585,-3.43751 -3.0101,-4.23707 -2.509427,-1.25993 -5.383244,-0.80595 -7.226804,1.14163 -0.84339,0.89098 -1.221497,1.62439 -1.485465,2.88135 -0.672153,3.20066 1.316843,6.21701 4.565038,6.92297 1.065089,0.23149 1.202128,0.23497 2.292409,0.0582 z m 27.359303,2.20694 c -4.299679,-0.55866 -7.492995,-4.41522 -7.137278,-8.61966 0.120615,-1.42563 0.557729,-2.67571 1.348834,-3.85747 2.879762,-4.30182 9.247659,-4.8918 12.942292,-1.19908 2.467544,2.46626 3.058983,6.0739 1.518494,9.26245 -0.593823,1.22911 -2.317734,2.94811 -3.570227,3.56005 -1.575425,0.76971 -3.399534,1.07493 -5.102115,0.85371 z m 2.210636,-2.20727 c 1.252135,-0.20282 2.476087,-0.84169 3.319494,-1.73269 3.150371,-3.32812 1.445365,-8.88977 -3.015423,-9.83616 -4.165335,-0.88371 -7.90194,2.55116 -7.22572,6.64223 0.414741,2.50915 2.138739,4.32891 4.609139,4.86516 1.084339,0.23537 1.217043,0.2389 2.31251,0.0615 z m 83.244269,2.21589 c -3.33925,-0.38934 -5.93665,-2.51697 -6.93812,-5.68328 -0.37983,-1.20088 -0.3902,-1.21599 -0.83365,-1.21628 l -0.44903,-3e-4 v 3.16371 c 0,1.74004 -0.0377,3.26197 -0.0839,3.38206 -0.0649,0.16902 -0.29281,0.21836 -1.0086,0.21836 -0.53502,0 -0.99461,-0.0698 -1.09054,-0.16565 -0.19457,-0.19441 -0.2409,-15.10123 -0.0479,-15.40525 0.0806,-0.12692 0.41186,-0.16712 1.13775,-0.13805 l 1.02406,0.041 0.037,3.34756 0.037,3.34755 h 0.46733 c 0.45046,0 0.47338,-0.0262 0.63439,-0.72473 0.29336,-1.27283 1.05364,-2.66803 1.99664,-3.66409 1.01068,-1.06754 1.97952,-1.69299 3.41332,-2.2035 0.87848,-0.31279 1.23409,-0.36081 2.67136,-0.36076 1.42633,5e-5 1.81241,0.0514 2.7633,0.3675 2.64356,0.8788 4.69861,3.02292 5.39184,5.62554 0.26243,0.98529 0.25872,3.03822 -0.007,4.0588 -1.01804,3.90512 -4.94719,6.49574 -9.11495,6.0098 z m 2.95344,-2.42116 c 1.02029,-0.30273 2.2861,-1.21357 2.92464,-2.1045 0.81817,-1.14157 1.15334,-2.37391 1.06529,-3.91686 -0.0605,-1.05935 -0.14134,-1.37822 -0.56881,-2.24239 -2.17101,-4.38888 -8.67499,-4.29708 -10.75872,0.15185 -0.84733,1.8091 -0.65776,4.15692 0.47211,5.84743 1.43296,2.14399 4.1979,3.05596 6.86549,2.26447 z m -141.646771,2.19446 c -0.05124,-0.0512 -0.09317,-0.47987 -0.09317,-0.9526 0,-0.98677 0.0456,-1.02708 1.16163,-1.02708 h 0.724536 l 2.671852,-6.24647 c 3.498504,-8.17908 3.174019,-7.55788 3.947869,-7.55788 0.538823,0 0.655549,0.0528 0.839518,0.37962 0.117523,0.20879 1.466919,3.29924 2.998657,6.86766 l 2.784979,6.48804 0.898071,0.069 0.898071,0.069 v 0.9663 0.96631 l -8.36942,0.0356 c -4.603183,0.0196 -8.411349,-0.006 -8.462592,-0.0575 z m 12.509681,-2.05553 c 0.04175,-0.0417 -0.858202,-2.2506 -1.999898,-4.90863 -1.141695,-2.65804 -2.118177,-4.78256 -2.16996,-4.72117 -0.1391,0.16491 -4.011722,9.39666 -4.011722,9.56333 0,0.14869 8.033963,0.21396 8.18158,0.0665 z m 22.6949,1.98003 c -0.03764,-0.0982 -0.05228,-3.62628 -0.03254,-7.84005 l 0.03589,-7.66142 h 3.246872 c 3.219189,0 3.253493,0.003 4.023359,0.36377 1.053385,0.49349 1.823711,1.22246 2.18946,2.07192 0.847761,1.96894 0.281202,4.27135 -1.322296,5.37362 -1.032217,0.70956 -1.610855,0.85093 -3.854287,0.94166 l -2.072472,0.0838 -0.06908,3.38206 -0.06908,3.38207 -1.003692,0.0406 c -0.724282,0.0293 -1.022742,-0.009 -1.072123,-0.13805 z m 6.371367,-9.19945 c 0.766095,-0.43808 1.084429,-1.01063 1.086556,-1.95426 0.0021,-0.94119 -0.398976,-1.65488 -1.135719,-2.02083 -0.405866,-0.2016 -0.906511,-0.26592 -2.346623,-0.30148 l -1.830683,-0.0452 v 2.37098 2.37098 l 1.830683,-0.0485 c 1.614369,-0.0428 1.897455,-0.0867 2.395786,-0.37166 z m 23.164694,9.21006 c -0.133881,-0.13601 -0.172706,-1.85794 -0.172706,-7.65992 0,-4.11646 0.03774,-7.58273 0.08387,-7.70282 0.07187,-0.18712 0.415736,-0.21836 2.403329,-0.21836 1.93711,0 2.464216,0.0456 3.197548,0.27672 1.851906,0.58362 2.872631,1.82979 2.988239,3.64825 0.07789,1.22523 -0.119133,1.96314 -0.741783,2.77814 -0.269061,0.35218 -0.469405,0.65449 -0.44521,0.67181 0.0242,0.0173 0.261601,0.16241 0.527568,0.32244 1.589574,0.95639 2.339064,2.78288 1.878694,4.57831 -0.38654,1.50748 -1.246185,2.43318 -2.862765,3.08277 -0.663831,0.26674 -1.059467,0.30385 -3.71353,0.34833 -2.273812,0.0381 -3.01105,0.009 -3.143249,-0.12567 z m 6.239611,-2.32892 c 0.915993,-0.47142 1.218864,-1.04075 1.154254,-2.16973 -0.08916,-1.55794 -1.00523,-2.12397 -3.594334,-2.22091 l -1.623436,-0.0608 v 2.44696 2.44697 l 1.696476,-0.0487 c 1.482144,-0.0426 1.781194,-0.0923 2.36704,-0.39381 z m -2.255959,-6.62825 c 1.631361,-0.30911 2.254619,-0.9948 2.164159,-2.38095 -0.09358,-1.43393 -0.89771,-2.04575 -2.821374,-2.14662 l -1.150342,-0.0603 v 2.36405 2.36405 h 0.533801 c 0.293591,0 0.866781,-0.0631 1.273756,-0.1402 z m 8.480037,8.94047 c -0.0363,-0.0949 -0.0499,-3.62019 -0.0302,-7.83396 l 0.0359,-7.66142 h 1.03624 1.03623 l 0.0691,3.10598 0.0691,3.10598 1.51981,0.0876 c 0.8359,0.0482 1.7081,0.14861 1.93824,0.22317 2.14356,0.69451 3.24294,2.19795 3.24294,4.43486 0,0.92347 -0.0598,1.19677 -0.41951,1.91589 -0.66883,1.33727 -1.74664,2.15652 -3.40484,2.58805 -1.03296,0.26882 -4.99288,0.29514 -5.09296,0.0339 z m 5.1374,-2.28701 c 1.10436,-0.56291 1.54274,-1.4249 1.39421,-2.74146 -0.0879,-0.77924 -0.43079,-1.25641 -1.21882,-1.69616 -0.49286,-0.27503 -0.8541,-0.35084 -1.88753,-0.39609 l -1.27803,-0.056 v 2.65844 2.65844 l 1.2114,-0.069 c 0.84948,-0.0484 1.38091,-0.15541 1.77877,-0.3582 z m 5.91812,2.2931 c -0.0376,-0.0982 -0.0523,-3.62628 -0.0325,-7.84005 l 0.0359,-7.66142 h 1.03624 1.03623 v 7.79946 7.79946 l -1.00369,0.0406 c -0.72428,0.0293 -1.02274,-0.009 -1.07212,-0.13805 z m 5.52498,-0.004 c -0.0367,-0.0959 -0.0507,-3.62209 -0.0309,-7.83586 l 0.0359,-7.66142 h 4.49036 4.49035 l 0.0406,0.84088 c 0.0282,0.58567 -0.017,0.88862 -0.14919,0.99821 -0.12708,0.10538 -1.25833,0.1696 -3.4256,0.19445 l -3.23585,0.0371 v 2.27771 2.27772 l 3.24033,0.0371 c 2.38083,0.0273 3.269,0.0822 3.34838,0.20707 0.0594,0.0935 0.10805,0.48054 0.10805,0.86016 0,0.37962 -0.0486,0.76669 -0.10805,0.86016 -0.0794,0.12486 -0.96755,0.17979 -3.34838,0.20706 l -3.24033,0.0371 v 2.34674 2.34673 l 3.45412,0.069 3.45412,0.069 v 0.9663 0.96631 l -4.52851,0.0364 c -3.54851,0.0285 -4.54296,-0.001 -4.59532,-0.13804 z m 17.27785,0.0363 c -0.0457,-0.0739 1.52276,-3.63022 3.48547,-7.90299 l 3.56856,-7.76866 0.68862,-0.0406 0.68861,-0.0406 0.35681,0.73084 c 1.75181,3.58817 6.76831,14.7798 6.70211,14.95215 -0.0672,0.17507 -0.28353,0.20829 -1.14313,0.17557 l -1.0602,-0.0403 -2.70688,-5.85203 c -1.48878,-3.21862 -2.76345,-5.8587 -2.83257,-5.86685 -0.0691,-0.008 -1.29847,2.55846 -2.73185,5.70357 -1.43339,3.14511 -2.67456,5.80072 -2.75815,5.90136 -0.17998,0.21668 -2.1275,0.25865 -2.2574,0.0486 z m 36.70807,-0.0313 c -0.21805,-0.21787 -0.21325,-1.37538 0.007,-1.66634 0.11887,-0.15707 0.42685,-0.24062 0.98787,-0.26796 l 0.81515,-0.0397 2.92976,-6.83315 2.92977,-6.83315 h 0.74008 0.74008 l 2.93097,6.83315 2.93099,6.83315 0.80004,0.0423 c 0.44003,0.0233 0.87992,0.10851 0.97753,0.18946 0.0994,0.0824 0.17749,0.43847 0.17749,0.80919 0,1.20938 0.85438,1.09874 -8.48429,1.09874 -6.2842,0 -8.35706,-0.0405 -8.48235,-0.16565 z m 12.54536,-1.9925 c 0,-0.27671 -4.0741,-9.57613 -4.17989,-9.5409 -0.10406,0.0347 -3.7758,8.54488 -4.04995,9.38682 -0.0737,0.22646 0.1813,0.24158 4.07559,0.24158 2.28484,0 4.15425,-0.0394 4.15425,-0.0875 z m 6.01082,1.85431 c -0.0424,-0.17455 -0.0599,-3.70287 -0.0389,-7.84073 l 0.0382,-7.52337 1.07078,-0.0403 c 0.58893,-0.0222 1.08459,-0.0222 1.10147,0 0.0169,0.0222 0.0635,2.61828 0.10363,5.76912 l 0.0729,5.7288 4.60885,-5.77001 4.60884,-5.77002 0.7105,0.0412 0.7105,0.0412 0.0357,7.72157 c 0.0282,6.0858 -0.001,7.74493 -0.13816,7.83185 -0.29338,0.18609 -1.71353,0.13307 -1.88244,-0.0703 -0.10554,-0.12706 -0.16478,-1.91388 -0.18962,-5.71971 l -0.0361,-5.53492 -4.55943,5.6852 -4.55944,5.6852 -0.79012,0.0413 c -0.72603,0.0379 -0.79637,0.0155 -0.86721,-0.27609 z"
         id="path35"
         inkscape:connector-curvature="0" />
      <path
         style="fill:#e49b53;stroke-width:0.13810411"
         d="M 60.033224,259.61354 C 44.710575,258.10003 31.433431,251.89251 20.763168,241.25344 17.382191,237.88235 14.9538,234.92948 12.481465,231.18309 5.8406719,221.12013 2.1512935,208.736 2.1365486,196.45833 c -0.011641,-9.6933 2.2210199,-19.25065 6.5418948,-28.0039 3.1473456,-6.37591 6.9215106,-11.62906 12.0181406,-16.72769 10.280211,-10.28426 23.714341,-16.73168 37.832545,-18.1569 1.192816,-0.12041 2.479628,-0.28025 2.859581,-0.35518 1.033656,-0.20387 7.786704,-0.0683 10.224192,0.2053 10.956319,1.22964 20.108361,4.4816 28.807348,10.23602 4.02147,2.66021 6.89668,5.04306 10.43467,8.6478 5.80357,5.91306 9.8228,11.90351 13.06777,19.47681 0.88472,2.0648 2.56232,6.91933 2.63651,7.62937 l 0.0433,0.41413 -4.12828,0.0366 c -2.82908,0.0251 -4.18542,-0.0108 -4.30986,-0.11398 -0.0999,-0.0828 -0.31791,-0.56518 -0.48451,-1.07191 -1.04088,-3.16587 -2.99923,-7.37041 -4.89775,-10.51537 -5.50237,-9.11485 -12.97469,-16.09223 -22.309688,-20.83197 -5.707178,-2.89775 -11.41277,-4.66708 -17.892337,-5.5485 -2.671226,-0.36337 -8.623524,-0.50584 -11.432487,-0.27365 -18.82574,1.55619 -35.370192,12.38049 -44.299207,28.98303 -4.531611,8.42604 -6.713982,17.62797 -6.470179,27.28141 0.146675,5.80763 0.919421,10.36425 2.646233,15.60398 5.902556,17.91031 20.284888,31.47166 38.485514,36.28865 6.752894,1.78722 14.927933,2.22205 21.968197,1.16848 6.739623,-1.00857 13.162647,-3.18908 18.875365,-6.40785 11.669479,-6.57505 20.387819,-16.82883 24.983809,-29.38388 l 0.7116,-1.94392 0.54634,-0.0969 c 0.30049,-0.0533 2.21145,-0.10047 4.24658,-0.10485 3.14665,-0.007 3.712,0.0226 3.77882,0.19661 0.1703,0.44341 -1.42757,5.19454 -2.87924,8.56119 -3.31639,7.69126 -7.8826,14.2637 -14.14612,20.36142 -10.043235,9.77738 -22.978049,15.84662 -37.237711,17.47258 -2.712024,0.30924 -9.750623,0.3825 -12.324345,0.12828 z M 19.524788,204.29999 c -0.607925,-0.0575 -1.602712,-0.24574 -2.210637,-0.41844 l -1.105318,-0.31398 -0.04095,-1.01859 c -0.04627,-1.1508 -0.164387,-1.09504 1.237333,-0.58418 1.622625,0.59136 3.419067,0.69255 4.824785,0.27175 0.875606,-0.2621 1.864836,-1.25843 1.986742,-2.00099 0.190039,-1.15758 -0.39114,-2.2634 -1.497002,-2.84836 -0.492962,-0.26076 -0.840039,-0.30824 -2.573209,-0.35201 -1.101864,-0.0278 -2.081107,-0.11449 -2.176095,-0.19259 -0.220439,-0.18123 -0.22562,-1.38053 -0.0069,-1.59905 0.112704,-0.11261 0.767694,-0.16565 2.045344,-0.16565 1.744575,0 1.931033,-0.0256 2.596554,-0.35699 0.943302,-0.46966 1.31325,-1.00226 1.375824,-1.98073 0.09635,-1.50662 -0.815885,-2.22896 -2.936648,-2.32533 -1.428258,-0.0649 -2.724173,0.18436 -3.805946,0.73205 -0.382122,0.19347 -0.754612,0.31481 -0.827753,0.26964 -0.07314,-0.0452 -0.132985,-0.44666 -0.132985,-0.89221 0,-0.6991 0.0472,-0.84719 0.344483,-1.08083 1.025098,-0.80563 4.754404,-1.19968 6.442714,-0.68075 3.050124,0.93749 3.97451,3.93796 1.970531,6.39614 -0.333305,0.40885 -0.606007,0.79922 -0.606007,0.86748 0,0.0683 0.151791,0.22349 0.337316,0.34494 0.961418,0.6294 1.701545,2.53743 1.527749,3.93852 -0.24103,1.94309 -1.323577,3.13832 -3.384878,3.7372 -1.114424,0.32378 -1.963834,0.38725 -3.385036,0.25296 z m 30.948906,0.0206 c -1.937715,-0.21681 -3.554551,-0.98788 -4.904849,-2.33912 -4.4813,-4.48441 -2.063733,-12.12685 4.215879,-13.32729 1.333724,-0.25496 1.979079,-0.2544 3.336487,0.003 1.650404,0.31281 2.956838,1.0189 4.194451,2.26701 1.199264,1.20942 1.689605,2.04794 2.072678,3.54443 1.396666,5.45611 -3.163321,10.49562 -8.914646,9.8521 z m 2.318458,-1.99149 c 4.302111,-0.91081 6.234131,-6.04325 3.585768,-9.52563 -2.243337,-2.94981 -6.663096,-3.23521 -9.300074,-0.60055 -2.202793,2.20086 -2.315629,5.95149 -0.246519,8.19424 1.042732,1.13024 2.129163,1.73597 3.573284,1.99226 0.941422,0.16707 1.36391,0.1564 2.387541,-0.0603 z m 27.2488,1.99149 c -4.363508,-0.48824 -7.53231,-4.21857 -7.192874,-8.46748 0.459756,-5.75501 6.55209,-9.05319 11.959558,-6.47451 1.388967,0.66236 2.947051,2.19774 3.578653,3.5265 1.49687,3.1491 0.915395,6.65311 -1.506181,9.07637 -1.7736,1.77483 -4.265449,2.62709 -6.839156,2.33912 z m 2.318459,-1.99149 c 2.468215,-0.52255 4.261519,-2.41988 4.698987,-4.97156 0.617532,-3.60196 -2.26115,-6.95333 -5.986723,-6.96976 -2.351079,-0.0104 -4.592983,1.35384 -5.536928,3.36923 -1.114365,2.37925 -0.738677,4.94186 0.992634,6.77086 1.560285,1.64832 3.591346,2.27562 5.83203,1.80123 z m 82.964389,1.97915 c -1.99224,-0.20641 -3.67201,-1.052 -5.11371,-2.57423 -0.88011,-0.92927 -1.65696,-2.3862 -1.90253,-3.56814 l -0.15403,-0.74126 h -0.60948 -0.60949 l -0.037,3.34756 -0.037,3.34755 -0.88549,0.0417 c -0.61493,0.0289 -0.92035,-0.0132 -0.99958,-0.13804 -0.0627,-0.0988 -0.11409,-3.50311 -0.11409,-7.56504 0,-4.06193 0.0513,-7.4662 0.11409,-7.56504 0.0792,-0.1248 0.38465,-0.16698 0.99958,-0.13804 l 0.88549,0.0417 0.037,3.34755 0.037,3.34756 h 0.59943 0.59943 l 0.22006,-0.89097 c 0.66581,-2.69566 2.51609,-4.70915 5.18527,-5.64261 1.04801,-0.3665 1.3866,-0.41923 2.71701,-0.42305 1.07697,-0.003 1.75927,0.068 2.34158,0.2439 1.94179,0.58664 3.55187,1.73123 4.53631,3.22483 0.93251,1.41482 1.23097,2.33725 1.3072,4.04007 0.11251,2.51313 -0.5276,4.16061 -2.30844,5.9414 -1.83707,1.83703 -4.08718,2.60462 -6.80861,2.32266 z m 2.03728,-1.91219 c 1.95187,-0.31687 3.68724,-1.62796 4.52954,-3.42213 0.37141,-0.79111 0.44352,-1.12169 0.48854,-2.23952 0.0818,-2.03194 -0.49595,-3.45146 -1.94977,-4.79037 -2.25115,-2.07321 -5.95794,-2.07321 -8.20909,0 -1.45382,1.33891 -2.03159,2.75843 -1.94977,4.79037 0.0451,1.12017 0.11684,1.44777 0.4918,2.24649 0.79642,1.69647 2.37197,2.94097 4.23638,3.34624 1.0515,0.22856 1.32908,0.23666 2.36237,0.0689 z m -140.663907,1.60369 c -0.04039,-0.10515 -0.05417,-0.49389 -0.03062,-0.86386 l 0.0428,-0.67268 0.898071,-0.069 0.898071,-0.069 2.784979,-6.48805 c 1.531738,-3.56842 2.883209,-6.66248 3.003268,-6.87568 0.192386,-0.34165 0.286303,-0.3826 0.791466,-0.34511 l 0.573176,0.0425 2.935969,6.83316 2.935971,6.83315 0.879399,0.069 0.879401,0.069 v 0.82826 0.82826 l -8.259263,0.0356 c -6.933045,0.0299 -8.271053,0.005 -8.33269,-0.15558 z m 12.655196,-1.70909 c 0.0027,-0.29318 -4.228932,-9.97364 -4.359744,-9.97364 -0.1688,0 -4.349287,9.8067 -4.251653,9.97364 0.0333,0.0569 1.984281,0.10353 4.335505,0.10353 2.351225,0 4.275375,-0.0466 4.275892,-0.10353 z m 22.617871,1.8119 c -0.05387,-0.0538 -0.09795,-3.53934 -0.09795,-7.7456 v -7.64774 l 3.143249,0.0471 c 2.882577,0.0432 3.208264,0.0731 3.927229,0.36045 1.648987,0.65908 2.514618,1.96966 2.524043,3.82144 0.0095,1.85717 -0.794866,3.12553 -2.461612,3.88182 -0.766717,0.34789 -1.022033,0.38848 -2.711636,0.431 -2.809145,0.0707 -2.475724,-0.39562 -2.519055,3.52316 l -0.03699,3.34554 -0.834659,0.0403 c -0.459062,0.0222 -0.878738,-0.004 -0.932612,-0.0575 z m 6.188543,-8.96766 c 1.685108,-0.87843 1.723923,-3.28832 0.06861,-4.25988 -0.42518,-0.24955 -0.715043,-0.28355 -2.417414,-0.28355 h -1.934307 l -0.0381,2.27242 c -0.02096,1.24983 -0.0055,2.35727 0.03432,2.46097 0.05741,0.14949 0.451728,0.17919 1.903328,0.14334 1.530082,-0.0378 1.921715,-0.0925 2.383569,-0.3333 z m 23.226462,8.8355 c -0.131174,-0.34153 -0.09406,-14.87466 0.03852,-15.08369 0.09395,-0.14813 0.62409,-0.1761 2.588474,-0.13659 2.36157,0.0475 2.506816,0.0667 3.299309,0.43507 1.595975,0.74194 2.417884,1.989 2.417884,3.66858 0,0.99932 -0.182313,1.55231 -0.799241,2.42425 l -0.483451,0.68329 0.32689,0.21399 c 1.013506,0.66348 1.4713,1.12209 1.84092,1.8442 0.75412,1.47327 0.47561,3.45503 -0.650407,4.62801 -1.177122,1.22622 -2.369936,1.53639 -5.919226,1.5392 -2.222573,0.002 -2.587307,-0.0279 -2.659671,-0.21631 z m 6.202431,-1.9906 c 0.947947,-0.47334 1.312766,-1.05628 1.312766,-2.09766 0,-0.45051 -0.09171,-0.9919 -0.205162,-1.2111 -0.488197,-0.94323 -1.841593,-1.41479 -3.889384,-1.35514 l -1.362962,0.0397 -0.03802,2.34167 c -0.02091,1.28792 -0.0049,2.42798 0.03565,2.53346 0.05878,0.15304 0.41537,0.1819 1.765076,0.14285 1.468779,-0.0425 1.782318,-0.0943 2.382036,-0.39378 z m -1.190397,-6.93407 c 0.854328,-0.42876 1.160124,-0.89482 1.231192,-1.87647 0.124567,-1.7206 -1.00773,-2.64681 -3.235755,-2.64681 h -1.018864 v 2.39275 c 0,1.31602 0.04663,2.44123 0.103623,2.50048 0.207033,0.21522 2.276213,-0.047 2.919804,-0.36995 z m 7.569201,9.051 c -0.0507,-0.0506 -0.0921,-3.53215 -0.0921,-7.73675 v -7.64471 l 0.93262,0.0408 0.93261,0.0408 0.0372,3.0695 c 0.0431,3.55906 -0.19951,3.15722 1.96621,3.25662 1.74959,0.0803 2.72472,0.45048 3.66726,1.3922 0.86069,0.85993 1.17094,1.67106 1.16244,3.03915 -0.0103,1.66638 -0.62305,2.8122 -1.9694,3.683 -1.10787,0.71657 -2.24966,0.95137 -4.62615,0.95137 -1.0552,0 -1.96,-0.0414 -2.01066,-0.092 z m 4.50445,-1.89309 c 1.37581,-0.41369 2.03573,-1.27907 2.03484,-2.66835 -5.6e-4,-0.84453 -0.28592,-1.49526 -0.87387,-1.99269 -0.49801,-0.42134 -1.63042,-0.6866 -2.74038,-0.64193 l -1.01376,0.0408 -0.0378,2.54937 c -0.0208,1.40214 -0.007,2.62901 0.0302,2.72635 0.093,0.2422 1.77943,0.23341 2.60074,-0.0135 z m 6.55458,1.89892 c -0.0539,-0.0538 -0.098,-3.53515 -0.098,-7.73627 v -7.6384 h 0.96832 0.96831 l -0.0357,7.69592 -0.0357,7.69592 -0.83466,0.0403 c -0.45906,0.0222 -0.87874,-0.004 -0.93261,-0.0575 z m 5.49277,-0.0844 c -0.0368,-0.096 -0.0507,-3.56001 -0.031,-7.69786 l 0.0359,-7.52337 h 4.35219 4.35219 l 0.0414,0.79375 c 0.0228,0.43656 0.0228,0.80649 0,0.82207 -0.0228,0.0156 -1.5647,0.0622 -3.42647,0.10353 l -3.38504,0.0752 -0.0396,2.13968 c -0.0217,1.17682 -0.005,2.27832 0.0366,2.44777 0.0757,0.30666 0.0915,0.30828 3.35551,0.34511 l 3.2794,0.037 v 0.82826 0.82826 l -3.2794,0.037 c -3.26403,0.0368 -3.27977,0.0385 -3.35546,0.34511 -0.0418,0.16946 -0.0583,1.30202 -0.0365,2.5168 l 0.0395,2.2087 3.45412,0.069 3.45412,0.069 v 0.82826 0.82826 l -4.39032,0.0365 c -3.4379,0.0285 -4.40482,-0.001 -4.45717,-0.13805 z m 17.34462,-0.0318 c 0,-0.2188 6.71426,-14.93441 6.94933,-15.23081 0.0861,-0.10856 0.36246,-0.16306 0.69999,-0.13804 l 0.55773,0.0413 3.49105,7.59239 c 1.92007,4.17582 3.49306,7.67005 3.49554,7.76495 0.003,0.12175 -0.27527,0.17255 -0.94575,0.17255 -0.59787,0 -0.99905,-0.064 -1.08186,-0.17255 -0.0724,-0.0949 -1.33691,-2.79782 -2.81002,-6.00647 -1.47312,-3.20865 -2.74269,-5.81315 -2.82129,-5.78776 -0.11711,0.0378 -2.64638,5.43219 -5.07704,10.82823 l -0.51287,1.13855 h -0.9724 c -0.76226,0 -0.97241,-0.0437 -0.97241,-0.20238 z m 36.55978,-0.0149 c -0.14305,-0.37247 -0.0931,-1.23714 0.0815,-1.41163 0.0912,-0.0911 0.49821,-0.16565 0.90449,-0.16565 0.66195,0 0.76091,-0.0394 0.95239,-0.37962 0.11752,-0.20879 1.46691,-3.29924 2.99866,-6.86766 l 2.78497,-6.48805 0.56461,-0.0413 c 0.34438,-0.0252 0.61855,0.0286 0.7029,0.13804 0.0761,0.0987 1.39929,3.13007 2.94049,6.73646 1.54121,3.60638 2.8646,6.63471 2.94084,6.72962 0.0792,0.0986 0.4499,0.17255 0.86472,0.17255 0.89624,0 1.06595,0.17802 1.0097,1.05911 l -0.0426,0.66643 -8.30923,0.0356 c -7.48742,0.0321 -8.31757,0.0139 -8.39351,-0.18385 z m 12.62613,-1.74983 c -0.002,-0.38305 -4.13213,-9.8356 -4.29786,-9.8356 -0.16555,0 -4.26549,9.45064 -4.26696,9.8356 0,0.13434 0.94773,0.17255 4.28246,0.17255 3.33477,0 4.28294,-0.0382 4.28236,-0.17255 z m 6.00522,1.79456 c -0.0363,-0.0949 -0.0499,-3.55807 -0.0302,-7.69592 l 0.0359,-7.52337 0.88548,-0.0417 c 0.61493,-0.0289 0.92036,0.0132 0.99958,0.13804 0.0627,0.0988 0.11505,2.71109 0.11621,5.80499 0.001,3.0939 0.0544,5.62527 0.11823,5.62527 0.0639,0 2.13116,-2.52685 4.59398,-5.61522 2.46282,-3.08836 4.56001,-5.69738 4.66043,-5.79782 0.10206,-0.10208 0.48289,-0.18261 0.86353,-0.18261 h 0.68096 v 7.73043 7.73043 h -0.95237 c -0.74098,0 -0.97099,-0.0485 -1.03623,-0.21835 -0.0461,-0.1201 -0.0839,-2.73672 -0.0839,-5.81473 0,-5.09911 -0.0195,-5.58019 -0.21963,-5.41426 -0.12079,0.10016 -2.23963,2.71679 -4.70854,5.81473 l -4.48893,5.63261 h -0.68421 c -0.42001,0 -0.70974,-0.0666 -0.75032,-0.17255 z"
         id="path33"
         inkscape:connector-curvature="0" />
      <path
         style="fill:#ce6a75;stroke-width:0.13810411"
         d="M 30.562559,249.13618 C 25.067871,245.80981 19.013454,240.14009 14.560634,234.15103 6.5579207,223.38734 2.1528391,210.02302 2.1365486,196.45833 c -0.011641,-9.6933 2.2210199,-19.25065 6.5418948,-28.0039 3.1473456,-6.37591 6.9215106,-11.62906 12.0181406,-16.72769 10.280211,-10.28426 23.714341,-16.73168 37.832545,-18.1569 1.192816,-0.12041 2.479628,-0.28025 2.859581,-0.35518 1.033656,-0.20387 7.786704,-0.0683 10.224192,0.2053 10.956319,1.22964 20.108361,4.4816 28.807348,10.23602 4.02147,2.66021 6.89668,5.04306 10.43467,8.6478 5.80357,5.91306 9.8228,11.90351 13.06777,19.47681 0.88472,2.0648 2.56232,6.91933 2.63651,7.62937 l 0.0433,0.41413 -4.12828,0.0366 c -2.82908,0.0251 -4.18542,-0.0108 -4.30986,-0.11398 -0.0999,-0.0828 -0.31791,-0.56518 -0.48451,-1.07191 -1.04088,-3.16587 -2.99923,-7.37041 -4.89775,-10.51537 -5.50237,-9.11485 -12.97469,-16.09223 -22.309688,-20.83197 -5.707178,-2.89775 -11.41277,-4.66708 -17.892337,-5.5485 -2.671226,-0.36337 -8.623524,-0.50584 -11.432487,-0.27365 -10.870571,0.89859 -21.089143,4.87963 -29.602446,11.53279 -11.205592,8.75718 -18.643307,21.54174 -20.642912,35.48274 -0.823708,5.74279 -0.72844,11.95383 0.269966,17.60054 1.539094,8.7047 5.579838,17.53496 11.296333,24.68593 4.273668,5.34608 9.295741,9.6428 16.226639,13.88296 0.588927,0.36029 1.070361,0.69725 1.069853,0.7488 -5.53e-4,0.0515 -0.420184,0.32725 -0.932613,0.61267 -0.512428,0.28542 -1.211471,0.68245 -1.553429,0.88229 -0.584456,0.34157 -0.789537,0.45955 -2.003389,1.15257 -0.265967,0.15185 -0.701186,0.40033 -0.967153,0.55217 -0.265967,0.15185 -0.701186,0.40033 -0.967153,0.55218 -0.265968,0.15185 -0.686842,0.39121 -0.935276,0.53193 l -0.4517,0.25584 z M 19.524788,204.29999 c -0.607925,-0.0575 -1.602712,-0.24574 -2.210637,-0.41844 l -1.105318,-0.31398 -0.04095,-1.01859 c -0.04627,-1.1508 -0.164387,-1.09504 1.237333,-0.58418 1.622625,0.59136 3.419067,0.69255 4.824785,0.27175 0.875606,-0.2621 1.864836,-1.25843 1.986742,-2.00099 0.190039,-1.15758 -0.39114,-2.2634 -1.497002,-2.84836 -0.492962,-0.26076 -0.840039,-0.30824 -2.573209,-0.35201 -1.101864,-0.0278 -2.081107,-0.11449 -2.176095,-0.19259 -0.220439,-0.18123 -0.22562,-1.38053 -0.0069,-1.59905 0.112704,-0.11261 0.767694,-0.16565 2.045344,-0.16565 1.744575,0 1.931033,-0.0256 2.596554,-0.35699 0.943302,-0.46966 1.31325,-1.00226 1.375824,-1.98073 0.09635,-1.50662 -0.815885,-2.22896 -2.936648,-2.32533 -1.428258,-0.0649 -2.724173,0.18436 -3.805946,0.73205 -0.382122,0.19347 -0.754612,0.31481 -0.827753,0.26964 -0.07314,-0.0452 -0.132985,-0.44666 -0.132985,-0.89221 0,-0.6991 0.0472,-0.84719 0.344483,-1.08083 1.025098,-0.80563 4.754404,-1.19968 6.442714,-0.68075 3.050124,0.93749 3.97451,3.93796 1.970531,6.39614 -0.333305,0.40885 -0.606007,0.79922 -0.606007,0.86748 0,0.0683 0.151791,0.22349 0.337316,0.34494 0.961418,0.6294 1.701545,2.53743 1.527749,3.93852 -0.24103,1.94309 -1.323577,3.13832 -3.384878,3.7372 -1.114424,0.32378 -1.963834,0.38725 -3.385036,0.25296 z m 30.948906,0.0206 c -1.937715,-0.21681 -3.554551,-0.98788 -4.904849,-2.33912 -4.4813,-4.48441 -2.063733,-12.12685 4.215879,-13.32729 1.333724,-0.25496 1.979079,-0.2544 3.336487,0.003 1.650404,0.31281 2.956838,1.0189 4.194451,2.26701 1.199264,1.20942 1.689605,2.04794 2.072678,3.54443 1.396666,5.45611 -3.163321,10.49562 -8.914646,9.8521 z m 2.318458,-1.99149 c 4.302111,-0.91081 6.234131,-6.04325 3.585768,-9.52563 -2.243337,-2.94981 -6.663096,-3.23521 -9.300074,-0.60055 -2.202793,2.20086 -2.315629,5.95149 -0.246519,8.19424 1.042732,1.13024 2.129163,1.73597 3.573284,1.99226 0.941422,0.16707 1.36391,0.1564 2.387541,-0.0603 z m 27.2488,1.99149 c -4.363508,-0.48824 -7.53231,-4.21857 -7.192874,-8.46748 0.459756,-5.75501 6.55209,-9.05319 11.959558,-6.47451 1.388967,0.66236 2.947051,2.19774 3.578653,3.5265 1.49687,3.1491 0.915395,6.65311 -1.506181,9.07637 -1.7736,1.77483 -4.265449,2.62709 -6.839156,2.33912 z m 2.318459,-1.99149 c 2.468215,-0.52255 4.261519,-2.41988 4.698987,-4.97156 0.617532,-3.60196 -2.26115,-6.95333 -5.986723,-6.96976 -2.351079,-0.0104 -4.592983,1.35384 -5.536928,3.36923 -1.114365,2.37925 -0.738677,4.94186 0.992634,6.77086 1.560285,1.64832 3.591346,2.27562 5.83203,1.80123 z m 82.964389,1.97915 c -1.99224,-0.20641 -3.67201,-1.052 -5.11371,-2.57423 -0.88011,-0.92927 -1.65696,-2.3862 -1.90253,-3.56814 l -0.15403,-0.74126 h -0.60948 -0.60949 l -0.037,3.34756 -0.037,3.34755 -0.88549,0.0417 c -0.61493,0.0289 -0.92035,-0.0132 -0.99958,-0.13804 -0.0627,-0.0988 -0.11409,-3.50311 -0.11409,-7.56504 0,-4.06193 0.0513,-7.4662 0.11409,-7.56504 0.0792,-0.1248 0.38465,-0.16698 0.99958,-0.13804 l 0.88549,0.0417 0.037,3.34755 0.037,3.34756 h 0.59943 0.59943 l 0.22006,-0.89097 c 0.66581,-2.69566 2.51609,-4.70915 5.18527,-5.64261 1.04801,-0.3665 1.3866,-0.41923 2.71701,-0.42305 1.07697,-0.003 1.75927,0.068 2.34158,0.2439 1.94179,0.58664 3.55187,1.73123 4.53631,3.22483 0.93251,1.41482 1.23097,2.33725 1.3072,4.04007 0.11251,2.51313 -0.5276,4.16061 -2.30844,5.9414 -1.83707,1.83703 -4.08718,2.60462 -6.80861,2.32266 z m 2.03728,-1.91219 c 1.95187,-0.31687 3.68724,-1.62796 4.52954,-3.42213 0.37141,-0.79111 0.44352,-1.12169 0.48854,-2.23952 0.0818,-2.03194 -0.49595,-3.45146 -1.94977,-4.79037 -2.25115,-2.07321 -5.95794,-2.07321 -8.20909,0 -1.45382,1.33891 -2.03159,2.75843 -1.94977,4.79037 0.0451,1.12017 0.11684,1.44777 0.4918,2.24649 0.79642,1.69647 2.37197,2.94097 4.23638,3.34624 1.0515,0.22856 1.32908,0.23666 2.36237,0.0689 z m -140.663907,1.60369 c -0.04039,-0.10515 -0.05417,-0.49389 -0.03062,-0.86386 l 0.0428,-0.67268 0.898071,-0.069 0.898071,-0.069 2.784979,-6.48805 c 1.531738,-3.56842 2.883209,-6.66248 3.003268,-6.87568 0.192386,-0.34165 0.286303,-0.3826 0.791466,-0.34511 l 0.573176,0.0425 2.935969,6.83316 2.935971,6.83315 0.879399,0.069 0.879401,0.069 v 0.82826 0.82826 l -8.259263,0.0356 c -6.933045,0.0299 -8.271053,0.005 -8.33269,-0.15558 z m 12.655196,-1.70909 c 0.0027,-0.29318 -4.228932,-9.97364 -4.359744,-9.97364 -0.1688,0 -4.349287,9.8067 -4.251653,9.97364 0.0333,0.0569 1.984281,0.10353 4.335505,0.10353 2.351225,0 4.275375,-0.0466 4.275892,-0.10353 z m 22.617871,1.8119 c -0.05387,-0.0538 -0.09795,-3.53934 -0.09795,-7.7456 v -7.64774 l 3.143249,0.0471 c 2.882577,0.0432 3.208264,0.0731 3.927229,0.36045 1.648987,0.65908 2.514618,1.96966 2.524043,3.82144 0.0095,1.85717 -0.794866,3.12553 -2.461612,3.88182 -0.766717,0.34789 -1.022033,0.38848 -2.711636,0.431 -2.809145,0.0707 -2.475724,-0.39562 -2.519055,3.52316 l -0.03699,3.34554 -0.834659,0.0403 c -0.459062,0.0222 -0.878738,-0.004 -0.932612,-0.0575 z m 6.188543,-8.96766 c 1.685108,-0.87843 1.723923,-3.28832 0.06861,-4.25988 -0.42518,-0.24955 -0.715043,-0.28355 -2.417414,-0.28355 h -1.934307 l -0.0381,2.27242 c -0.02096,1.24983 -0.0055,2.35727 0.03432,2.46097 0.05741,0.14949 0.451728,0.17919 1.903328,0.14334 1.530082,-0.0378 1.921715,-0.0925 2.383569,-0.3333 z m 23.226462,8.8355 c -0.131174,-0.34153 -0.09406,-14.87466 0.03852,-15.08369 0.09395,-0.14813 0.62409,-0.1761 2.588474,-0.13659 2.36157,0.0475 2.506816,0.0667 3.299309,0.43507 1.595975,0.74194 2.417884,1.989 2.417884,3.66858 0,0.99932 -0.182313,1.55231 -0.799241,2.42425 l -0.483451,0.68329 0.32689,0.21399 c 1.013506,0.66348 1.4713,1.12209 1.84092,1.8442 0.75412,1.47327 0.47561,3.45503 -0.650407,4.62801 -1.177122,1.22622 -2.369936,1.53639 -5.919226,1.5392 -2.222573,0.002 -2.587307,-0.0279 -2.659671,-0.21631 z m 6.202431,-1.9906 c 0.947947,-0.47334 1.312766,-1.05628 1.312766,-2.09766 0,-0.45051 -0.09171,-0.9919 -0.205162,-1.2111 -0.488197,-0.94323 -1.841593,-1.41479 -3.889384,-1.35514 l -1.362962,0.0397 -0.03802,2.34167 c -0.02091,1.28792 -0.0049,2.42798 0.03565,2.53346 0.05878,0.15304 0.41537,0.1819 1.765076,0.14285 1.468779,-0.0425 1.782318,-0.0943 2.382036,-0.39378 z m -1.190397,-6.93407 c 0.854328,-0.42876 1.160124,-0.89482 1.231192,-1.87647 0.124567,-1.7206 -1.00773,-2.64681 -3.235755,-2.64681 h -1.018864 v 2.39275 c 0,1.31602 0.04663,2.44123 0.103623,2.50048 0.207033,0.21522 2.276213,-0.047 2.919804,-0.36995 z m 7.569201,9.051 c -0.0507,-0.0506 -0.0921,-3.53215 -0.0921,-7.73675 v -7.64471 l 0.93262,0.0408 0.93261,0.0408 0.0372,3.0695 c 0.0431,3.55906 -0.19951,3.15722 1.96621,3.25662 1.74959,0.0803 2.72472,0.45048 3.66726,1.3922 0.86069,0.85993 1.17094,1.67106 1.16244,3.03915 -0.0103,1.66638 -0.62305,2.8122 -1.9694,3.683 -1.10787,0.71657 -2.24966,0.95137 -4.62615,0.95137 -1.0552,0 -1.96,-0.0414 -2.01066,-0.092 z m 4.50445,-1.89309 c 1.37581,-0.41369 2.03573,-1.27907 2.03484,-2.66835 -5.6e-4,-0.84453 -0.28592,-1.49526 -0.87387,-1.99269 -0.49801,-0.42134 -1.63042,-0.6866 -2.74038,-0.64193 l -1.01376,0.0408 -0.0378,2.54937 c -0.0208,1.40214 -0.007,2.62901 0.0302,2.72635 0.093,0.2422 1.77943,0.23341 2.60074,-0.0135 z m 6.55458,1.89892 c -0.0539,-0.0538 -0.098,-3.53515 -0.098,-7.73627 v -7.6384 h 0.96832 0.96831 l -0.0357,7.69592 -0.0357,7.69592 -0.83466,0.0403 c -0.45906,0.0222 -0.87874,-0.004 -0.93261,-0.0575 z m 5.49277,-0.0844 c -0.0368,-0.096 -0.0507,-3.56001 -0.031,-7.69786 l 0.0359,-7.52337 h 4.35219 4.35219 l 0.0414,0.79375 c 0.0228,0.43656 0.0228,0.80649 0,0.82207 -0.0228,0.0156 -1.5647,0.0622 -3.42647,0.10353 l -3.38504,0.0752 -0.0396,2.13968 c -0.0217,1.17682 -0.005,2.27832 0.0366,2.44777 0.0757,0.30666 0.0915,0.30828 3.35551,0.34511 l 3.2794,0.037 v 0.82826 0.82826 l -3.2794,0.037 c -3.26403,0.0368 -3.27977,0.0385 -3.35546,0.34511 -0.0418,0.16946 -0.0583,1.30202 -0.0365,2.5168 l 0.0395,2.2087 3.45412,0.069 3.45412,0.069 v 0.82826 0.82826 l -4.39032,0.0365 c -3.4379,0.0285 -4.40482,-0.001 -4.45717,-0.13805 z m 17.34462,-0.0318 c 0,-0.2188 6.71426,-14.93441 6.94933,-15.23081 0.0861,-0.10856 0.36246,-0.16306 0.69999,-0.13804 l 0.55773,0.0413 3.49105,7.59239 c 1.92007,4.17582 3.49306,7.67005 3.49554,7.76495 0.003,0.12175 -0.27527,0.17255 -0.94575,0.17255 -0.59787,0 -0.99905,-0.064 -1.08186,-0.17255 -0.0724,-0.0949 -1.33691,-2.79782 -2.81002,-6.00647 -1.47312,-3.20865 -2.74269,-5.81315 -2.82129,-5.78776 -0.11711,0.0378 -2.64638,5.43219 -5.07704,10.82823 l -0.51287,1.13855 h -0.9724 c -0.76226,0 -0.97241,-0.0437 -0.97241,-0.20238 z m 36.55978,-0.0149 c -0.14305,-0.37247 -0.0931,-1.23714 0.0815,-1.41163 0.0912,-0.0911 0.49821,-0.16565 0.90449,-0.16565 0.66195,0 0.76091,-0.0394 0.95239,-0.37962 0.11752,-0.20879 1.46691,-3.29924 2.99866,-6.86766 l 2.78497,-6.48805 0.56461,-0.0413 c 0.34438,-0.0252 0.61855,0.0286 0.7029,0.13804 0.0761,0.0987 1.39929,3.13007 2.94049,6.73646 1.54121,3.60638 2.8646,6.63471 2.94084,6.72962 0.0792,0.0986 0.4499,0.17255 0.86472,0.17255 0.89624,0 1.06595,0.17802 1.0097,1.05911 l -0.0426,0.66643 -8.30923,0.0356 c -7.48742,0.0321 -8.31757,0.0139 -8.39351,-0.18385 z m 12.62613,-1.74983 c -0.002,-0.38305 -4.13213,-9.8356 -4.29786,-9.8356 -0.16555,0 -4.26549,9.45064 -4.26696,9.8356 0,0.13434 0.94773,0.17255 4.28246,0.17255 3.33477,0 4.28294,-0.0382 4.28236,-0.17255 z m 6.00522,1.79456 c -0.0363,-0.0949 -0.0499,-3.55807 -0.0302,-7.69592 l 0.0359,-7.52337 0.88548,-0.0417 c 0.61493,-0.0289 0.92036,0.0132 0.99958,0.13804 0.0627,0.0988 0.11505,2.71109 0.11621,5.80499 0.001,3.0939 0.0544,5.62527 0.11823,5.62527 0.0639,0 2.13116,-2.52685 4.59398,-5.61522 2.46282,-3.08836 4.56001,-5.69738 4.66043,-5.79782 0.10206,-0.10208 0.48289,-0.18261 0.86353,-0.18261 h 0.68096 v 7.73043 7.73043 h -0.95237 c -0.74098,0 -0.97099,-0.0485 -1.03623,-0.21835 -0.0461,-0.1201 -0.0839,-2.73672 -0.0839,-5.81473 0,-5.09911 -0.0195,-5.58019 -0.21963,-5.41426 -0.12079,0.10016 -2.23963,2.71679 -4.70854,5.81473 l -4.48893,5.63261 h -0.68421 c -0.42001,0 -0.70974,-0.0666 -0.75032,-0.17255 z"
         id="path31"
         inkscape:connector-curvature="0" />
      <path
         style="fill:#9b638a;stroke-width:0.13810411"
         d="m 5.5629863,216.52126 c -1.9669449,-4.56538 -3.4180299,-13.06197 -3.4264377,-20.06293 -0.011641,-9.6933 2.2210199,-19.25065 6.5418948,-28.0039 3.1473456,-6.37591 6.9215106,-11.62906 12.0181406,-16.72769 10.280211,-10.28426 23.714341,-16.73168 37.832545,-18.1569 1.192816,-0.12041 2.479628,-0.28025 2.859581,-0.35518 1.033656,-0.20387 7.786704,-0.0683 10.224192,0.2053 13.662269,1.53333 25.112568,6.43627 35.266848,15.10102 2.73349,2.33251 6.9687,6.86627 6.65461,7.12371 -0.0317,0.0259 -1.56425,0.90291 -3.40578,1.94883 l -3.34825,1.90168 -0.61261,-0.53392 c -0.33694,-0.29366 -1.5028,-1.36494 -2.59079,-2.38062 -8.897772,-8.30639 -19.11521,-13.18544 -30.996875,-14.80171 -2.671226,-0.36337 -8.623524,-0.50584 -11.432487,-0.27365 -18.82574,1.55619 -35.370192,12.38049 -44.299207,28.98303 -4.531611,8.42604 -6.713982,17.62797 -6.470179,27.28141 0.116715,4.62134 0.440079,7.05034 1.640971,12.32641 0.38526,1.69262 0.67728,3.09568 0.648935,3.11791 -0.158508,0.12429 -6.452098,3.67413 -6.6452576,3.74819 -0.1744344,0.0669 -0.2879293,-0.042 -0.4598441,-0.44099 z M 19.524788,204.29999 c -0.607925,-0.0575 -1.602712,-0.24574 -2.210637,-0.41844 l -1.105318,-0.31398 -0.04095,-1.01859 c -0.04627,-1.1508 -0.164387,-1.09504 1.237333,-0.58418 1.622625,0.59136 3.419067,0.69255 4.824785,0.27175 0.875606,-0.2621 1.864836,-1.25843 1.986742,-2.00099 0.190039,-1.15758 -0.39114,-2.2634 -1.497002,-2.84836 -0.492962,-0.26076 -0.840039,-0.30824 -2.573209,-0.35201 -1.101864,-0.0278 -2.081107,-0.11449 -2.176095,-0.19259 -0.220439,-0.18123 -0.22562,-1.38053 -0.0069,-1.59905 0.112704,-0.11261 0.767694,-0.16565 2.045344,-0.16565 1.744575,0 1.931033,-0.0256 2.596554,-0.35699 0.943302,-0.46966 1.31325,-1.00226 1.375824,-1.98073 0.09635,-1.50662 -0.815885,-2.22896 -2.936648,-2.32533 -1.428258,-0.0649 -2.724173,0.18436 -3.805946,0.73205 -0.382122,0.19347 -0.754612,0.31481 -0.827753,0.26964 -0.07314,-0.0452 -0.132985,-0.44666 -0.132985,-0.89221 0,-0.6991 0.0472,-0.84719 0.344483,-1.08083 1.025098,-0.80563 4.754404,-1.19968 6.442714,-0.68075 3.050124,0.93749 3.97451,3.93796 1.970531,6.39614 -0.333305,0.40885 -0.606007,0.79922 -0.606007,0.86748 0,0.0683 0.151791,0.22349 0.337316,0.34494 0.961418,0.6294 1.701545,2.53743 1.527749,3.93852 -0.24103,1.94309 -1.323577,3.13832 -3.384878,3.7372 -1.114424,0.32378 -1.963834,0.38725 -3.385036,0.25296 z m 30.948906,0.0206 c -1.937715,-0.21681 -3.554551,-0.98788 -4.904849,-2.33912 -4.4813,-4.48441 -2.063733,-12.12685 4.215879,-13.32729 1.333724,-0.25496 1.979079,-0.2544 3.336487,0.003 1.650404,0.31281 2.956838,1.0189 4.194451,2.26701 1.199264,1.20942 1.689605,2.04794 2.072678,3.54443 1.396666,5.45611 -3.163321,10.49562 -8.914646,9.8521 z m 2.318458,-1.99149 c 4.302111,-0.91081 6.234131,-6.04325 3.585768,-9.52563 -2.243337,-2.94981 -6.663096,-3.23521 -9.300074,-0.60055 -2.202793,2.20086 -2.315629,5.95149 -0.246519,8.19424 1.042732,1.13024 2.129163,1.73597 3.573284,1.99226 0.941422,0.16707 1.36391,0.1564 2.387541,-0.0603 z m 27.2488,1.99149 c -4.363508,-0.48824 -7.53231,-4.21857 -7.192874,-8.46748 0.459756,-5.75501 6.55209,-9.05319 11.959558,-6.47451 1.388967,0.66236 2.947051,2.19774 3.578653,3.5265 1.49687,3.1491 0.915395,6.65311 -1.506181,9.07637 -1.7736,1.77483 -4.265449,2.62709 -6.839156,2.33912 z m 2.318459,-1.99149 c 2.468215,-0.52255 4.261519,-2.41988 4.698987,-4.97156 0.617532,-3.60196 -2.26115,-6.95333 -5.986723,-6.96976 -2.351079,-0.0104 -4.592983,1.35384 -5.536928,3.36923 -1.114365,2.37925 -0.738677,4.94186 0.992634,6.77086 1.560285,1.64832 3.591346,2.27562 5.83203,1.80123 z m 82.964389,1.97915 c -1.99224,-0.20641 -3.67201,-1.052 -5.11371,-2.57423 -0.88011,-0.92927 -1.65696,-2.3862 -1.90253,-3.56814 l -0.15403,-0.74126 h -0.60948 -0.60949 l -0.037,3.34756 -0.037,3.34755 -0.88549,0.0417 c -0.61493,0.0289 -0.92035,-0.0132 -0.99958,-0.13804 -0.0627,-0.0988 -0.11409,-3.50311 -0.11409,-7.56504 0,-4.06193 0.0513,-7.4662 0.11409,-7.56504 0.0792,-0.1248 0.38465,-0.16698 0.99958,-0.13804 l 0.88549,0.0417 0.037,3.34755 0.037,3.34756 h 0.59943 0.59943 l 0.22006,-0.89097 c 0.66581,-2.69566 2.51609,-4.70915 5.18527,-5.64261 1.04801,-0.3665 1.3866,-0.41923 2.71701,-0.42305 1.07697,-0.003 1.75927,0.068 2.34158,0.2439 1.94179,0.58664 3.55187,1.73123 4.53631,3.22483 0.93251,1.41482 1.23097,2.33725 1.3072,4.04007 0.11251,2.51313 -0.5276,4.16061 -2.30844,5.9414 -1.83707,1.83703 -4.08718,2.60462 -6.80861,2.32266 z m 2.03728,-1.91219 c 1.95187,-0.31687 3.68724,-1.62796 4.52954,-3.42213 0.37141,-0.79111 0.44352,-1.12169 0.48854,-2.23952 0.0818,-2.03194 -0.49595,-3.45146 -1.94977,-4.79037 -2.25115,-2.07321 -5.95794,-2.07321 -8.20909,0 -1.45382,1.33891 -2.03159,2.75843 -1.94977,4.79037 0.0451,1.12017 0.11684,1.44777 0.4918,2.24649 0.79642,1.69647 2.37197,2.94097 4.23638,3.34624 1.0515,0.22856 1.32908,0.23666 2.36237,0.0689 z m -140.663907,1.60369 c -0.04039,-0.10515 -0.05417,-0.49389 -0.03062,-0.86386 l 0.0428,-0.67268 0.898071,-0.069 0.898071,-0.069 2.784979,-6.48805 c 1.531738,-3.56842 2.883209,-6.66248 3.003268,-6.87568 0.192386,-0.34165 0.286303,-0.3826 0.791466,-0.34511 l 0.573176,0.0425 2.935969,6.83316 2.935971,6.83315 0.879399,0.069 0.879401,0.069 v 0.82826 0.82826 l -8.259263,0.0356 c -6.933045,0.0299 -8.271053,0.005 -8.33269,-0.15558 z m 12.655196,-1.70909 c 0.0027,-0.29318 -4.228932,-9.97364 -4.359744,-9.97364 -0.1688,0 -4.349287,9.8067 -4.251653,9.97364 0.0333,0.0569 1.984281,0.10353 4.335505,0.10353 2.351225,0 4.275375,-0.0466 4.275892,-0.10353 z m 22.617871,1.8119 c -0.05387,-0.0538 -0.09795,-3.53934 -0.09795,-7.7456 v -7.64774 l 3.143249,0.0471 c 2.882577,0.0432 3.208264,0.0731 3.927229,0.36045 1.648987,0.65908 2.514618,1.96966 2.524043,3.82144 0.0095,1.85717 -0.794866,3.12553 -2.461612,3.88182 -0.766717,0.34789 -1.022033,0.38848 -2.711636,0.431 -2.809145,0.0707 -2.475724,-0.39562 -2.519055,3.52316 l -0.03699,3.34554 -0.834659,0.0403 c -0.459062,0.0222 -0.878738,-0.004 -0.932612,-0.0575 z m 6.188543,-8.96766 c 1.685108,-0.87843 1.723923,-3.28832 0.06861,-4.25988 -0.42518,-0.24955 -0.715043,-0.28355 -2.417414,-0.28355 h -1.934307 l -0.0381,2.27242 c -0.02096,1.24983 -0.0055,2.35727 0.03432,2.46097 0.05741,0.14949 0.451728,0.17919 1.903328,0.14334 1.530082,-0.0378 1.921715,-0.0925 2.383569,-0.3333 z m 23.226462,8.8355 c -0.131174,-0.34153 -0.09406,-14.87466 0.03852,-15.08369 0.09395,-0.14813 0.62409,-0.1761 2.588474,-0.13659 2.36157,0.0475 2.506816,0.0667 3.299309,0.43507 1.595975,0.74194 2.417884,1.989 2.417884,3.66858 0,0.99932 -0.182313,1.55231 -0.799241,2.42425 l -0.483451,0.68329 0.32689,0.21399 c 1.013506,0.66348 1.4713,1.12209 1.84092,1.8442 0.75412,1.47327 0.47561,3.45503 -0.650407,4.62801 -1.177122,1.22622 -2.369936,1.53639 -5.919226,1.5392 -2.222573,0.002 -2.587307,-0.0279 -2.659671,-0.21631 z m 6.202431,-1.9906 c 0.947947,-0.47334 1.312766,-1.05628 1.312766,-2.09766 0,-0.45051 -0.09171,-0.9919 -0.205162,-1.2111 -0.488197,-0.94323 -1.841593,-1.41479 -3.889384,-1.35514 l -1.362962,0.0397 -0.03802,2.34167 c -0.02091,1.28792 -0.0049,2.42798 0.03565,2.53346 0.05878,0.15304 0.41537,0.1819 1.765076,0.14285 1.468779,-0.0425 1.782318,-0.0943 2.382036,-0.39378 z m -1.190397,-6.93407 c 0.854328,-0.42876 1.160124,-0.89482 1.231192,-1.87647 0.124567,-1.7206 -1.00773,-2.64681 -3.235755,-2.64681 h -1.018864 v 2.39275 c 0,1.31602 0.04663,2.44123 0.103623,2.50048 0.207033,0.21522 2.276213,-0.047 2.919804,-0.36995 z m 7.569201,9.051 c -0.0507,-0.0506 -0.0921,-3.53215 -0.0921,-7.73675 v -7.64471 l 0.93262,0.0408 0.93261,0.0408 0.0372,3.0695 c 0.0431,3.55906 -0.19951,3.15722 1.96621,3.25662 1.74959,0.0803 2.72472,0.45048 3.66726,1.3922 0.86069,0.85993 1.17094,1.67106 1.16244,3.03915 -0.0103,1.66638 -0.62305,2.8122 -1.9694,3.683 -1.10787,0.71657 -2.24966,0.95137 -4.62615,0.95137 -1.0552,0 -1.96,-0.0414 -2.01066,-0.092 z m 4.50445,-1.89309 c 1.37581,-0.41369 2.03573,-1.27907 2.03484,-2.66835 -5.6e-4,-0.84453 -0.28592,-1.49526 -0.87387,-1.99269 -0.49801,-0.42134 -1.63042,-0.6866 -2.74038,-0.64193 l -1.01376,0.0408 -0.0378,2.54937 c -0.0208,1.40214 -0.007,2.62901 0.0302,2.72635 0.093,0.2422 1.77943,0.23341 2.60074,-0.0135 z m 6.55458,1.89892 c -0.0539,-0.0538 -0.098,-3.53515 -0.098,-7.73627 v -7.6384 h 0.96832 0.96831 l -0.0357,7.69592 -0.0357,7.69592 -0.83466,0.0403 c -0.45906,0.0222 -0.87874,-0.004 -0.93261,-0.0575 z m 5.49277,-0.0844 c -0.0368,-0.096 -0.0507,-3.56001 -0.031,-7.69786 l 0.0359,-7.52337 h 4.35219 4.35219 l 0.0414,0.79375 c 0.0228,0.43656 0.0228,0.80649 0,0.82207 -0.0228,0.0156 -1.5647,0.0622 -3.42647,0.10353 l -3.38504,0.0752 -0.0396,2.13968 c -0.0217,1.17682 -0.005,2.27832 0.0366,2.44777 0.0757,0.30666 0.0915,0.30828 3.35551,0.34511 l 3.2794,0.037 v 0.82826 0.82826 l -3.2794,0.037 c -3.26403,0.0368 -3.27977,0.0385 -3.35546,0.34511 -0.0418,0.16946 -0.0583,1.30202 -0.0365,2.5168 l 0.0395,2.2087 3.45412,0.069 3.45412,0.069 v 0.82826 0.82826 l -4.39032,0.0365 c -3.4379,0.0285 -4.40482,-0.001 -4.45717,-0.13805 z m 17.34462,-0.0318 c 0,-0.2188 6.71426,-14.93441 6.94933,-15.23081 0.0861,-0.10856 0.36246,-0.16306 0.69999,-0.13804 l 0.55773,0.0413 3.49105,7.59239 c 1.92007,4.17582 3.49306,7.67005 3.49554,7.76495 0.003,0.12175 -0.27527,0.17255 -0.94575,0.17255 -0.59787,0 -0.99905,-0.064 -1.08186,-0.17255 -0.0724,-0.0949 -1.33691,-2.79782 -2.81002,-6.00647 -1.47312,-3.20865 -2.74269,-5.81315 -2.82129,-5.78776 -0.11711,0.0378 -2.64638,5.43219 -5.07704,10.82823 l -0.51287,1.13855 h -0.9724 c -0.76226,0 -0.97241,-0.0437 -0.97241,-0.20238 z m 36.55978,-0.0149 c -0.14305,-0.37247 -0.0931,-1.23714 0.0815,-1.41163 0.0912,-0.0911 0.49821,-0.16565 0.90449,-0.16565 0.66195,0 0.76091,-0.0394 0.95239,-0.37962 0.11752,-0.20879 1.46691,-3.29924 2.99866,-6.86766 l 2.78497,-6.48805 0.56461,-0.0413 c 0.34438,-0.0252 0.61855,0.0286 0.7029,0.13804 0.0761,0.0987 1.39929,3.13007 2.94049,6.73646 1.54121,3.60638 2.8646,6.63471 2.94084,6.72962 0.0792,0.0986 0.4499,0.17255 0.86472,0.17255 0.89624,0 1.06595,0.17802 1.0097,1.05911 l -0.0426,0.66643 -8.30923,0.0356 c -7.48742,0.0321 -8.31757,0.0139 -8.39351,-0.18385 z m 12.62613,-1.74983 c -0.002,-0.38305 -4.13213,-9.8356 -4.29786,-9.8356 -0.16555,0 -4.26549,9.45064 -4.26696,9.8356 0,0.13434 0.94773,0.17255 4.28246,0.17255 3.33477,0 4.28294,-0.0382 4.28236,-0.17255 z m 6.00522,1.79456 c -0.0363,-0.0949 -0.0499,-3.55807 -0.0302,-7.69592 l 0.0359,-7.52337 0.88548,-0.0417 c 0.61493,-0.0289 0.92036,0.0132 0.99958,0.13804 0.0627,0.0988 0.11505,2.71109 0.11621,5.80499 0.001,3.0939 0.0544,5.62527 0.11823,5.62527 0.0639,0 2.13116,-2.52685 4.59398,-5.61522 2.46282,-3.08836 4.56001,-5.69738 4.66043,-5.79782 0.10206,-0.10208 0.48289,-0.18261 0.86353,-0.18261 h 0.68096 v 7.73043 7.73043 h -0.95237 c -0.74098,0 -0.97099,-0.0485 -1.03623,-0.21835 -0.0461,-0.1201 -0.0839,-2.73672 -0.0839,-5.81473 0,-5.09911 -0.0195,-5.58019 -0.21963,-5.41426 -0.12079,0.10016 -2.23963,2.71679 -4.70854,5.81473 l -4.48893,5.63261 h -0.68421 c -0.42001,0 -0.70974,-0.0666 -0.75032,-0.17255 z"
         id="path29"
         inkscape:connector-curvature="0" />
      <path
         style="fill:#736298;stroke-width:0.13810411"
         d="m 18.903046,204.22924 c -0.621135,-0.10785 -1.995069,-0.46231 -2.383342,-0.61489 -0.364042,-0.14305 -0.379953,-0.18973 -0.379953,-1.11495 0,-0.85819 0.02691,-0.95674 0.241788,-0.88548 0.132984,0.0441 0.705208,0.24343 1.271611,0.44297 2.819017,0.9931 5.769437,0.36193 6.433886,-1.37638 0.494774,-1.29441 -0.03843,-2.66699 -1.271719,-3.27366 -0.589421,-0.28995 -0.894015,-0.33249 -2.667571,-0.37257 -1.117634,-0.0252 -2.079009,-0.10895 -2.176095,-0.18945 -0.221371,-0.18356 -0.227452,-1.38215 -0.0081,-1.60128 0.113146,-0.11305 0.779381,-0.16565 2.097933,-0.16565 1.673897,0 2.011397,-0.0383 2.52519,-0.28685 2.020123,-0.97706 1.980017,-3.49658 -0.06675,-4.19337 -0.74153,-0.25244 -2.592191,-0.28151 -3.64459,-0.0572 -0.402691,0.0858 -1.070776,0.30521 -1.484632,0.48753 -0.413856,0.18233 -0.833531,0.30043 -0.932612,0.26244 -0.298973,-0.11463 -0.233063,-1.4053 0.08815,-1.72623 0.371537,-0.37121 1.875611,-0.8104 3.344839,-0.97669 3.750171,-0.42445 6.412029,1.36416 6.160169,4.13927 -0.0871,0.95968 -0.500966,1.81733 -1.251934,2.59437 l -0.568606,0.58834 0.669682,0.64115 c 0.956555,0.91579 1.361775,1.87418 1.361775,3.22075 0,2.2887 -1.403207,3.88167 -3.877232,4.40158 -0.703366,0.14781 -2.76299,0.1811 -3.481859,0.0563 z m 30.522857,-0.10437 c -3.642023,-0.92229 -6.085464,-3.96104 -6.102164,-7.58887 -0.0065,-1.40832 0.204412,-2.34301 0.823888,-3.65146 0.622656,-1.31516 1.930371,-2.6472 3.286442,-3.34755 1.194864,-0.6171 1.657355,-0.76509 2.961422,-0.94762 3.400684,-0.476 6.890531,1.32642 8.36556,4.3206 2.140599,4.34522 0.0928,9.34224 -4.490945,10.95875 -1.272048,0.4486 -3.598453,0.57162 -4.844203,0.25615 z m 4.197786,-1.98318 c 1.564504,-0.55361 2.950978,-1.88541 3.567908,-3.42722 0.268836,-0.67187 0.323257,-1.06046 0.325639,-2.32516 0.0027,-1.4251 -0.02434,-1.57585 -0.439467,-2.45145 -0.614286,-1.29567 -1.637992,-2.33553 -2.92503,-2.97118 -1.019379,-0.50346 -1.069592,-0.51319 -2.635441,-0.51081 -1.832554,0.003 -2.616401,0.23746 -3.803597,1.13874 -4.033208,3.06189 -2.772209,9.3461 2.152707,10.72807 0.980603,0.27516 2.702612,0.19221 3.757281,-0.18099 z m 25.369473,1.97497 c -4.148765,-1.00645 -6.741249,-4.90374 -6.010047,-9.03492 0.616482,-3.48304 3.297142,-5.98688 6.943741,-6.48573 1.128144,-0.15433 2.599456,-0.0373 3.637298,0.2893 1.099831,0.34611 2.443344,1.17665 3.315954,2.04987 1.550897,1.55197 2.265348,3.29707 2.26397,5.5299 -0.0023,3.68822 -2.493319,6.78907 -6.14477,7.64901 -1.079948,0.25434 -2.963323,0.25555 -4.006146,0.003 z m 3.35525,-1.73847 c 2.235094,-0.47026 4.035049,-2.1652 4.594928,-4.32685 0.761842,-2.94142 -0.602766,-5.85875 -3.34833,-7.15824 -0.878066,-0.41559 -1.015924,-0.43953 -2.517822,-0.43723 -1.31899,0.002 -1.717979,0.0546 -2.348801,0.30961 -2.191073,0.88572 -3.649811,2.87556 -3.830194,5.2247 -0.312454,4.06913 3.388661,7.24257 7.450219,6.38801 z m 81.854898,1.72996 c -2.56532,-0.62046 -4.89728,-2.78659 -5.63474,-5.23406 -0.49738,-1.65067 -0.46963,-1.6095 -1.05254,-1.56127 l -0.51731,0.0428 -0.0371,3.23302 c -0.0249,2.16753 -0.0891,3.29556 -0.19481,3.4228 -0.10786,0.12987 -0.40152,0.17693 -0.93,0.14905 l -0.77235,-0.0407 v -7.66141 -7.66141 l 0.86353,-0.0411 c 0.47494,-0.0226 0.87628,-0.0226 0.89188,0 0.0156,0.0226 0.0622,1.56303 0.10362,3.42316 l 0.0753,3.38207 0.51731,0.0428 c 0.57909,0.0479 0.57639,0.0517 1.00332,-1.42323 0.63796,-2.20404 2.15337,-3.93897 4.28229,-4.90261 1.22077,-0.55257 2.19067,-0.74533 3.66137,-0.72768 5.21975,0.0627 8.97169,4.72654 7.79951,9.69527 -0.67361,2.85541 -2.9575,5.11746 -5.92877,5.87208 -1.01638,0.25813 -3.04312,0.25346 -4.13044,-0.01 z m 3.37059,-1.71501 c 1.54834,-0.29338 3.13154,-1.3619 3.96514,-2.67613 0.86865,-1.36946 1.14944,-3.45303 0.6819,-5.05987 -0.54098,-1.8593 -2.12011,-3.44721 -3.99355,-4.01575 -0.78943,-0.23957 -1.20052,-0.28074 -2.25377,-0.22569 -1.10648,0.0578 -1.43214,0.1356 -2.30823,0.55129 -3.76961,1.78861 -4.67662,6.62997 -1.80678,9.64408 1.45195,1.52493 3.5764,2.18735 5.71529,1.78207 z m -140.840441,1.70467 c -0.159107,-0.15897 -0.10225,-1.36325 0.07261,-1.53796 0.09119,-0.0911 0.487708,-0.16565 0.881154,-0.16565 0.406232,0 0.775265,-0.0746 0.853995,-0.17255 0.07625,-0.0949 1.39963,-3.12324 2.940837,-6.72962 1.541208,-3.60639 2.861876,-6.63472 2.93482,-6.72962 0.07294,-0.0949 0.345512,-0.17256 0.605709,-0.17256 0.372426,0 0.518333,0.0808 0.685753,0.37962 0.116968,0.20879 1.466854,3.29924 2.999748,6.86766 l 2.787077,6.48805 0.620653,0.0364 c 1.249327,0.0733 1.260985,0.0826 1.214617,0.96874 l -0.04131,0.78942 -8.23124,0.0356 c -4.527181,0.0196 -8.273173,-0.006 -8.324427,-0.0575 z m 12.617972,-1.85421 c 0,-0.15514 -3.737986,-8.99324 -4.10343,-9.70216 -0.170048,-0.32987 -0.233526,-0.36479 -0.376449,-0.20707 -0.166725,0.184 -4.22513,9.74836 -4.22471,9.9563 1.15e-4,0.0569 1.958694,0.10353 4.352399,0.10353 3.051288,0 4.35219,-0.045 4.35219,-0.1506 z m 22.586793,1.77924 c -0.03776,-0.0985 -0.0525,-3.5647 -0.03275,-7.70255 l 0.0359,-7.52337 2.62513,-0.0431 c 3.465971,-0.0569 4.563867,0.18645 5.711404,1.26585 1.677118,1.57753 1.566495,4.68359 -0.219218,6.1552 -0.935574,0.77101 -1.800723,1.0017 -4.110538,1.09607 l -2.072472,0.0847 -0.06908,3.38207 -0.06908,3.38206 -0.865318,0.0411 c -0.612973,0.0291 -0.885339,-0.0111 -0.933969,-0.13805 z m 6.047327,-8.77718 c 1.106759,-0.48914 1.612324,-1.4289 1.443852,-2.68385 -0.204309,-1.5219 -1.606385,-2.22983 -4.254824,-2.14834 l -1.298904,0.04 -0.03793,2.41091 c -0.02086,1.326 -0.0037,2.50011 0.0382,2.60912 0.117343,0.30552 3.302346,0.12897 4.10961,-0.22781 z m 23.517384,8.77055 c -0.03636,-0.0949 -0.04995,-3.55807 -0.0302,-7.69592 l 0.0359,-7.52337 2.417884,0.007 c 2.148773,0.006 2.50246,0.0406 3.177789,0.30779 1.016757,0.40227 1.72718,1.01302 2.178914,1.87321 0.320394,0.6101 0.373297,0.87694 0.373538,1.88413 2.76e-4,1.24726 -0.250776,1.97234 -0.879773,2.54069 -0.402422,0.36362 -0.363984,0.70867 0.100352,0.90083 1.167711,0.48326 2.092071,2.01511 2.094231,3.47057 0.003,2.24155 -1.269659,3.69185 -3.690357,4.20435 -1.234231,0.2613 -5.680869,0.28483 -5.77827,0.0306 z m 5.68368,-1.82529 c 1.820436,-0.54014 2.417178,-2.71073 1.105523,-4.02123 -0.630046,-0.62949 -1.613214,-0.8831 -3.423551,-0.8831 h -1.494735 v 2.55381 2.5538 h 1.563817 c 0.97485,0 1.821852,-0.0766 2.248946,-0.20328 z m -0.758086,-7.1294 c 0.859854,-0.47427 1.22843,-1.08705 1.22843,-2.04233 0,-1.10093 -0.32355,-1.64799 -1.252067,-2.11698 -0.60263,-0.30439 -0.970071,-0.38635 -1.85664,-0.41413 l -1.105318,-0.0346 -0.03773,2.53862 -0.03773,2.53862 1.232534,-0.0702 c 0.947865,-0.054 1.370184,-0.14614 1.828527,-0.39895 z m 7.509231,8.95469 c -0.0363,-0.0949 -0.0499,-3.55807 -0.0302,-7.69592 l 0.0359,-7.52337 h 0.89807 0.89807 l 0.0691,3.10598 0.0691,3.10597 1.51981,0.0903 c 2.50279,0.14864 3.91601,0.86655 4.69267,2.38385 0.83245,1.62629 0.59499,3.6122 -0.58926,4.92822 -1.17213,1.30254 -2.66713,1.77126 -5.66209,1.77517 -1.34249,0.002 -1.85277,-0.0439 -1.90113,-0.17016 z m 5.13495,-2.00377 c 1.16708,-0.60697 1.75502,-1.8766 1.42908,-3.08598 -0.38906,-1.4436 -1.19611,-1.94298 -3.27692,-2.02767 l -1.41619,-0.0576 v 2.79258 2.79258 l 1.34711,-0.0588 c 1.02589,-0.0447 1.48297,-0.12942 1.91692,-0.35511 z m 5.92078,2.0104 c -0.0378,-0.0985 -0.0525,-3.5647 -0.0327,-7.70255 l 0.0359,-7.52337 h 0.89807 0.89807 v 7.66141 7.66141 l -0.86532,0.0411 c -0.61297,0.0291 -0.88534,-0.0111 -0.93397,-0.13805 z m 5.52479,-0.005 c -0.0368,-0.096 -0.0507,-3.56001 -0.031,-7.69786 l 0.0359,-7.52337 h 4.35219 4.35219 v 0.75924 0.75924 l -3.38504,0.0752 c -1.86177,0.0414 -3.40201,0.0879 -3.42277,0.10353 -0.0207,0.0156 -0.0207,1.13094 0,2.47859 l 0.0377,2.45027 3.16684,0.0372 c 2.05249,0.0241 3.23145,0.0907 3.35049,0.18945 0.10102,0.0838 0.18366,0.41662 0.18366,0.73969 0,0.32306 -0.0826,0.65592 -0.18366,0.73968 -0.11904,0.0987 -1.298,0.16537 -3.35049,0.18946 l -3.16684,0.0372 v 2.48479 2.48478 l 3.45412,0.0751 c 1.89977,0.0413 3.47277,0.0879 3.49556,0.10353 0.0228,0.0156 0.0228,0.38562 0,0.82218 l -0.0414,0.79375 -4.39032,0.0365 c -3.4379,0.0285 -4.40482,-0.001 -4.45717,-0.13805 z m 17.41123,0.0286 c -0.0483,-0.0781 1.48711,-3.57235 3.41208,-7.76494 l 3.49993,-7.6229 h 0.59602 0.596 l 3.51055,7.64525 c 1.93081,4.20489 3.47723,7.69911 3.43651,7.76494 -0.0897,0.14499 -1.58274,0.15662 -1.8041,0.014 -0.0866,-0.0558 -1.38434,-2.75703 -2.88386,-6.00277 -1.49951,-3.24575 -2.79914,-5.90136 -2.88807,-5.90136 -0.0889,0 -1.36377,2.63554 -2.83297,5.85675 -1.46922,3.22122 -2.73801,5.92342 -2.81956,6.0049 -0.18945,0.18928 -1.70608,0.19435 -1.82253,0.006 z m 36.63917,0.05 c -0.0507,-0.0506 -0.0921,-0.42214 -0.0921,-0.82562 0,-0.81701 0.0275,-0.83739 1.2272,-0.90953 l 0.60548,-0.0364 2.93345,-6.83315 2.93346,-6.83316 h 0.60054 0.60055 l 2.30966,5.3837 c 1.2703,2.96103 2.59986,6.05148 2.95456,6.86766 l 0.64491,1.48397 h 0.78827 c 0.43353,0 0.86286,0.0745 0.95405,0.16565 0.0912,0.0911 0.1658,0.42034 0.1658,0.73163 0,0.31129 -0.0746,0.64052 -0.1658,0.73163 -0.12517,0.12508 -2.15025,0.16565 -8.26685,0.16565 -4.45559,0 -8.14252,-0.0414 -8.19317,-0.092 z m 12.52346,-1.80606 c 0.0989,-0.17389 -4.21009,-10.12718 -4.36233,-10.07648 -0.16664,0.0555 -4.23105,9.58181 -4.24024,9.93843 -0.006,0.225 0.28708,0.24158 4.26873,0.24158 2.35122,0 4.30146,-0.0466 4.33384,-0.10353 z m 6.0643,1.73244 c -0.19498,-0.1948 -0.24065,-14.82552 -0.0472,-15.1302 0.0784,-0.12344 0.37107,-0.16686 0.9305,-0.13804 l 0.81617,0.042 0.0691,5.76341 c 0.044,3.66931 0.11928,5.77592 0.20725,5.79783 0.076,0.0189 2.23564,-2.59014 4.79923,-5.79793 l 4.66107,-5.83233 h 0.69282 0.69281 v 7.73674 7.73674 l -0.93261,-0.0408 -0.93261,-0.0408 -0.0691,-5.7288 c -0.0503,-4.1716 -0.11209,-5.72881 -0.22732,-5.72881 -0.087,0 -2.1962,2.54691 -4.68703,5.65979 -2.49082,3.11288 -4.59571,5.70542 -4.67751,5.7612 -0.23747,0.16191 -1.11404,0.12131 -1.29552,-0.06 z M 2.5165952,191.17817 c 0.041272,-0.3986 0.1127054,-1.22169 0.1587418,-1.82908 0.4985466,-6.57768 2.6685823,-14.13942 5.9867202,-20.86143 3.1647258,-6.41121 6.9277988,-11.65218 12.0345268,-16.76092 10.280211,-10.28426 23.714341,-16.73168 37.832545,-18.1569 1.192816,-0.12041 2.479628,-0.28025 2.859581,-0.35518 1.033656,-0.20387 7.786704,-0.0683 10.224192,0.2053 6.819897,0.7654 12.744993,2.27887 18.168666,4.64088 1.432413,0.62381 3.731429,1.80608 3.725812,1.916 -0.0026,0.0499 -1.847312,1.13734 -4.099469,2.41654 l -4.094833,2.3258 -2.359734,-0.70208 c -6.325181,-1.88189 -11.31965,-2.63812 -17.42339,-2.63812 -11.091541,0 -21.421254,3.10643 -30.530713,9.18141 -11.80625,7.87344 -19.991583,19.64781 -23.414498,33.68109 -0.314822,1.29071 -0.600089,2.48197 -0.633927,2.64726 -0.04663,0.22776 -1.0606868,0.87109 -4.1886115,2.65733 -2.2698978,1.29626 -4.1706383,2.35683 -4.2238677,2.35683 -0.053229,0 -0.063013,-0.32613 -0.021742,-0.72473 z"
         id="path27"
         inkscape:connector-curvature="0" />
      <path
         style="fill:#6a6456;stroke-width:0.13810411"
         d="m 18.903046,204.22924 c -0.621135,-0.10785 -1.995069,-0.46231 -2.383342,-0.61489 -0.364042,-0.14305 -0.379953,-0.18973 -0.379953,-1.11495 0,-0.85819 0.02691,-0.95674 0.241788,-0.88548 0.132984,0.0441 0.705208,0.24343 1.271611,0.44297 2.819017,0.9931 5.769437,0.36193 6.433886,-1.37638 0.494774,-1.29441 -0.03843,-2.66699 -1.271719,-3.27366 -0.589421,-0.28995 -0.894015,-0.33249 -2.667571,-0.37257 -1.117634,-0.0252 -2.079009,-0.10895 -2.176095,-0.18945 -0.221371,-0.18356 -0.227452,-1.38215 -0.0081,-1.60128 0.113146,-0.11305 0.779381,-0.16565 2.097933,-0.16565 1.673897,0 2.011397,-0.0383 2.52519,-0.28685 2.020123,-0.97706 1.980017,-3.49658 -0.06675,-4.19337 -0.74153,-0.25244 -2.592191,-0.28151 -3.64459,-0.0572 -0.402691,0.0858 -1.070776,0.30521 -1.484632,0.48753 -0.413856,0.18233 -0.833531,0.30043 -0.932612,0.26244 -0.298973,-0.11463 -0.233063,-1.4053 0.08815,-1.72623 0.371537,-0.37121 1.875611,-0.8104 3.344839,-0.97669 3.750171,-0.42445 6.412029,1.36416 6.160169,4.13927 -0.0871,0.95968 -0.500966,1.81733 -1.251934,2.59437 l -0.568606,0.58834 0.669682,0.64115 c 0.956555,0.91579 1.361775,1.87418 1.361775,3.22075 0,2.2887 -1.403207,3.88167 -3.877232,4.40158 -0.703366,0.14781 -2.76299,0.1811 -3.481859,0.0563 z m 30.522857,-0.10437 c -3.642023,-0.92229 -6.085464,-3.96104 -6.102164,-7.58887 -0.0065,-1.40832 0.204412,-2.34301 0.823888,-3.65146 0.622656,-1.31516 1.930371,-2.6472 3.286442,-3.34755 1.194864,-0.6171 1.657355,-0.76509 2.961422,-0.94762 3.400684,-0.476 6.890531,1.32642 8.36556,4.3206 2.140599,4.34522 0.0928,9.34224 -4.490945,10.95875 -1.272048,0.4486 -3.598453,0.57162 -4.844203,0.25615 z m 4.197786,-1.98318 c 1.564504,-0.55361 2.950978,-1.88541 3.567908,-3.42722 0.268836,-0.67187 0.323257,-1.06046 0.325639,-2.32516 0.0027,-1.4251 -0.02434,-1.57585 -0.439467,-2.45145 -0.614286,-1.29567 -1.637992,-2.33553 -2.92503,-2.97118 -1.019379,-0.50346 -1.069592,-0.51319 -2.635441,-0.51081 -1.832554,0.003 -2.616401,0.23746 -3.803597,1.13874 -4.033208,3.06189 -2.772209,9.3461 2.152707,10.72807 0.980603,0.27516 2.702612,0.19221 3.757281,-0.18099 z m 25.369473,1.97497 c -4.148765,-1.00645 -6.741249,-4.90374 -6.010047,-9.03492 0.616482,-3.48304 3.297142,-5.98688 6.943741,-6.48573 1.128144,-0.15433 2.599456,-0.0373 3.637298,0.2893 1.099831,0.34611 2.443344,1.17665 3.315954,2.04987 1.550897,1.55197 2.265348,3.29707 2.26397,5.5299 -0.0023,3.68822 -2.493319,6.78907 -6.14477,7.64901 -1.079948,0.25434 -2.963323,0.25555 -4.006146,0.003 z m 3.35525,-1.73847 c 2.235094,-0.47026 4.035049,-2.1652 4.594928,-4.32685 0.761842,-2.94142 -0.602766,-5.85875 -3.34833,-7.15824 -0.878066,-0.41559 -1.015924,-0.43953 -2.517822,-0.43723 -1.31899,0.002 -1.717979,0.0546 -2.348801,0.30961 -2.191073,0.88572 -3.649811,2.87556 -3.830194,5.2247 -0.312454,4.06913 3.388661,7.24257 7.450219,6.38801 z m 81.854898,1.72996 c -2.56532,-0.62046 -4.89728,-2.78659 -5.63474,-5.23406 -0.49738,-1.65067 -0.46963,-1.6095 -1.05254,-1.56127 l -0.51731,0.0428 -0.0371,3.23302 c -0.0249,2.16753 -0.0891,3.29556 -0.19481,3.4228 -0.10786,0.12987 -0.40152,0.17693 -0.93,0.14905 l -0.77235,-0.0407 v -7.66141 -7.66141 l 0.86353,-0.0411 c 0.47494,-0.0226 0.87628,-0.0226 0.89188,0 0.0156,0.0226 0.0622,1.56303 0.10362,3.42316 l 0.0753,3.38207 0.51731,0.0428 c 0.57909,0.0479 0.57639,0.0517 1.00332,-1.42323 0.63796,-2.20404 2.15337,-3.93897 4.28229,-4.90261 1.22077,-0.55257 2.19067,-0.74533 3.66137,-0.72768 5.21975,0.0627 8.97169,4.72654 7.79951,9.69527 -0.67361,2.85541 -2.9575,5.11746 -5.92877,5.87208 -1.01638,0.25813 -3.04312,0.25346 -4.13044,-0.01 z m 3.37059,-1.71501 c 1.54834,-0.29338 3.13154,-1.3619 3.96514,-2.67613 0.86865,-1.36946 1.14944,-3.45303 0.6819,-5.05987 -0.54098,-1.8593 -2.12011,-3.44721 -3.99355,-4.01575 -0.78943,-0.23957 -1.20052,-0.28074 -2.25377,-0.22569 -1.10648,0.0578 -1.43214,0.1356 -2.30823,0.55129 -3.76961,1.78861 -4.67662,6.62997 -1.80678,9.64408 1.45195,1.52493 3.5764,2.18735 5.71529,1.78207 z m -140.840441,1.70467 c -0.159107,-0.15897 -0.10225,-1.36325 0.07261,-1.53796 0.09119,-0.0911 0.487708,-0.16565 0.881154,-0.16565 0.406232,0 0.775265,-0.0746 0.853995,-0.17255 0.07625,-0.0949 1.39963,-3.12324 2.940837,-6.72962 1.541208,-3.60639 2.861876,-6.63472 2.93482,-6.72962 0.07294,-0.0949 0.345512,-0.17256 0.605709,-0.17256 0.372426,0 0.518333,0.0808 0.685753,0.37962 0.116968,0.20879 1.466854,3.29924 2.999748,6.86766 l 2.787077,6.48805 0.620653,0.0364 c 1.249327,0.0733 1.260985,0.0826 1.214617,0.96874 l -0.04131,0.78942 -8.23124,0.0356 c -4.527181,0.0196 -8.273173,-0.006 -8.324427,-0.0575 z m 12.617972,-1.85421 c 0,-0.15514 -3.737986,-8.99324 -4.10343,-9.70216 -0.170048,-0.32987 -0.233526,-0.36479 -0.376449,-0.20707 -0.166725,0.184 -4.22513,9.74836 -4.22471,9.9563 1.15e-4,0.0569 1.958694,0.10353 4.352399,0.10353 3.051288,0 4.35219,-0.045 4.35219,-0.1506 z m 22.586793,1.77924 c -0.03776,-0.0985 -0.0525,-3.5647 -0.03275,-7.70255 l 0.0359,-7.52337 2.62513,-0.0431 c 3.465971,-0.0569 4.563867,0.18645 5.711404,1.26585 1.677118,1.57753 1.566495,4.68359 -0.219218,6.1552 -0.935574,0.77101 -1.800723,1.0017 -4.110538,1.09607 l -2.072472,0.0847 -0.06908,3.38207 -0.06908,3.38206 -0.865318,0.0411 c -0.612973,0.0291 -0.885339,-0.0111 -0.933969,-0.13805 z m 6.047327,-8.77718 c 1.106759,-0.48914 1.612324,-1.4289 1.443852,-2.68385 -0.204309,-1.5219 -1.606385,-2.22983 -4.254824,-2.14834 l -1.298904,0.04 -0.03793,2.41091 c -0.02086,1.326 -0.0037,2.50011 0.0382,2.60912 0.117343,0.30552 3.302346,0.12897 4.10961,-0.22781 z m 23.517384,8.77055 c -0.03636,-0.0949 -0.04995,-3.55807 -0.0302,-7.69592 l 0.0359,-7.52337 2.417884,0.007 c 2.148773,0.006 2.50246,0.0406 3.177789,0.30779 1.016757,0.40227 1.72718,1.01302 2.178914,1.87321 0.320394,0.6101 0.373297,0.87694 0.373538,1.88413 2.76e-4,1.24726 -0.250776,1.97234 -0.879773,2.54069 -0.402422,0.36362 -0.363984,0.70867 0.100352,0.90083 1.167711,0.48326 2.092071,2.01511 2.094231,3.47057 0.003,2.24155 -1.269659,3.69185 -3.690357,4.20435 -1.234231,0.2613 -5.680869,0.28483 -5.77827,0.0306 z m 5.68368,-1.82529 c 1.820436,-0.54014 2.417178,-2.71073 1.105523,-4.02123 -0.630046,-0.62949 -1.613214,-0.8831 -3.423551,-0.8831 h -1.494735 v 2.55381 2.5538 h 1.563817 c 0.97485,0 1.821852,-0.0766 2.248946,-0.20328 z m -0.758086,-7.1294 c 0.859854,-0.47427 1.22843,-1.08705 1.22843,-2.04233 0,-1.10093 -0.32355,-1.64799 -1.252067,-2.11698 -0.60263,-0.30439 -0.970071,-0.38635 -1.85664,-0.41413 l -1.105318,-0.0346 -0.03773,2.53862 -0.03773,2.53862 1.232534,-0.0702 c 0.947865,-0.054 1.370184,-0.14614 1.828527,-0.39895 z m 7.509231,8.95469 c -0.0363,-0.0949 -0.0499,-3.55807 -0.0302,-7.69592 l 0.0359,-7.52337 h 0.89807 0.89807 l 0.0691,3.10598 0.0691,3.10597 1.51981,0.0903 c 2.50279,0.14864 3.91601,0.86655 4.69267,2.38385 0.83245,1.62629 0.59499,3.6122 -0.58926,4.92822 -1.17213,1.30254 -2.66713,1.77126 -5.66209,1.77517 -1.34249,0.002 -1.85277,-0.0439 -1.90113,-0.17016 z m 5.13495,-2.00377 c 1.16708,-0.60697 1.75502,-1.8766 1.42908,-3.08598 -0.38906,-1.4436 -1.19611,-1.94298 -3.27692,-2.02767 l -1.41619,-0.0576 v 2.79258 2.79258 l 1.34711,-0.0588 c 1.02589,-0.0447 1.48297,-0.12942 1.91692,-0.35511 z m 5.92078,2.0104 c -0.0378,-0.0985 -0.0525,-3.5647 -0.0327,-7.70255 l 0.0359,-7.52337 h 0.89807 0.89807 v 7.66141 7.66141 l -0.86532,0.0411 c -0.61297,0.0291 -0.88534,-0.0111 -0.93397,-0.13805 z m 5.52479,-0.005 c -0.0368,-0.096 -0.0507,-3.56001 -0.031,-7.69786 l 0.0359,-7.52337 h 4.35219 4.35219 v 0.75924 0.75924 l -3.38504,0.0752 c -1.86177,0.0414 -3.40201,0.0879 -3.42277,0.10353 -0.0207,0.0156 -0.0207,1.13094 0,2.47859 l 0.0377,2.45027 3.16684,0.0372 c 2.05249,0.0241 3.23145,0.0907 3.35049,0.18945 0.10102,0.0838 0.18366,0.41662 0.18366,0.73969 0,0.32306 -0.0826,0.65592 -0.18366,0.73968 -0.11904,0.0987 -1.298,0.16537 -3.35049,0.18946 l -3.16684,0.0372 v 2.48479 2.48478 l 3.45412,0.0751 c 1.89977,0.0413 3.47277,0.0879 3.49556,0.10353 0.0228,0.0156 0.0228,0.38562 0,0.82218 l -0.0414,0.79375 -4.39032,0.0365 c -3.4379,0.0285 -4.40482,-0.001 -4.45717,-0.13805 z m 17.41123,0.0286 c -0.0483,-0.0781 1.48711,-3.57235 3.41208,-7.76494 l 3.49993,-7.6229 h 0.59602 0.596 l 3.51055,7.64525 c 1.93081,4.20489 3.47723,7.69911 3.43651,7.76494 -0.0897,0.14499 -1.58274,0.15662 -1.8041,0.014 -0.0866,-0.0558 -1.38434,-2.75703 -2.88386,-6.00277 -1.49951,-3.24575 -2.79914,-5.90136 -2.88807,-5.90136 -0.0889,0 -1.36377,2.63554 -2.83297,5.85675 -1.46922,3.22122 -2.73801,5.92342 -2.81956,6.0049 -0.18945,0.18928 -1.70608,0.19435 -1.82253,0.006 z m 36.63917,0.05 c -0.0507,-0.0506 -0.0921,-0.42214 -0.0921,-0.82562 0,-0.81701 0.0275,-0.83739 1.2272,-0.90953 l 0.60548,-0.0364 2.93345,-6.83315 2.93346,-6.83316 h 0.60054 0.60055 l 2.30966,5.3837 c 1.2703,2.96103 2.59986,6.05148 2.95456,6.86766 l 0.64491,1.48397 h 0.78827 c 0.43353,0 0.86286,0.0745 0.95405,0.16565 0.0912,0.0911 0.1658,0.42034 0.1658,0.73163 0,0.31129 -0.0746,0.64052 -0.1658,0.73163 -0.12517,0.12508 -2.15025,0.16565 -8.26685,0.16565 -4.45559,0 -8.14252,-0.0414 -8.19317,-0.092 z m 12.52346,-1.80606 c 0.0989,-0.17389 -4.21009,-10.12718 -4.36233,-10.07648 -0.16664,0.0555 -4.23105,9.58181 -4.24024,9.93843 -0.006,0.225 0.28708,0.24158 4.26873,0.24158 2.35122,0 4.30146,-0.0466 4.33384,-0.10353 z m 6.0643,1.73244 c -0.19498,-0.1948 -0.24065,-14.82552 -0.0472,-15.1302 0.0784,-0.12344 0.37107,-0.16686 0.9305,-0.13804 l 0.81617,0.042 0.0691,5.76341 c 0.044,3.66931 0.11928,5.77592 0.20725,5.79783 0.076,0.0189 2.23564,-2.59014 4.79923,-5.79793 l 4.66107,-5.83233 h 0.69282 0.69281 v 7.73674 7.73674 l -0.93261,-0.0408 -0.93261,-0.0408 -0.0691,-5.7288 c -0.0503,-4.1716 -0.11209,-5.72881 -0.22732,-5.72881 -0.087,0 -2.1962,2.54691 -4.68703,5.65979 -2.49082,3.11288 -4.59571,5.70542 -4.67751,5.7612 -0.23747,0.16191 -1.11404,0.12131 -1.29552,-0.06 z"
         id="path25"
         inkscape:connector-curvature="0" />
      <path
         style="fill:#211803;stroke-width:0.13810411"
         d="m 18.336712,203.97044 c -0.501461,-0.1077 -1.15429,-0.27947 -1.45073,-0.38171 l -0.538984,-0.18588 -0.04113,-0.84943 c -0.02262,-0.46719 -0.0046,-0.84944 0.04004,-0.84944 0.04465,0 0.311856,0.11702 0.593794,0.26004 0.880348,0.44657 2.560893,0.74601 3.806599,0.67825 1.767698,-0.0961 2.899002,-0.70296 3.422198,-1.83557 0.621128,-1.34462 0.07143,-2.8205 -1.327758,-3.56492 -0.473922,-0.25215 -0.83808,-0.30125 -2.556048,-0.34464 -1.101864,-0.0278 -2.081107,-0.11449 -2.176095,-0.19258 -0.220187,-0.18103 -0.225011,-1.10506 -0.0069,-1.32297 0.112314,-0.11221 0.769722,-0.16663 2.03793,-0.16868 2.141723,-0.003 2.677076,-0.1613 3.421857,-1.00881 1.057815,-1.20373 0.815222,-2.77785 -0.546796,-3.54802 -1.155003,-0.65312 -4.235474,-0.50146 -5.777298,0.28443 -0.304947,0.15543 -0.614493,0.24553 -0.687878,0.20022 -0.217296,-0.13418 -0.157006,-1.26521 0.08007,-1.50207 0.609282,-0.60875 3.729274,-1.13519 5.359057,-0.90425 3.844214,0.54473 5.206091,3.83695 2.70752,6.5452 -0.298565,0.32362 -0.542844,0.64742 -0.542844,0.71956 0,0.0721 0.188587,0.27046 0.41908,0.44072 0.583138,0.43075 1.21091,1.33517 1.392983,2.00683 0.247788,0.91409 0.177349,2.31886 -0.154977,3.09069 -0.52428,1.21766 -1.820927,2.1634 -3.425487,2.49846 -0.98568,0.20583 -2.931616,0.17438 -4.048194,-0.0654 z m 31.045635,-0.002 c -2.539662,-0.61397 -4.664904,-2.55668 -5.562548,-5.08481 -0.72437,-2.04011 -0.36438,-4.83438 0.860226,-6.67715 1.496782,-2.25234 3.924902,-3.51459 6.760822,-3.51459 3.714687,0 6.724602,2.18437 7.752904,5.62647 0.16846,0.5639 0.245755,1.26887 0.242166,2.2087 -0.0087,2.26801 -0.761096,3.9745 -2.447281,5.55033 -0.971814,0.90821 -2.248989,1.59045 -3.551707,1.89723 -1.099637,0.25896 -2.969627,0.25611 -4.054582,-0.006 z m 3.398806,-1.45447 c 1.670767,-0.35605 3.27077,-1.47418 4.077431,-2.84943 0.780322,-1.33035 1.068477,-3.20897 0.72232,-4.70915 -0.37768,-1.6368 -1.714354,-3.33431 -3.188085,-4.04871 -1.969217,-0.95459 -4.383081,-0.87424 -6.230374,0.2074 -0.749034,0.43857 -1.920428,1.66785 -2.302671,2.41645 -1.230712,2.41028 -0.788386,5.34537 1.08887,7.22531 1.562552,1.56478 3.706781,2.21112 5.832509,1.75813 z m 26.168452,1.45447 c -3.863502,-0.93401 -6.417757,-4.66289 -5.873263,-8.57422 0.553434,-3.97555 3.786828,-6.70696 7.931764,-6.70035 3.707155,0.006 6.74299,2.20926 7.749586,5.62449 0.359283,1.21899 0.324009,3.31782 -0.0754,4.48642 -0.881918,2.58034 -3.044946,4.54974 -5.678107,5.16984 -1.099637,0.25896 -2.969626,0.25611 -4.054582,-0.006 z m 3.398807,-1.45053 c 1.182181,-0.24556 2.369742,-0.90259 3.196302,-1.76839 1.180967,-1.23704 1.75123,-2.63379 1.748248,-4.28203 -0.0045,-2.49043 -1.312064,-4.57398 -3.53126,-5.62695 -1.777127,-0.84321 -3.975759,-0.79542 -5.782902,0.12571 -0.773116,0.39407 -2.040653,1.64106 -2.470877,2.43083 -2.568154,4.71441 1.559329,10.21782 6.840489,9.12083 z m 81.903958,1.45758 c -1.87223,-0.52443 -3.36685,-1.504 -4.37758,-2.86904 -0.71886,-0.97085 -1.04949,-1.67106 -1.36684,-2.89467 -0.24489,-0.94425 -0.34879,-1.0593 -0.95657,-1.0593 -0.76035,0 -0.75193,-0.0374 -0.79188,3.52244 l -0.0371,3.30648 -0.79444,0.0414 -0.79445,0.0414 v -7.60617 -7.60617 l 0.79445,0.0414 0.79444,0.0414 0.0371,3.30648 c 0.04,3.55988 0.0315,3.52244 0.79188,3.52244 0.6083,0 0.70493,-0.11149 0.95346,-1.10012 0.73103,-2.90783 2.98993,-5.13588 5.8857,-5.80528 1.05339,-0.24351 2.93658,-0.21529 3.9968,0.0599 3.43936,0.89271 5.70824,3.60253 5.90848,7.0568 0.20624,3.55762 -1.85202,6.59329 -5.29948,7.81609 -1.09335,0.3878 -3.66161,0.4877 -4.74397,0.18452 z m 3.65653,-1.51711 c 3.8286,-0.99635 5.76019,-5.11674 4.08642,-8.71699 -1.00987,-2.1722 -3.16267,-3.49532 -5.68714,-3.49532 -3.14356,0 -5.67586,2.13649 -6.19797,5.22919 -0.73642,4.36214 3.45352,8.1139 7.79869,6.98312 z m 37.06754,1.62807 -0.79445,-0.0498 -0.002,-5.6874 c -0.001,-3.12807 -0.0564,-5.77301 -0.12272,-5.87765 -0.0663,-0.10463 -0.19206,-0.14611 -0.27938,-0.0922 -0.0873,0.0539 -2.2409,2.70546 -4.78569,5.8923 l -4.62689,5.79425 -0.58366,-0.0423 -0.58365,-0.0423 v -7.52337 -7.52337 l 0.79294,-0.0413 0.79294,-0.0414 0.0361,5.83732 c 0.0319,5.15936 0.0611,5.84212 0.2515,5.87875 0.14147,0.0272 1.8186,-1.97087 4.88317,-5.8176 l 4.66769,-5.85902 0.6089,-0.0484 0.60889,-0.0484 v 7.69692 c 0,4.2333 -0.0156,7.68517 -0.0345,7.67081 -0.019,-0.0143 -0.39205,-0.0485 -0.82899,-0.0759 z M 26.834401,203.85928 c -0.04091,-0.10651 -0.05469,-0.43314 -0.03063,-0.72584 l 0.04375,-0.53218 0.890513,-0.069 0.890513,-0.069 2.964273,-6.87476 2.964272,-6.87476 0.492798,0.0416 0.492796,0.0416 2.30879,5.38369 c 1.269834,2.96104 2.597763,6.04864 2.950952,6.86135 l 0.642162,1.47765 0.853187,0.0408 0.853185,0.0408 v 0.69022 0.69022 l -8.121091,0.0356 c -6.864935,0.0301 -8.132596,0.006 -8.195469,-0.15804 z M 39.489595,202.288 c 0,-0.13434 -0.959471,-2.47935 -2.132157,-5.21114 -1.623293,-3.78149 -2.188912,-4.9669 -2.369961,-4.9669 -0.181749,0 -0.738588,1.18598 -2.362414,5.03158 -1.168537,2.76737 -2.093579,5.11239 -2.055648,5.21114 0.05462,0.14222 0.989454,0.17956 4.494572,0.17956 4.141184,0 4.425608,-0.0157 4.425608,-0.24424 z m 22.619173,1.67689 c -0.05407,-0.054 -0.09832,-3.47339 -0.09832,-7.59859 v -7.50036 h 2.61833 c 3.395099,0 4.358203,0.20656 5.521,1.18413 1.297073,1.09046 1.567105,3.68009 0.544571,5.22247 -0.443557,0.66907 -1.392638,1.34256 -2.25924,1.60322 -0.303962,0.0914 -1.485271,0.20574 -2.62513,0.25402 l -2.072471,0.0878 -0.06908,3.38206 -0.06908,3.38207 -0.696131,0.0407 c -0.382872,0.0224 -0.740374,-0.003 -0.794447,-0.0575 z m 6.102779,-8.70733 c 1.298947,-0.66539 1.761595,-2.10287 1.109778,-3.44816 -0.358937,-0.74082 -0.832775,-1.08456 -1.865448,-1.35331 -0.979551,-0.25491 -3.381367,-0.28414 -3.621651,-0.0441 -0.238843,0.23863 -0.232584,4.95484 0.0069,5.20562 0.132453,0.1387 0.573905,0.16288 1.894083,0.10374 1.528349,-0.0685 1.806034,-0.12047 2.47633,-0.46383 z m 23.366163,1.18711 v -7.60605 l 2.383342,0.0572 c 2.718285,0.0652 3.535509,0.27773 4.439123,1.15454 1.432741,1.39024 1.568064,3.77795 0.298124,5.26029 -0.268775,0.31373 -0.488681,0.60522 -0.488681,0.64776 0,0.0425 0.328581,0.28735 0.730179,0.54403 1.433353,0.91609 1.961283,1.92419 1.870173,3.57109 -0.0636,1.14983 -0.35472,1.86241 -1.040926,2.54802 -1.09306,1.0921 -2.441782,1.42343 -5.807992,1.42681 l -2.383342,0.002 z m 5.72194,5.8632 c 1.292751,-0.4401 2.007336,-1.60188 1.806854,-2.93762 -0.07272,-0.48453 -0.225485,-0.75896 -0.669333,-1.20242 -0.783406,-0.78271 -1.627679,-1.01928 -3.637666,-1.01928 h -1.563818 v 2.69185 2.69184 h 1.702447 c 1.209205,0 1.893396,-0.065 2.361516,-0.22437 z m -0.829814,-7.08578 c 0.906616,-0.4385 1.239323,-0.9717 1.302412,-2.08725 0.09867,-1.74461 -0.783932,-2.56309 -3.048785,-2.82728 -0.435569,-0.0508 -0.948505,-0.0531 -1.139859,-0.005 l -0.347917,0.0873 v 2.52816 c 0,1.3905 0.04663,2.57646 0.103623,2.63548 0.216333,0.22404 2.477047,-0.0152 3.130526,-0.33123 z m 7.634814,8.7366 c -0.0507,-0.0506 -0.0921,-3.47029 -0.0921,-7.59928 v -7.50725 l 0.79445,0.0414 0.79444,0.0414 0.0691,3.10598 0.0691,3.10598 1.58889,0.0894 c 1.96317,0.11048 2.95142,0.44721 3.89178,1.32603 0.91256,0.85284 1.26753,1.81222 1.1893,3.2143 -0.12051,2.15982 -1.44368,3.57213 -3.8177,4.07487 -0.92763,0.19644 -4.31685,0.27738 -4.48722,0.10716 z m 4.39806,-1.57884 c 0.69291,-0.17433 1.62799,-0.91422 1.96204,-1.55249 0.29523,-0.56413 0.3005,-1.95274 0.01,-2.50544 -0.26764,-0.50833 -0.71266,-0.92265 -1.34961,-1.25649 -0.37794,-0.19808 -0.80051,-0.25438 -1.93431,-0.25772 l -1.45073,-0.004 -0.0376,2.68778 c -0.0207,1.47828 -0.007,2.76726 0.0302,2.86441 0.0862,0.22444 1.91127,0.2404 2.77054,0.0242 z m 6.66133,1.58504 c -0.0541,-0.054 -0.0983,-3.47339 -0.0983,-7.59859 v -7.50036 h 0.83017 0.83017 l -0.0357,7.55788 -0.0357,7.55788 -0.69613,0.0407 c -0.38287,0.0224 -0.74037,-0.003 -0.79444,-0.0575 z m 5.49242,-0.0847 c -0.0368,-0.096 -0.0507,-3.49795 -0.031,-7.55988 l 0.0359,-7.38533 h 4.21403 4.21402 l 0.0421,0.65571 0.0421,0.6557 h -3.3066 c -2.64385,0 -3.33835,0.0382 -3.46495,0.19062 -0.10927,0.13155 -0.14662,0.95503 -0.12054,2.65734 l 0.0378,2.46672 3.31595,0.069 3.31596,0.069 v 0.69022 0.69022 l -3.31596,0.069 -3.31595,0.069 v 2.62283 2.62282 l 3.45412,0.069 3.45412,0.069 v 0.69022 0.69022 l -4.25214,0.0365 c -3.32729,0.0286 -4.26668,-0.001 -4.31901,-0.13804 z m 17.34461,0.092 c 0,-0.0505 1.5664,-3.50408 3.48088,-7.67474 l 3.4809,-7.583 0.4904,0.0413 0.4904,0.0412 3.46734,7.52337 c 1.90705,4.13785 3.44261,7.56996 3.41238,7.6269 -0.0933,0.1757 -1.51446,0.11658 -1.65926,-0.069 -0.074,-0.0949 -1.33379,-2.78158 -2.79947,-5.97038 -1.46566,-3.18881 -2.7188,-5.85729 -2.78475,-5.92996 -0.0749,-0.0826 -0.19451,-0.0567 -0.31887,0.069 -0.10943,0.11063 -1.40297,2.84123 -2.87452,6.06799 l -2.67556,5.86685 -0.85493,0.0411 c -0.47022,0.0226 -0.85494,-1.8e-4 -0.85494,-0.0506 z m 36.64095,-0.64507 0.0418,-0.72583 0.78297,-0.041 c 0.43063,-0.0226 0.84301,-0.11576 0.9164,-0.20707 0.0734,-0.0913 1.32976,-2.96139 2.79193,-6.37796 3.26476,-7.6286 3.07654,-7.24728 3.57723,-7.24728 0.21713,0 0.45466,0.0776 0.52785,0.17255 0.0732,0.0949 1.39754,3.12323 2.94296,6.72962 1.54543,3.60638 2.86859,6.63471 2.94037,6.72962 0.0753,0.0996 0.43743,0.17255 0.85658,0.17255 0.86585,0 1.07116,0.18736 1.01061,0.92216 l -0.0435,0.5273 -8.19351,0.0356 -8.19353,0.0356 z m 12.61346,-0.93074 c 0.13606,-0.21997 -4.24756,-10.27833 -4.50015,-10.32569 -0.16685,-0.0313 -0.7289,1.16863 -2.38264,5.08659 -1.19036,2.82014 -2.12984,5.18321 -2.08774,5.25126 0.10714,0.1732 8.8632,0.16133 8.97053,-0.0122 z"
         id="path23"
         inkscape:connector-curvature="0" />
    </g>
  </g>
</svg>
