		<svg version="1.1" id="svg_map" viewBox="10 295 260 230">

									<!-- Ивьевский район -->
									<path class="svg_region" title="Ивьевский район" d="M164.5,379.25c0,0.75-1.5,1.75-2,2.5S162,384,162,384
													s1.5,2.75,0.25,3.25S162,389,162,389l1.5,2.25l1.5,1.5c0,0,0,3.5,0.25,4.25s2.75,1.5,2.75,1.5s0,0.75,0,2.25s0.25,2.75,0.25,3.75
													s1.25,2.25,2,2.25s0.5-3.5,2.25-1.75s2.75,1.75,2.75,1.75l1.5-2.25h1.5l2.75,0.25c0,0,1.5,2.25,4.25,2.25s2.25,1.75,2.25,1.75
													l2.75,1.25c0,0,2-2,2.5-1.25s2.5,1.5,2.5,1.5l3.806-1.803l0.645-5.247l4.6-0.6l4.2-2.4l0.8-3.9l3,0.2l0.2-2.7l-5.6-7.5L203,385.9
													l-5.1,3.8l-0.4-2.7l0.5-7.8l-0.7-2.101l-2.9,1.4l-1.9-1.5l0.417-2.5H191.5L191,373l-3.5-1l-1.75-2c0,0-2.5-1.5-2.5-2.75
													s-2.5-0.25-2.5-0.25h-3.343l0.993,1.4l-4.6,8.5l-8.01,0.965C165.379,378.102,164.5,378.674,164.5,379.25z"></path>
									<text class="svg_text" transform="matrix(1 0 0 1 181.056 390.676)" id="t_ivyer">Ивье</text>
									<circle class="svg_c1" cx="179.056" cy="393.676" r="2" id="c_ivyer"></circle>
									<!-- <use class="use" xlink:href="#c_ivyer"></use>
											<use class="use" xlink:href="#t_ivyer"></use>
									 -->

									<!-- Кореличский район -->

									<path class="svg_region" title="Кореличский район" d="M214.2,434.7l4.3-0.8l-3.9-4.101l-0.8-4.199l-2.5-2.5l-0.505-0.215
													 c-1.439,0.704-3.981,1.551-4.545,2.114c-0.75,0.75-4,1.25-4,1.25s-0.75-1-0.75-0.25s-1.75,1.75-1.75,1.75s-1.25-2-1.5-1.25
													 s0.5,2.5-1,2.25s-4-2-4-2s-0.5,0.5-1,1.5S190.5,433,190.5,433l-2.75,2.5l-2.25-1c0,0-2,1.25-1,2.25s1.5,5.75,1.5,5.75l0.5,1.25
													 c0,0,2,1.75,1.5,2.5c-0.234,0.352-0.964,0.868-1.673,1.318L194.9,448l8.6,1.9l4.9-3.4l4.2,0.2l4.6-3.601L217,437L214.2,434.7z"></path>
									<text class="svg_text" transform="matrix(1 0 0 1 200.369 436.113)" id="t_korelichi">Кореличи</text>
									<circle class="svg_c1" cx="197.369" cy="434.113" r="2" id="c_korelichi"></circle>
									<!-- <use class="use" xlink:href="#c_korelichi"></use>
											<use class="use" xlink:href="#t_korelichi"></use> -->


									<!-- Новогрудский район -->
									<path class="svg_region" title="Новогрудский район" d="M205.9,420.8l-2.7-3.899l-2.5-7.7l-1.7-0.3l0.056-0.453l-3.806,1.803
														c0,0-2-0.75-2.5-1.5s-2.5,1.25-2.5,1.25l-2.75-1.25c0,0,0.5-1.75-2.25-1.75s-4.25-2.25-4.25-2.25l-2.75-0.25h-1.5l-1.5,2.25
														c0,0-1,0-2.75-1.75s-1.5,1.75-2.25,1.75c-0.406,0-0.954-0.37-1.375-0.865c-0.388,0.146-0.86,0.453-1.125,1.115
														c-0.5,1.25,1.25,2.75-2,3.75s-3.25,0.75-3.25,2s0.75,2.25,0.75,2.25l1,1.5c0,0,1.25,1.5-1,1.75S160,418.5,160,418.5s1.5,1.25,1,2
														s-2.25,3.25-2.25,3.25S158.25,426,159,426s2,0.25,2,1s0,3,0,3l3.25-0.75l0.75-1c0,0,3-1.5,2.75-0.5s-0.75,2.5-0.75,2.5
														s5.25-1.25,4.25-0.75s-2.75,1.25-3,2.25s-0.25,2.5-0.25,2.5l3.5-0.25l0.75,1.75l2,0.5l0.75,1l2-0.25l0.5,2.25c0,0,0.75,1-0.25,2.25
														c-0.876,1.095-1.944,1.807-2.195,2.471l4.545,0.43l3.4,3l3.327,0.168c0.709-0.45,1.439-0.967,1.673-1.318c0.5-0.75-1.5-2.5-1.5-2.5
														l-0.5-1.25c0,0-0.5-4.75-1.5-5.75s1-2.25,1-2.25l2.25,1l2.75-2.5c0,0,1.25-3.75,1.75-4.75s1-1.5,1-1.5s2.5,1.75,4,2
														s0.75-1.5,1-2.25s1.5,1.25,1.5,1.25s1.75-1,1.75-1.75s0.75,0.25,0.75,0.25s3.25-0.5,4-1.25c0.564-0.563,3.105-1.41,4.545-2.114
														L205.9,420.8z"></path>
									<text class="svg_text" transform="matrix(1 0 0 1 181.681 422.801)" id="t_novogrudok">Новогрудок</text>
									<circle class="svg_c1" cx="181.681" cy="427.801" r="2" id="c_novogrudok"></circle>
									<!-- <use class="use" xlink:href="#c_novogrudok"></use>
											<use class="use" xlink:href="#t_novogrudok"></use> -->

									<!-- Лидский район -->
									<path class="svg_region" title="Лидский район" d="M141,434c0,0.75,1.25,3,1.25,3l1.25,1.75l-0.25-2.5l1.75-1.75l0.25-2
														c0,0,2.75-1,3.75-1.5s2.25-4.25,2.25-4.25l4-2.5c0,0-0.75-1.75,0-1.75s3.5,1.25,3.5,1.25s1.75-2.5,2.25-3.25s-1-2-1-2
														s1,0,3.25-0.25s1-1.75,1-1.75l-1-1.5c0,0-0.75-1-0.75-2.25s0-1,3.25-2s1.5-2.5,2-3.75c0.265-0.662,0.737-0.969,1.125-1.115
														c-0.357-0.419-0.625-0.926-0.625-1.385c0-1-0.25-2.25-0.25-3.75s0-2.25,0-2.25s-2.5-0.75-2.75-1.5s-0.25-4.25-0.25-4.25l-1.5-1.5
														L162,389h-2l-2.75,1.75L156,389.5l-0.75-1.25l-0.5-3.75l-1.75,1.25v3l-2.5,2.75c0,0,0,0-4,0s-0.75,2.5-0.75,2.5l-2.5,2.25
														L141.5,397c0,0-1.25,2-1.75,2.75S138,401.5,138,401.5l-1.5,0.75l-4.25-0.5l1,1.25c0,0-1.315,1.912-2.457,3.092L133,408.5
														c0,0-0.75,1.75-0.25,2.75s-1.75,2.25-1,2.25s-0.5,2.5-0.25,3.25s2.25,2.25,4.75,0.5c-1,2,2.75,3.75,2.75,3.75l-1.25,1.25
														c0,0-0.5,1.5-1.25,1.5s-1.5,0.75-1.25,2.25s3,0.5,3,0.5s-0.75,1.75,0.25,1.75s1,2.25,1,3.25c0,0.536-0.144,1.502-0.277,2.284
														C140.015,433.641,141,433.551,141,434z"></path>
									<text class="svg_text" transform="matrix(1 0 0 1 142.869 412.488)" id="t_lidar">Лида</text>
									<circle class="svg_c1" cx="150.869" cy="403.488" r="2" id="c_lidar"></circle>
									<!-- <use class="use" xlink:href="#c_lidar"></use>
											<use class="use" xlink:href="#t_lidar"></use> -->

									<!-- Слонимский район -->
									<path class="svg_region" title="Слонимский район" d="M159.25,462.75l-4-1.25c0,0-0.75-2.5-1-3.25s-3.25-0.5-3.25-0.5
														 l-0.5-2c0,0-1,1.5-2,1.75s-1.25,1-1.25,1.75s-1.25,0.5-1.25,0.5l-3.5-0.25l-0.154-0.154L141,460.5l-2.25,1.75l0.25,2.5l-2.25,1.25
														 l1.5,3.75l3.75,0.75l1,2.5l-0.75,1.75L139.5,474l-2.75-1c0,0-1-0.25-2.75-0.5s-0.25-1.5-2,1s-3.25,3.5-3.25,3.5s0.75,3,0.25,3.75
														 s-0.5,2.5-0.5,2.5l1.5,2.5l-0.892,3.389l0.392,1.262l1.4,0.8l3.3-1.2l-1.3,3.8l3.4,2.4l5.1-1l2.6-2.5l1.6,1.3l0.2,1.4l2.5,1.6
														 l1.6-0.5l-1.2-4l0.7-1.4l-0.9-2.399l1.1-1.4l3.7,0.7l0.8-3.6l9.7-8.2l-1.1-2.7l1.8-5.2l-2.3-1.8l0.9-2.4l0.247-1.754L162.5,462.5
														 L159.25,462.75z"></path>
									<text class="svg_text" transform="matrix(1 0 0 1 156.181 477.176)" id="t_slonim">Слоним</text>
									<circle class="svg_c1" cx="151.181" cy="472.176" r="2" id="c_slonim"></circle>
									<!-- <use class="use" xlink:href="#c_slonim"></use>
											<use class="use" xlink:href="#t_slonim"></use> -->


									<!-- Свислочский район -->

									<path class="svg_region" title="Свислочский район" d="M109,487l-2.25-2.25L104.5,484l-0.75-2.25l-0.75-2
															c0,0,1.5-2.5-0.75-2.5s-5.75-2-5.75-2l-1.25-1.5h-2.5c0,0-1.25,1.5-2.5,1.5c-0.869,0-2.701-2.171-3.74-3.497
															c-2.463,0.029-5.51,0.497-5.51,0.497s0,3.25-0.75,3s0,2.75-0.75,2.25c-0.362-0.241-2.9-0.225-5.104-0.099L72.5,490.6l2,8.2H80
															l3.1-4.3l3,2l1.1,4.8l4.9,0.7l3-4.8l3.4,4.8l4.7,3.3l2.7-1l-0.2-2.8l3.5-5l4.3-4l0.9-1.4l-1.39-2.175l-1.51-1.175L109,487z"></path>
									<text class="svg_text" transform="matrix(1 0 0 1 83.431 493.363)" id="t_svisloch">Свислочь</text>
									<circle class="svg_c1" cx="85.431" cy="480.363" r="2" id="c_svisloch"></circle>
									<!-- <use class="use" xlink:href="#c_svisloch"></use>
											<use class="use" xlink:href="#t_svisloch"></use> -->


									<!-- Сморгонский район -->
									<path class="svg_region" title="Сморгонский район" d="M227.9,338.2l-1.9-6.4l-2.1,1.3l-1.9-1.6l-1.9-6.4L214,316.4
															l-0.986,0.191c-1.324,0.758-2.64,1.408-3.264,1.408c-1.5,0-3.75-0.25-3.75-0.25l-1.5,0.75l1.75,1.5l-0.5,2.75l2,0.25l-0.25,3.25
															l4.5,2.5l-1.25,3.5l-2.75-2l-2.75,3l-4.5,0.25c0,0,1.75,2.25-0.5,3.75s-0.75,2.5-0.75,2.5l-0.75,0.25v3.25l0.25,2.5l-1.25,1.25
															l2.25,2.75c0,0-2.25,0.5-1.5,1s3,4.5,3,4.5l-1.5,1.5l-0.5,4l2,3l-0.5,1.5c0,0-0.666,2.374-0.25,1.75
															c-0.171,0.257,1.04,1.567,1.917,2.209L203.2,369l4.3,2.1l3.3-0.8l5.9-7l4.9-12.2l3.6-3.199l-1.3-7.801L227.9,338.2z"></path>
									<text class="svg_text" transform="matrix(1 0 0 1 213.931 342.113)" id="t_smorgon">Сморгонь</text>
									<circle class="svg_c1" cx="210.931" cy="342.113" r="2" id="c_smorgon"></circle>
									<!-- <use class="use" xlink:href="#c_smorgon"></use>
											<use class="use" xlink:href="#t_smorgon"></use> -->

									<!-- Островецкий район -->
									<path class="svg_region" title="Островецкий район" d="M181,338.25l1.75,0.75l3.25,0.75h2c0,0,0.75,0.5,1.75,0.25
															 s1.5-1.5,1.5-1.5s0.5,1.75,2.25,0.75s4.5,1,4.5,1l1.5-0.5c0,0-1.5-1,0.75-2.5s0.5-3.75,0.5-3.75l4.5-0.25l2.75-3l2.75,2l1.25-3.5
															 l-4.5-2.5l0.25-3.25l-2-0.25l0.5-2.75l-1.75-1.5l1.5-0.75c0,0,2.25,0.25,3.75,0.25c0.624,0,1.94-0.65,3.264-1.408L210.4,317.1
															 l-1.4-1.5l-0.5-5.899l-5.9-11.8l-8.8,7.8l-4.9-1.5l-7.8,7.5l-2.9,10.8l-0.7,7.3l1.324,8.134L180.5,339L181,338.25z"></path>
									<text class="svg_text" transform="matrix(1 0 0 1 187.494 328.176)" id="t_ostrovets">Островец</text>
									<circle class="svg_c1" cx="190.494" cy="333.176" r="2" id="c_ostrovets"></circle>
									<!-- <use class="use" xlink:href="#c_ostrovets"></use>
											<use class="use" xlink:href="#t_ostrovets"></use> -->

											<!-- Щучинский район -->
									<path class="svg_region" title="Щучинский район" d="M104,401.25l-3.25,1l-1,3l1.25,2.25l1.75-1.25c0,0,0,4.75,1.5,6.5
																c-1,1.25-3.5,2.25-3.5,2.25l-0.5,4.5c0,0,3.5,0.5-0.25,5.5c1.25,3.25,3.75,3.75,3.75,3.75s-2,4.75-0.5,4.75s4.25,1.5,4.25,1.5
																s-2,2.75,3.25,2.25c0-1.5,0-3,0-3H116l1.25,3l1.5,0.25l0.25,1.25l1.5,1.75c0,0,1.25,3.75,2.5,3s3.5-1.5,3.5-1.5l-0.25-2
																c0,0,1.5,0.25,3,0.25s3.25-1,3.25-1l3.75,2.25c0,0,0.25-1.5,0-2.25s-0.25-3.5-0.25-3.5l3-0.75c0,0,0.5-2.5,0.5-3.5s0-3.25-1-3.25
																s-0.25-1.75-0.25-1.75s-2.75,1-3-0.5s0.5-2.25,1.25-2.25s1.25-1.5,1.25-1.5L139,421c0,0-3.75-1.75-2.75-3.75
																c-2.5,1.75-4.5,0.25-4.75-0.5s1-3.25,0.25-3.25s1.5-1.25,1-2.25s0.25-2.75,0.25-2.75l-2.207-2.408
																c-0.509,0.526-0.984,0.908-1.293,0.908c-1,0-5.25-1.5-6.5-2.25s0-2.25,0-2.25s0.5-1.75-0.25-2s-1.25-1.75-2-2.75s1-1.25,1-1.25
																l1.75-4l0.183-2.196L117.5,393.3l-3.7-3.399l-9.191,6.065l1.141,1.284L104,401.25z"></path>
									<text class="svg_text" transform="matrix(1 0 0 1 118.056 422.926)" id="t_schuchin">Щучин</text>
									<circle class="svg_c1" cx="123.056" cy="426.926" r="2" id="c_schuchin"></circle>
									<!-- <use class="use" xlink:href="#c_schuchin"></use>
											<use class="use" xlink:href="#t_schuchin"></use> -->

									<!-- Ошмянский район -->
									<path class="svg_region" title="Ошмянский район" d="M183.25,367.25c0,1.25,2.5,2.75,2.5,2.75l1.75,2l3.5,1l0.5,1.5h1.417
																l0.183-1.1l5.9-2l1.9-1.5l1.768-0.691c-0.877-0.642-2.088-1.952-1.917-2.209c-0.416,0.624,0.25-1.75,0.25-1.75l0.5-1.5l-2-3l0.5-4
																l1.5-1.5c0,0-2.25-4-3-4.5s1.5-1,1.5-1l-2.25-2.75l1.25-1.25l-0.25-2.5V340l-0.75,0.25c0,0-2.75-2-4.5-1s-2.25-0.75-2.25-0.75
																s-0.5,1.25-1.5,1.5s-1.75-0.25-1.75-0.25h-2l-3.25-0.75l-1.75-0.75l-0.5,0.75l-1.676-1.066l0.076,0.467l-5.1,4.899l-7.1,14.4
																l2,0.899l2.4-0.5l6.307,8.9h3.343C180.75,367,183.25,366,183.25,367.25z"></path>
									<text class="svg_text" transform="matrix(1 0 0 1 190.119 360.051)" id="t_oshmyany">Ошмяны</text>
									<circle class="svg_c1" cx="188.119" cy="351.051" r="2" id="c_oshmyany"></circle>
									<!-- <use class="use" xlink:href="#c_oshmyany"></use>
											<use class="use" xlink:href="#t_oshmyany"></use> -->

									<!-- Гродненский район -->
									<path class="svg_region" title="Гродненский район" d="M68,441.25l4,1h3.75l1.5,1l2.5-0.75l1.5-1.75l1,1.5l2-0.75l1.5-1
																 c0,0,0.25-6.25-0.5-6.5s1.25-2.25,1.25-2.25l1.5-1.5l4.25,1.75l3.5,1.25l-1-2.5c0,0,2,0,2,0.75s2.5,2.5,2.5,2.5h2l1.558-0.779
																 c-0.513-1.007,0.942-4.471,0.942-4.471s-2.5-0.5-3.75-3.75c3.75-5,0.25-5.5,0.25-5.5l0.5-4.5c0,0,2.5-1,3.5-2.25
																 c-1.5-1.75-1.5-6.5-1.5-6.5L101,407.5l-1.25-2.25l1-3l3.25-1l1.75-4l-1.141-1.284L103.8,396.5l-7.9-6.6l-10.7,0.5l-5.8-2.5
																 l-7.4,1.5l-1.2,3.899l-5.3-2.7l-9.9-0.899l2.5,20.9l8.1,32.899l0.661,2.229l0.639-0.479L68,441.25z"></path>
									<text class="svg_text" transform="matrix(1 0 0 1 71.566 405.676)" id="t_grodno">Гродно</text>
									<circle class="svg_c1" cx="71.566" cy="412.676" r="3" id="c_grodno"></circle>
									<!-- <use class="use" xlink:href="#c_grodno"></use>
											<use class="use" xlink:href="#t_grodno"></use> -->


									<!-- Вороновский район -->
									<a xlink:href="http://voronovo.grodno-region.by" xlink:title="" id="r_voronovo" target="_blank">
										<path class="svg_region" title="Вороновский район" d="M121.75,396.5c0,0-1.75,0.25-1,1.25s1.25,2.5,2,2.75s0.25,2,0.25,2
																	s-1.25,1.5,0,2.25s5.5,2.25,6.5,2.25s3.75-4,3.75-4l-1-1.25l4.25,0.5l1.5-0.75c0,0,1.25-1,1.75-1.75s1.75-2.75,1.75-2.75l1.75-0.75
																	l2.5-2.25c0,0-3.25-2.5,0.75-2.5s4,0,4,0l2.5-2.75v-3l1.75-1.25l0.5,3.75l0.75,1.25l1.25,1.25L160,389h2c0,0-1-1.25,0.25-1.75
																	S162,384,162,384s0-1.5,0.5-2.25s2-1.75,2-2.5c0-0.576,0.879-1.148,1.29-1.385l-0.29,0.035v-3.7l1-6.3L165,363.6l-4.7-2.5
																	l-6.8,6.301l-4.8,0.699L145,374.7l-6.1,3.7l-10-1.2l-6.6,7.3l4.9,4.1l-3.517,1.704L123.5,392.5L121.75,396.5z"></path>
										<text class="svg_text" transform="matrix(1 0 0 1 150.494 373.738)" id="t_voronovo">Вороново</text>
										<circle class="svg_c1" cx="150.494" cy="377.738" r="2" id="c_voronovo"></circle>
										<!-- <use class="use" xlink:href="#c_voronovo"></use>
											<use class="use" xlink:href="#t_voronovo"></use> -->


										<!-- Дятловский район -->

										<path class="svg_region" title="Дятловский район" d="M177.25,441.5c1-1.25,0.25-2.25,0.25-2.25L177,437l-2,0.25l-0.75-1
																	 l-2-0.5L171.5,434l-3.5,0.25c0,0,0-1.5,0.25-2.5s2-1.75,3-2.25s-4.25,0.75-4.25,0.75s0.5-1.5,0.75-2.5s-2.75,0.5-2.75,0.5l-0.75,1
																	 L161,430c0,0,0-2.25,0-3s-1.25-1-2-1s-0.25-2.25-0.25-2.25s-2.75-1.25-3.5-1.25s0,1.75,0,1.75l-4,2.5c0,0-1.25,3.75-2.25,4.25
																	 s-3.75,1.5-3.75,1.5l-0.25,2l-1.75,1.75l0.25,2.5l-1.25-1.75c0,0-1.25-2.25-1.25-3c0-0.449-0.985-0.359-1.777-0.216
																	 C139.107,434.46,139,435,139,435l-3,0.75c0,0,0,2.75,0.25,3.5c0.083,0.251,0.109,0.586,0.108,0.921L139,442l-1,2.75l-0.25,3.25
																	 c0,0-0.25,2.25-0.25,3.5s-0.25,3.75,0,4.5s2.75,1.25,2.75,1.25l2.096,2.096L142.75,459l-0.404,0.346l0.154,0.154l3.5,0.25
																	 c0,0,1.25,0.25,1.25-0.5s0.25-1.5,1.25-1.75s2-1.75,2-1.75l0.5,2c0,0,3-0.25,3.25,0.5s1,3.25,1,3.25l4,1.25l3.25-0.25l0.847-0.154
																	 L164,457.7l8.2-14l2.855,0.271C175.306,443.307,176.374,442.595,177.25,441.5z"></path>
										<text class="svg_text" transform="matrix(1 0 0 1 160.306 444.176)" id="t_dyatlovo">Дятлово</text>
										<circle class="svg_c1" cx="155.306" cy="440.176" r="2" id="c_dyatlovo"></circle>
										<!-- <use class="use" xlink:href="#c_dyatlovo"></use>
											<use class="use" xlink:href="#t_dyatlovo"></use> -->


										<!-- Зельвенский район -->
										<path class="svg_region" title="Зельвенский район" d="M128.5,483.25c0,0,0-1.75,0.5-2.5s-0.25-3.75-0.25-3.75
																		s1.5-1,3.25-3.5s0.25-1.25,2-1s2.75,0.5,2.75,0.5l2.75,1l2.75,0.75L143,473l-1-2.5l-3.75-0.75l-1.5-3.75l2.25-1.25l-0.25-2.5
																		l2.25-1.75l1.346-1.154l-2.096-2.096c0,0-2.5-0.5-2.75-1.25c0,0-0.75-1.75-2.5,0.5s-0.5,4-1.75,4s-2-1.75-2-1.75
																		s-2.25-0.25-2.75,0.5s-2,0.25-2,0.25s-1.25-1-2-1.25s-1.75-1.5-1.75-1.5l-1.75,1.5c0,0,0,1.75-1.25,1.25s-2.25,0-2.25,0l-2.5,0.25
																		l-0.936-0.208l0.436,0.708l-0.436-0.708l-1.314-0.292l-3-0.25c0,0,1,3.75-1.5,3s-1.25,1-0.75,1.75s4.25,1.75,4.25,1.75l0.75,1.75
																		l1.25,1l-0.25,2c0,0-0.5,1.5-0.25,2.25s3,1,3,1s1.5-0.25,1,1.5s-0.25,5.5-0.25,5.5l1,2.5l0.202,4.045l6.198-0.845l3.3-1.601
																		l1.408,4.539L130,485.75L128.5,483.25z"></path>
										<text class="svg_text" transform="matrix(1 0 0 1 125.494 468.176)" id="t_zelva">Зельва</text>
										<circle class="svg_c1" cx="123.494" cy="470.176" r="2" id="c_zelva"></circle>
										<!-- <use class="use" xlink:href="#c_zelva"></use>
											<use class="use" xlink:href="#t_zelva"></use> -->


										<!-- Мостовский район -->
										<path class="svg_region" title="Мостовский район" d="M91.5,448l3,0.25c0,0,2.5,0.5,2.25-0.25S96,446.25,96,446.25l3-2.5
																		 l3.25,1.75l1.5,2c0,0-1,1.25-1,2s1,2.75,1,2.75l3,1.25l2.25,1.75l3.5,1.75l1.564,2.542L115,459.75l2.5-0.25c0,0,1-0.5,2.25,0
																		 s1.25-1.25,1.25-1.25l1.75-1.5c0,0,1,1.25,1.75,1.5s2,1.25,2,1.25s1.5,0.5,2-0.25s2.75-0.5,2.75-0.5s0.75,1.75,2,1.75
																		 s0-1.75,1.75-4s2.5-0.5,2.5-0.5c-0.25-0.75,0-3.25,0-4.5s0.25-3.5,0.25-3.5l0.25-3.25l1-2.75l-2.642-1.829
																		 c0,0.665-0.108,1.329-0.108,1.329l-3.75-2.25c0,0-1.75,1-3.25,1s-3-0.25-3-0.25l0.25,2c0,0-2.25,0.75-3.5,1.5s-2.5-3-2.5-3
																		 l-1.5-1.75l-0.25-1.25l-1.5-0.25l-1.25-3h-5.25c0,0,0,1.5,0,3c-5.25,0.5-3.25-2.25-3.25-2.25s-2.75-1.5-4.25-1.5
																		 c-0.218,0-0.354-0.108-0.442-0.279L101.25,434h-2c0,0-2.5-1.75-2.5-2.5s-2-0.75-2-0.75l1,2.5l-3.5-1.25L88,430.25l-1.5,1.5
																		 c0,0-2,2-1.25,2.25s0.5,6.5,0.5,6.5l-1.5,1l-0.044,0.017L84,446.25l2.25,0.5L86,448.5c0,0,0.309,0.005,0.53,0.337l3.72,0.413
																		 L91.5,448z"></path>
										<text class="svg_text" transform="matrix(1 0 0 1 116.494 450.988)" id="t_mosty">Мосты</text>
										<circle class="svg_c1" cx="110.494" cy="444.988" r="2" id="c_mosty"></circle>
										<!-- <use class="use" xlink:href="#c_mosty"></use>
											<use class="use" xlink:href="#t_mosty"></use> -->

										<!-- Берестовицкий район -->
										<path title="Берестовицкий район" class="svg_region" d="M79.5,477.5c0.75,0.5,0-2.5,0.75-2.25s0.75-3,0.75-3
																			s3.25-0.5,5.75-0.5s0.5-2.75-2-3.5s0.5-1.75,0.5-1.75s0.25-1.75,0.5-2.75s-0.25-3.25-0.25-3.25s2-4,2-4.75s-2-3.25-1.25-3.25
																			s0.5-1.5,0.5-2.75S86,448.5,86,448.5l0.25-1.75l-2.25-0.5l0.206-4.733l-1.956,0.733l-1-1.5l-1.5,1.75l-2.5,0.75l-1.5-1H72l-4-1
																			l-0.5,4l-0.639,0.479L75,473.2l-0.604,4.201C76.6,477.275,79.138,477.259,79.5,477.5z"></path>
										<text class="svg_text" transform="matrix(1 0 0 1 18.431 460.926)" id="t_berestovitsa">Берестовица</text>
										<circle class="svg_c1" cx="78.431" cy="459.926" r="2" id="c_berestovitsa"></circle>
										<!-- <use class="use" xlink:href="#c_berestovitsa"></use>
											<use class="use" xlink:href="#t_berestovitsa"></use> -->

										<!-- Волковысский район -->
										<path class="svg_region" title="Волковысский район" d="M117,480.5c0,0-0.25-3.75,0.25-5.5s-1-1.5-1-1.5s-2.75-0.25-3-1
																			 s0.25-2.25,0.25-2.25l0.25-2l-1.25-1l-0.75-1.75c0,0-3.75-1-4.25-1.75s-1.75-2.5,0.75-1.75s1.5-3,1.5-3l3,0.25l1.314,0.292
																			 L112.5,457l-3.5-1.75l-2.25-1.75l-3-1.25c0,0-1-2-1-2.75s1-2,1-2l-1.5-2L99,443.75l-3,2.5c0,0,0.5,1,0.75,1.75
																			 s-2.25,0.25-2.25,0.25l-3-0.25l-1.25,1.25l-3.72-0.413c0.123,0.185,0.22,0.467,0.22,0.913c0,1.25,0.25,2.75-0.5,2.75
																			 s1.25,2.5,1.25,3.25s-2,4.75-2,4.75s0.5,2.25,0.25,3.25s-0.5,2.75-0.5,2.75s-3,1-0.5,1.75s4.5,3.5,2,3.5
																			 c-0.079,0-0.16,0.002-0.24,0.003c1.039,1.326,2.871,3.497,3.74,3.497c1.25,0,2.5-1.5,2.5-1.5h2.5l1.25,1.5c0,0,3.5,2,5.75,2
																			 s0.75,2.5,0.75,2.5l0.75,2l0.75,2.25l2.25,0.75L109,487l2.5,0.75l1.51,1.175l-0.91-1.425l2.8-2.7l2.9,2.3l0.402-0.055L118,483
																			 L117,480.5z"></path>
										<text class="svg_text" transform="matrix(1 0 0 1 47.744 471.988)" id="t_volkovysk">Волковыск</text>
										<circle class="svg_c1" cx="102.744" cy="467.988" r="2" id="c_volkovysk"></circle>
										<!-- <use class="use" xlink:href="#c_volkovysk"></use>
											<use class="use" xlink:href="#t_volkovysk"></use> -->


								</svg>