<?xml version="1.0" encoding="iso-8859-1"?>
<!-- Generator: Adobe Illustrator 19.0.0, SVG Export Plug-In . SVG Version: 6.00 Build 0)  -->
<svg version="1.1" id="Capa_1" xmlns="http://www.w3.org/2000/svg" xmlns:xlink="http://www.w3.org/1999/xlink" x="0px" y="0px"
	 viewBox="0 0 512 512" style="enable-background:new 0 0 512 512;" xml:space="preserve">
<linearGradient id="SVGID_1_" gradientUnits="userSpaceOnUse" x1="74.9807" y1="439.0193" x2="437.0193" y2="76.9807" gradientTransform="matrix(1 0 0 -1 0 514)">
	<stop  offset="0" style="stop-color:#CBED96"/>
	<stop  offset="1" style="stop-color:#7DD636"/>
</linearGradient>
<circle style="fill:url(#SVGID_1_);" cx="256" cy="256" r="256"/>
<rect x="116.28" y="87.11" style="fill:#4F0953;" width="284.81" height="337.78"/>
<rect x="116.28" y="87.11" style="fill:#FFFFFF;" width="274.83" height="337.78"/>
<rect x="251.17" y="87.11" style="fill:#D5ED9A;" width="141.5" height="337.78"/>
<rect x="251.17" y="87.11" style="fill:#FFFFFF;" width="133" height="337.78"/>
<linearGradient id="SVGID_2_" gradientUnits="userSpaceOnUse" x1="116.28" y1="258" x2="370.32" y2="258" gradientTransform="matrix(1 0 0 -1 0 514)">
	<stop  offset="0" style="stop-color:#AD1E9E"/>
	<stop  offset="1" style="stop-color:#5C0254"/>
</linearGradient>
<rect x="116.28" y="87.11" style="fill:url(#SVGID_2_);" width="254.04" height="337.78"/>
<g>
	
		<linearGradient id="SVGID_3_" gradientUnits="userSpaceOnUse" x1="87.58" y1="161.4725" x2="144.973" y2="161.4725" gradientTransform="matrix(1 0 0 -1 0 514)">
		<stop  offset="0.001" style="stop-color:#FFFFFF"/>
		<stop  offset="1" style="stop-color:#00FEF6"/>
	</linearGradient>
	<path style="fill:url(#SVGID_3_);" d="M131.78,366.17h-31.007c-7.286,0-13.193-5.907-13.193-13.193v-0.899
		c0-7.286,5.907-13.193,13.193-13.193h31.007c7.286,0,13.193,5.906,13.193,13.193v0.899
		C144.973,360.264,139.066,366.17,131.78,366.17z"/>
	
		<linearGradient id="SVGID_4_" gradientUnits="userSpaceOnUse" x1="87.58" y1="258.0005" x2="144.973" y2="258.0005" gradientTransform="matrix(1 0 0 -1 0 514)">
		<stop  offset="0.001" style="stop-color:#FFFFFF"/>
		<stop  offset="1" style="stop-color:#00FEF6"/>
	</linearGradient>
	<path style="fill:url(#SVGID_4_);" d="M131.78,269.642h-31.007c-7.286,0-13.193-5.907-13.193-13.193v-0.899
		c0-7.286,5.907-13.193,13.193-13.193h31.007c7.286,0,13.193,5.907,13.193,13.193v0.899
		C144.973,263.736,139.066,269.642,131.78,269.642z"/>
	
		<linearGradient id="SVGID_5_" gradientUnits="userSpaceOnUse" x1="87.58" y1="354.5285" x2="144.973" y2="354.5285" gradientTransform="matrix(1 0 0 -1 0 514)">
		<stop  offset="0.001" style="stop-color:#FFFFFF"/>
		<stop  offset="1" style="stop-color:#00FEF6"/>
	</linearGradient>
	<path style="fill:url(#SVGID_5_);" d="M131.78,173.114h-31.007c-7.286,0-13.193-5.906-13.193-13.193v-0.899
		c0-7.286,5.907-13.193,13.193-13.193h31.007c7.286,0,13.193,5.907,13.193,13.193v0.899
		C144.973,167.208,139.066,173.114,131.78,173.114z"/>
</g>
<linearGradient id="SVGID_6_" gradientUnits="userSpaceOnUse" x1="180.27" y1="308.155" x2="318.58" y2="308.155" gradientTransform="matrix(1 0 0 -1 0 514)">
	<stop  offset="0" style="stop-color:#00EED0"/>
	<stop  offset="1" style="stop-color:#00AF94"/>
</linearGradient>
<rect x="180.27" y="126.91" style="fill:url(#SVGID_6_);" width="138.31" height="157.87"/>
<g>
</g>
<g>
</g>
<g>
</g>
<g>
</g>
<g>
</g>
<g>
</g>
<g>
</g>
<g>
</g>
<g>
</g>
<g>
</g>
<g>
</g>
<g>
</g>
<g>
</g>
<g>
</g>
<g>
</g>
</svg>
